<svg xmlns="http://www.w3.org/2000/svg" xmlns:xlink="http://www.w3.org/1999/xlink" width="500" zoomAndPan="magnify" viewBox="0 0 375 374.999991" height="500" preserveAspectRatio="xMidYMid meet" version="1.0"><defs><g/><clipPath id="3f9f0a7763"><path d="M 116.246094 73 L 258.746094 73 L 258.746094 202.753906 L 116.246094 202.753906 Z M 116.246094 73 " clip-rule="nonzero"/></clipPath><clipPath id="3651502cae"><path d="M 140 54.253906 L 235 54.253906 L 235 178 L 140 178 Z M 140 54.253906 " clip-rule="nonzero"/></clipPath></defs><rect x="-37.5" width="450" fill="#ffffff" y="-37.499999" height="449.999989" fill-opacity="1"/><rect x="-37.5" width="450" fill="#1b1b1b" y="-37.499999" height="449.999989" fill-opacity="1"/><g clip-path="url(#3f9f0a7763)"><path fill="#ffffff" d="M 258.003906 121.277344 L 245.828125 115.226562 C 244.492188 110.394531 242.582031 105.804688 240.164062 101.539062 L 244.503906 88.632812 C 240.4375 83.203125 235.617188 78.375 230.203125 74.304688 L 217.3125 78.652344 C 213.097656 76.253906 208.566406 74.355469 203.800781 73.023438 C 206.59375 76.269531 209.710938 79.589844 212.886719 82.972656 C 225.652344 96.5625 240.125 111.96875 240.125 130.628906 C 240.125 159.699219 216.515625 183.347656 187.496094 183.347656 C 158.472656 183.347656 134.863281 159.699219 134.863281 130.628906 C 134.863281 111.96875 149.335938 96.5625 162.101562 82.972656 C 165.28125 79.589844 168.398438 76.269531 171.191406 73.023438 C 166.421875 74.355469 161.890625 76.253906 157.679688 78.652344 L 144.789062 74.304688 C 139.371094 78.375 134.550781 83.203125 130.488281 88.632812 L 134.824219 101.539062 C 132.410156 105.804688 130.496094 110.394531 129.164062 115.226562 L 116.984375 121.277344 C 116.515625 124.585938 116.269531 127.96875 116.269531 131.40625 C 116.269531 134.847656 116.515625 138.226562 116.984375 141.535156 L 129.164062 147.589844 C 130.496094 152.421875 132.410156 157.007812 134.824219 161.273438 L 130.488281 174.183594 C 134.550781 179.609375 139.371094 184.4375 144.789062 188.511719 L 157.679688 184.164062 C 161.9375 186.585938 166.515625 188.5 171.339844 189.835938 L 177.382812 202.035156 C 180.6875 202.503906 184.0625 202.753906 187.496094 202.753906 C 190.929688 202.753906 194.304688 202.503906 197.609375 202.035156 L 203.652344 189.835938 C 208.472656 188.5 213.054688 186.585938 217.3125 184.164062 L 230.203125 188.511719 C 235.617188 184.4375 240.4375 179.609375 244.503906 174.183594 L 240.164062 161.273438 C 242.582031 157.007812 244.492188 152.421875 245.828125 147.589844 L 258.003906 141.535156 C 258.472656 138.226562 258.722656 134.847656 258.722656 131.40625 C 258.722656 127.96875 258.472656 124.585938 258.003906 121.277344 " fill-opacity="1" fill-rule="nonzero"/></g><g clip-path="url(#3651502cae)"><path fill="#80cc28" d="M 187.496094 54.253906 C 185.527344 77.898438 140.453125 100.324219 140.453125 130.628906 C 140.453125 164.59375 173.046875 175.476562 173.046875 175.476562 C 173.046875 175.476562 183.300781 168.640625 191.429688 154.667969 C 232.0625 137.230469 186.996094 98.460938 186.996094 98.460938 C 186.996094 98.460938 187.3125 107.8125 181.773438 117.910156 C 175.464844 129.40625 165.949219 142.695312 182.207031 152.191406 C 194.054688 136.90625 192.269531 121.355469 192.269531 121.355469 C 192.730469 124.117188 193.019531 126.742188 193.15625 129.238281 C 193.25 136.214844 191.785156 146.960938 184.074219 157.964844 C 179.464844 164.542969 170.34375 165.902344 164.007812 160.96875 C 154.972656 153.9375 149.148438 142.953125 149.148438 130.628906 C 149.148438 117.644531 161.027344 105.003906 172.507812 92.777344 C 177.964844 86.96875 183.28125 81.308594 187.496094 75.496094 C 191.707031 81.308594 197.023438 86.96875 202.484375 92.777344 C 213.964844 105.003906 225.839844 117.644531 225.839844 130.628906 C 225.839844 151.160156 209.683594 167.972656 189.4375 168.988281 C 188.207031 170.503906 186.917969 171.925781 185.601562 173.246094 C 184.132812 174.71875 182.632812 176.070312 181.148438 177.316406 C 183.222656 177.601562 185.34375 177.75 187.496094 177.75 C 213.472656 177.75 234.535156 156.648438 234.535156 130.628906 C 234.535156 100.324219 189.464844 77.898438 187.496094 54.253906 " fill-opacity="1" fill-rule="nonzero"/></g><g fill="#ffffff" fill-opacity="1"><g transform="translate(42.572655, 252.125714)"><g><path d="M 21.15625 -22.046875 L 12.921875 -22.046875 L 12.921875 0 L 8.53125 0 L 8.53125 -22.046875 L 0.328125 -22.046875 L 0.328125 -25.984375 L 21.15625 -25.984375 Z M 21.15625 -22.046875 "/></g></g></g><g fill="#ffffff" fill-opacity="1"><g transform="translate(65.178862, 252.125714)"><g/></g></g><g fill="#ffffff" fill-opacity="1"><g transform="translate(75.86971, 252.125714)"><g><path d="M 14.921875 -26.09375 C 16.753906 -26.09375 18.539062 -25.738281 20.28125 -25.03125 C 22.03125 -24.332031 23.535156 -23.351562 24.796875 -22.09375 L 22.234375 -18.890625 C 21.296875 -19.910156 20.179688 -20.71875 18.890625 -21.3125 C 17.609375 -21.90625 16.3125 -22.203125 15 -22.203125 C 12.394531 -22.203125 10.195312 -21.316406 8.40625 -19.546875 C 6.613281 -17.773438 5.71875 -15.613281 5.71875 -13.0625 C 5.71875 -10.488281 6.613281 -8.316406 8.40625 -6.546875 C 10.195312 -4.773438 12.394531 -3.890625 15 -3.890625 C 17.695312 -3.890625 20.109375 -4.921875 22.234375 -6.984375 L 24.84375 -4.078125 C 23.5 -2.765625 21.9375 -1.722656 20.15625 -0.953125 C 18.375 -0.191406 16.582031 0.1875 14.78125 0.1875 C 10.96875 0.1875 7.757812 -1.078125 5.15625 -3.609375 C 2.5625 -6.148438 1.265625 -9.289062 1.265625 -13.03125 C 1.265625 -16.71875 2.582031 -19.816406 5.21875 -22.328125 C 7.851562 -24.835938 11.085938 -26.09375 14.921875 -26.09375 Z M 14.921875 -26.09375 "/></g></g></g><g fill="#ffffff" fill-opacity="1"><g transform="translate(102.856025, 252.125714)"><g><path d="M 5.234375 -22.328125 C 7.878906 -24.835938 11.144531 -26.09375 15.03125 -26.09375 C 18.914062 -26.09375 22.179688 -24.835938 24.828125 -22.328125 C 27.484375 -19.816406 28.8125 -16.703125 28.8125 -12.984375 C 28.8125 -9.273438 27.484375 -6.148438 24.828125 -3.609375 C 22.179688 -1.078125 18.914062 0.1875 15.03125 0.1875 C 11.144531 0.1875 7.878906 -1.078125 5.234375 -3.609375 C 2.585938 -6.148438 1.265625 -9.273438 1.265625 -12.984375 C 1.265625 -16.703125 2.585938 -19.816406 5.234375 -22.328125 Z M 15.078125 -22.15625 C 12.503906 -22.15625 10.300781 -21.269531 8.46875 -19.5 C 6.632812 -17.738281 5.71875 -15.566406 5.71875 -12.984375 C 5.71875 -10.410156 6.640625 -8.226562 8.484375 -6.4375 C 10.328125 -4.644531 12.519531 -3.75 15.0625 -3.75 C 17.613281 -3.75 19.789062 -4.644531 21.59375 -6.4375 C 23.40625 -8.226562 24.3125 -10.410156 24.3125 -12.984375 C 24.3125 -15.566406 23.40625 -17.738281 21.59375 -19.5 C 19.789062 -21.269531 17.617188 -22.15625 15.078125 -22.15625 Z M 15.078125 -22.15625 "/></g></g></g><g fill="#ffffff" fill-opacity="1"><g transform="translate(134.036846, 252.125714)"><g><path d="M 25.953125 0 L 21.640625 0 L 7.796875 -18.640625 L 7.796875 0 L 3.421875 0 L 3.421875 -25.984375 L 7.71875 -25.984375 L 21.640625 -7.3125 L 21.640625 -25.984375 L 25.953125 -25.984375 Z M 25.953125 0 "/></g></g></g><g fill="#ffffff" fill-opacity="1"><g transform="translate(164.54951, 252.125714)"><g><path d="M 11.953125 -26.171875 C 15.316406 -26.171875 18.347656 -25.28125 21.046875 -23.5 L 19.234375 -19.640625 C 16.585938 -21.242188 14.050781 -22.046875 11.625 -22.046875 C 10.3125 -22.046875 9.273438 -21.8125 8.515625 -21.34375 C 7.765625 -20.875 7.390625 -20.207031 7.390625 -19.34375 C 7.390625 -18.476562 7.734375 -17.738281 8.421875 -17.125 C 9.117188 -16.519531 9.984375 -16.078125 11.015625 -15.796875 C 12.054688 -15.515625 13.179688 -15.15625 14.390625 -14.71875 C 15.609375 -14.289062 16.738281 -13.832031 17.78125 -13.34375 C 18.820312 -12.863281 19.679688 -12.109375 20.359375 -11.078125 C 21.046875 -10.054688 21.390625 -8.8125 21.390625 -7.34375 C 21.390625 -5.070312 20.476562 -3.253906 18.65625 -1.890625 C 16.832031 -0.523438 14.472656 0.15625 11.578125 0.15625 C 9.597656 0.15625 7.679688 -0.210938 5.828125 -0.953125 C 3.972656 -1.703125 2.351562 -2.707031 0.96875 -3.96875 L 2.859375 -7.765625 C 4.171875 -6.546875 5.613281 -5.609375 7.1875 -4.953125 C 8.757812 -4.296875 10.25 -3.96875 11.65625 -3.96875 C 13.1875 -3.96875 14.378906 -4.242188 15.234375 -4.796875 C 16.085938 -5.359375 16.515625 -6.132812 16.515625 -7.125 C 16.515625 -8.019531 16.164062 -8.769531 15.46875 -9.375 C 14.78125 -9.976562 13.914062 -10.421875 12.875 -10.703125 C 11.84375 -10.992188 10.71875 -11.34375 9.5 -11.75 C 8.289062 -12.15625 7.164062 -12.585938 6.125 -13.046875 C 5.082031 -13.503906 4.210938 -14.238281 3.515625 -15.25 C 2.828125 -16.269531 2.484375 -17.5 2.484375 -18.9375 C 2.484375 -21.132812 3.347656 -22.890625 5.078125 -24.203125 C 6.816406 -25.515625 9.109375 -26.171875 11.953125 -26.171875 Z M 11.953125 -26.171875 "/></g></g></g><g fill="#ffffff" fill-opacity="1"><g transform="translate(188.75186, 252.125714)"><g><path d="M 25.5 -25.984375 L 25.5 -10.765625 C 25.5 -7.378906 24.492188 -4.707031 22.484375 -2.75 C 20.484375 -0.789062 17.726562 0.1875 14.21875 0.1875 C 10.707031 0.1875 7.941406 -0.789062 5.921875 -2.75 C 3.898438 -4.707031 2.890625 -7.378906 2.890625 -10.765625 L 2.890625 -25.984375 L 7.28125 -25.984375 L 7.28125 -10.765625 C 7.28125 -8.585938 7.90625 -6.875 9.15625 -5.625 C 10.40625 -4.375 12.101562 -3.75 14.25 -3.75 C 16.382812 -3.75 18.0625 -4.367188 19.28125 -5.609375 C 20.507812 -6.847656 21.125 -8.566406 21.125 -10.765625 L 21.125 -25.984375 Z M 25.5 -25.984375 "/></g></g></g><g fill="#ffffff" fill-opacity="1"><g transform="translate(218.225183, 252.125714)"><g><path d="M 7.796875 -3.96875 L 19.046875 -3.96875 L 19.046875 0 L 3.421875 0 L 3.421875 -25.984375 L 7.796875 -25.984375 Z M 7.796875 -3.96875 "/></g></g></g><g fill="#ffffff" fill-opacity="1"><g transform="translate(239.161017, 252.125714)"><g><path d="M 21.15625 -22.046875 L 12.921875 -22.046875 L 12.921875 0 L 8.53125 0 L 8.53125 -22.046875 L 0.328125 -22.046875 L 0.328125 -25.984375 L 21.15625 -25.984375 Z M 21.15625 -22.046875 "/></g></g></g><g fill="#ffffff" fill-opacity="1"><g transform="translate(261.767229, 252.125714)"><g><path d="M 7.796875 0 L 3.421875 0 L 3.421875 -25.984375 L 7.796875 -25.984375 Z M 7.796875 0 "/></g></g></g><g fill="#ffffff" fill-opacity="1"><g transform="translate(274.091333, 252.125714)"><g><path d="M 25.953125 0 L 21.640625 0 L 7.796875 -18.640625 L 7.796875 0 L 3.421875 0 L 3.421875 -25.984375 L 7.71875 -25.984375 L 21.640625 -7.3125 L 21.640625 -25.984375 L 25.953125 -25.984375 Z M 25.953125 0 "/></g></g></g><g fill="#ffffff" fill-opacity="1"><g transform="translate(304.604005, 252.125714)"><g><path d="M 21.203125 -12.765625 L 25.015625 -12.765625 L 25.015625 -3.1875 C 23.679688 -2.175781 22.101562 -1.359375 20.28125 -0.734375 C 18.46875 -0.117188 16.679688 0.1875 14.921875 0.1875 C 11.085938 0.1875 7.851562 -1.078125 5.21875 -3.609375 C 2.582031 -6.148438 1.265625 -9.273438 1.265625 -12.984375 C 1.265625 -16.703125 2.597656 -19.816406 5.265625 -22.328125 C 7.941406 -24.835938 11.25 -26.09375 15.1875 -26.09375 C 17.019531 -26.09375 18.816406 -25.765625 20.578125 -25.109375 C 22.347656 -24.453125 23.878906 -23.566406 25.171875 -22.453125 L 22.6875 -19.234375 C 20.550781 -21.210938 18.050781 -22.203125 15.1875 -22.203125 C 12.539062 -22.203125 10.300781 -21.3125 8.46875 -19.53125 C 6.632812 -17.75 5.71875 -15.570312 5.71875 -13 C 5.71875 -10.394531 6.640625 -8.203125 8.484375 -6.421875 C 10.328125 -4.640625 12.570312 -3.75 15.21875 -3.75 C 17.226562 -3.75 19.222656 -4.34375 21.203125 -5.53125 Z M 21.203125 -12.765625 "/></g></g></g><g fill="#ffffff" fill-opacity="1"><g transform="translate(60.108424, 282.122216)"><g><path d="M 5.984375 -13.09375 C 7.660156 -13.09375 9.175781 -12.644531 10.53125 -11.75 L 9.609375 -9.8125 C 8.285156 -10.625 7.019531 -11.03125 5.8125 -11.03125 C 5.15625 -11.03125 4.632812 -10.910156 4.25 -10.671875 C 3.875 -10.441406 3.6875 -10.109375 3.6875 -9.671875 C 3.6875 -9.234375 3.859375 -8.863281 4.203125 -8.5625 C 4.554688 -8.257812 4.992188 -8.035156 5.515625 -7.890625 C 6.035156 -7.753906 6.597656 -7.578125 7.203125 -7.359375 C 7.804688 -7.140625 8.367188 -6.910156 8.890625 -6.671875 C 9.410156 -6.429688 9.835938 -6.050781 10.171875 -5.53125 C 10.515625 -5.019531 10.6875 -4.398438 10.6875 -3.671875 C 10.6875 -2.535156 10.234375 -1.625 9.328125 -0.9375 C 8.421875 -0.257812 7.242188 0.078125 5.796875 0.078125 C 4.804688 0.078125 3.84375 -0.109375 2.90625 -0.484375 C 1.976562 -0.859375 1.171875 -1.359375 0.484375 -1.984375 L 1.421875 -3.875 C 2.078125 -3.269531 2.796875 -2.800781 3.578125 -2.46875 C 4.367188 -2.144531 5.117188 -1.984375 5.828125 -1.984375 C 6.597656 -1.984375 7.195312 -2.125 7.625 -2.40625 C 8.050781 -2.6875 8.265625 -3.070312 8.265625 -3.5625 C 8.265625 -4.007812 8.085938 -4.382812 7.734375 -4.6875 C 7.390625 -4.988281 6.957031 -5.207031 6.4375 -5.34375 C 5.914062 -5.488281 5.351562 -5.664062 4.75 -5.875 C 4.144531 -6.082031 3.582031 -6.300781 3.0625 -6.53125 C 2.539062 -6.757812 2.109375 -7.125 1.765625 -7.625 C 1.421875 -8.132812 1.25 -8.75 1.25 -9.46875 C 1.25 -10.570312 1.679688 -11.453125 2.546875 -12.109375 C 3.410156 -12.765625 4.554688 -13.09375 5.984375 -13.09375 Z M 5.984375 -13.09375 "/></g></g></g><g fill="#ffffff" fill-opacity="1"><g transform="translate(75.361491, 282.122216)"><g><path d="M 2.609375 -11.15625 C 3.941406 -12.414062 5.578125 -13.046875 7.515625 -13.046875 C 9.460938 -13.046875 11.097656 -12.414062 12.421875 -11.15625 C 13.742188 -9.90625 14.40625 -8.351562 14.40625 -6.5 C 14.40625 -4.644531 13.742188 -3.082031 12.421875 -1.8125 C 11.097656 -0.539062 9.460938 0.09375 7.515625 0.09375 C 5.578125 0.09375 3.941406 -0.539062 2.609375 -1.8125 C 1.285156 -3.082031 0.625 -4.644531 0.625 -6.5 C 0.625 -8.351562 1.285156 -9.90625 2.609375 -11.15625 Z M 7.53125 -11.078125 C 6.25 -11.078125 5.148438 -10.632812 4.234375 -9.75 C 3.316406 -8.863281 2.859375 -7.773438 2.859375 -6.484375 C 2.859375 -5.203125 3.316406 -4.113281 4.234375 -3.21875 C 5.160156 -2.320312 6.257812 -1.875 7.53125 -1.875 C 8.8125 -1.875 9.898438 -2.320312 10.796875 -3.21875 C 11.703125 -4.113281 12.15625 -5.203125 12.15625 -6.484375 C 12.15625 -7.773438 11.703125 -8.863281 10.796875 -9.75 C 9.898438 -10.632812 8.8125 -11.078125 7.53125 -11.078125 Z M 7.53125 -11.078125 "/></g></g></g><g fill="#ffffff" fill-opacity="1"><g transform="translate(94.102452, 282.122216)"><g><path d="M 7.46875 -13.046875 C 8.375 -13.046875 9.265625 -12.867188 10.140625 -12.515625 C 11.015625 -12.160156 11.769531 -11.671875 12.40625 -11.046875 L 11.125 -9.453125 C 10.644531 -9.953125 10.082031 -10.347656 9.4375 -10.640625 C 8.800781 -10.941406 8.15625 -11.09375 7.5 -11.09375 C 6.195312 -11.09375 5.097656 -10.648438 4.203125 -9.765625 C 3.304688 -8.890625 2.859375 -7.8125 2.859375 -6.53125 C 2.859375 -5.25 3.304688 -4.164062 4.203125 -3.28125 C 5.097656 -2.394531 6.195312 -1.953125 7.5 -1.953125 C 8.84375 -1.953125 10.050781 -2.460938 11.125 -3.484375 L 12.421875 -2.046875 C 11.753906 -1.390625 10.972656 -0.867188 10.078125 -0.484375 C 9.191406 -0.0976562 8.296875 0.09375 7.390625 0.09375 C 5.484375 0.09375 3.878906 -0.539062 2.578125 -1.8125 C 1.273438 -3.082031 0.625 -4.648438 0.625 -6.515625 C 0.625 -8.359375 1.28125 -9.90625 2.59375 -11.15625 C 3.914062 -12.414062 5.539062 -13.046875 7.46875 -13.046875 Z M 7.46875 -13.046875 "/></g></g></g><g fill="#ffffff" fill-opacity="1"><g transform="translate(110.746965, 282.122216)"><g><path d="M 3.890625 0 L 1.703125 0 L 1.703125 -13 L 3.890625 -13 Z M 3.890625 0 "/></g></g></g><g fill="#ffffff" fill-opacity="1"><g transform="translate(120.063212, 282.122216)"><g><path d="M 10.984375 -11.03125 L 3.890625 -11.03125 L 3.890625 -7.515625 L 10.25 -7.515625 L 10.25 -5.546875 L 3.890625 -5.546875 L 3.890625 -1.96875 L 11.21875 -1.96875 L 11.21875 0 L 1.703125 0 L 1.703125 -13 L 10.984375 -13 Z M 10.984375 -11.03125 "/></g></g></g><g fill="#ffffff" fill-opacity="1"><g transform="translate(135.947071, 282.122216)"><g><path d="M 1.703125 -13 L 7.03125 -13 C 8.976562 -13 10.582031 -12.382812 11.84375 -11.15625 C 13.113281 -9.925781 13.75 -8.367188 13.75 -6.484375 C 13.75 -4.609375 13.113281 -3.054688 11.84375 -1.828125 C 10.570312 -0.609375 8.953125 0 6.984375 0 L 1.703125 0 Z M 3.890625 -11.03125 L 3.890625 -1.96875 L 7.09375 -1.96875 C 8.363281 -1.96875 9.421875 -2.390625 10.265625 -3.234375 C 11.117188 -4.085938 11.546875 -5.171875 11.546875 -6.484375 C 11.546875 -7.796875 11.109375 -8.878906 10.234375 -9.734375 C 9.359375 -10.597656 8.28125 -11.03125 7 -11.03125 Z M 3.890625 -11.03125 "/></g></g></g><g fill="#ffffff" fill-opacity="1"><g transform="translate(154.03869, 282.122216)"><g><path d="M 10.09375 -2.9375 L 3.546875 -2.9375 L 2.296875 0 L 0.015625 0 L 5.75 -13 L 8 -13 L 13.6875 0 L 11.34375 0 Z M 9.265625 -4.875 L 6.8125 -10.65625 L 4.359375 -4.875 Z M 9.265625 -4.875 "/></g></g></g><g fill="#ffffff" fill-opacity="1"><g transform="translate(171.443864, 282.122216)"><g><path d="M 1.703125 -13 L 7.03125 -13 C 8.976562 -13 10.582031 -12.382812 11.84375 -11.15625 C 13.113281 -9.925781 13.75 -8.367188 13.75 -6.484375 C 13.75 -4.609375 13.113281 -3.054688 11.84375 -1.828125 C 10.570312 -0.609375 8.953125 0 6.984375 0 L 1.703125 0 Z M 3.890625 -11.03125 L 3.890625 -1.96875 L 7.09375 -1.96875 C 8.363281 -1.96875 9.421875 -2.390625 10.265625 -3.234375 C 11.117188 -4.085938 11.546875 -5.171875 11.546875 -6.484375 C 11.546875 -7.796875 11.109375 -8.878906 10.234375 -9.734375 C 9.359375 -10.597656 8.28125 -11.03125 7 -11.03125 Z M 3.890625 -11.03125 "/></g></g></g><g fill="#ffffff" fill-opacity="1"><g transform="translate(189.535484, 282.122216)"><g/></g></g><g fill="#ffffff" fill-opacity="1"><g transform="translate(198.035419, 282.122216)"><g><path d="M 10.09375 -2.9375 L 3.546875 -2.9375 L 2.296875 0 L 0.015625 0 L 5.75 -13 L 8 -13 L 13.6875 0 L 11.34375 0 Z M 9.265625 -4.875 L 6.8125 -10.65625 L 4.359375 -4.875 Z M 9.265625 -4.875 "/></g></g></g><g fill="#ffffff" fill-opacity="1"><g transform="translate(215.440594, 282.122216)"><g><path d="M 12.96875 0 L 10.828125 0 L 3.890625 -9.3125 L 3.890625 0 L 1.703125 0 L 1.703125 -13 L 3.859375 -13 L 10.828125 -3.65625 L 10.828125 -13 L 12.96875 -13 Z M 12.96875 0 "/></g></g></g><g fill="#ffffff" fill-opacity="1"><g transform="translate(233.847607, 282.122216)"><g><path d="M 2.609375 -11.15625 C 3.941406 -12.414062 5.578125 -13.046875 7.515625 -13.046875 C 9.460938 -13.046875 11.097656 -12.414062 12.421875 -11.15625 C 13.742188 -9.90625 14.40625 -8.351562 14.40625 -6.5 C 14.40625 -4.644531 13.742188 -3.082031 12.421875 -1.8125 C 11.097656 -0.539062 9.460938 0.09375 7.515625 0.09375 C 5.578125 0.09375 3.941406 -0.539062 2.609375 -1.8125 C 1.285156 -3.082031 0.625 -4.644531 0.625 -6.5 C 0.625 -8.351562 1.285156 -9.90625 2.609375 -11.15625 Z M 7.53125 -11.078125 C 6.25 -11.078125 5.148438 -10.632812 4.234375 -9.75 C 3.316406 -8.863281 2.859375 -7.773438 2.859375 -6.484375 C 2.859375 -5.203125 3.316406 -4.113281 4.234375 -3.21875 C 5.160156 -2.320312 6.257812 -1.875 7.53125 -1.875 C 8.8125 -1.875 9.898438 -2.320312 10.796875 -3.21875 C 11.703125 -4.113281 12.15625 -5.203125 12.15625 -6.484375 C 12.15625 -7.773438 11.703125 -8.863281 10.796875 -9.75 C 9.898438 -10.632812 8.8125 -11.078125 7.53125 -11.078125 Z M 7.53125 -11.078125 "/></g></g></g><g fill="#ffffff" fill-opacity="1"><g transform="translate(252.588572, 282.122216)"><g><path d="M 12.96875 0 L 10.828125 0 L 3.890625 -9.3125 L 3.890625 0 L 1.703125 0 L 1.703125 -13 L 3.859375 -13 L 10.828125 -3.65625 L 10.828125 -13 L 12.96875 -13 Z M 12.96875 0 "/></g></g></g><g fill="#ffffff" fill-opacity="1"><g transform="translate(270.995586, 282.122216)"><g><path d="M 3.890625 0 L 1.703125 0 L 1.703125 -13 L 3.890625 -13 Z M 3.890625 0 "/></g></g></g><g fill="#ffffff" fill-opacity="1"><g transform="translate(280.311836, 282.122216)"><g><path d="M 15.4375 0 L 13.421875 0 L 13.40625 -9.703125 L 9.296875 -1.359375 L 7.875 -1.359375 L 3.765625 -9.703125 L 3.765625 0 L 1.703125 0 L 1.703125 -13 L 4.3125 -13 L 8.59375 -4.359375 L 12.859375 -13 L 15.4375 -13 Z M 15.4375 0 "/></g></g></g><g fill="#ffffff" fill-opacity="1"><g transform="translate(301.186319, 282.122216)"><g><path d="M 10.09375 -2.9375 L 3.546875 -2.9375 L 2.296875 0 L 0.015625 0 L 5.75 -13 L 8 -13 L 13.6875 0 L 11.34375 0 Z M 9.265625 -4.875 L 6.8125 -10.65625 L 4.359375 -4.875 Z M 9.265625 -4.875 "/></g></g></g></svg>