<svg xmlns="http://www.w3.org/2000/svg" xmlns:xlink="http://www.w3.org/1999/xlink" width="500" zoomAndPan="magnify" viewBox="0 0 375 374.999991" height="500" preserveAspectRatio="xMidYMid meet" version="1.0"><defs><g/><clipPath id="730f8e1a04"><path d="M 118.710938 90 L 255.960938 90 L 255.960938 215.921875 L 118.710938 215.921875 Z M 118.710938 90 " clip-rule="nonzero"/></clipPath><clipPath id="62509a0928"><path d="M 142 72.671875 L 233 72.671875 L 233 192 L 142 192 Z M 142 72.671875 " clip-rule="nonzero"/></clipPath><clipPath id="3861df0f4a"><path d="M 259 0 L 375 0 L 375 138.425781 L 259 138.425781 Z M 259 0 " clip-rule="nonzero"/></clipPath></defs><rect x="-37.5" width="450" fill="#ffffff" y="-37.499999" height="449.999989" fill-opacity="1"/><rect x="-37.5" width="450" fill="#6fb537" y="-37.499999" height="449.999989" fill-opacity="1"/><g clip-path="url(#730f8e1a04)"><path fill="#ffffff" d="M 255.238281 137.324219 L 243.511719 131.484375 C 242.226562 126.824219 240.386719 122.398438 238.058594 118.285156 L 242.234375 105.832031 C 238.320312 100.597656 233.679688 95.9375 228.464844 92.011719 L 216.050781 96.203125 C 211.992188 93.894531 207.628906 92.0625 203.035156 90.773438 C 205.726562 93.90625 208.730469 97.109375 211.789062 100.371094 C 224.082031 113.484375 238.019531 128.34375 238.019531 146.347656 C 238.019531 174.386719 215.28125 197.199219 187.332031 197.199219 C 159.386719 197.199219 136.648438 174.386719 136.648438 146.347656 C 136.648438 128.34375 150.582031 113.484375 162.878906 100.371094 C 165.9375 97.109375 168.941406 93.90625 171.632812 90.773438 C 167.039062 92.0625 162.675781 93.894531 158.617188 96.203125 L 146.203125 92.011719 C 140.988281 95.9375 136.347656 100.597656 132.429688 105.832031 L 136.609375 118.285156 C 134.28125 122.398438 132.4375 126.824219 131.15625 131.484375 L 119.429688 137.324219 C 118.976562 140.515625 118.738281 143.777344 118.738281 147.09375 C 118.738281 150.414062 118.976562 153.675781 119.429688 156.867188 L 131.15625 162.707031 C 132.4375 167.367188 134.28125 171.792969 136.609375 175.90625 L 132.429688 188.359375 C 136.347656 193.59375 140.988281 198.25 146.203125 202.179688 L 158.617188 197.988281 C 162.71875 200.320312 167.128906 202.171875 171.773438 203.457031 L 177.59375 215.226562 C 180.777344 215.679688 184.027344 215.917969 187.332031 215.917969 C 190.640625 215.917969 193.890625 215.679688 197.074219 215.226562 L 202.894531 203.457031 C 207.539062 202.171875 211.949219 200.320312 216.050781 197.988281 L 228.464844 202.179688 C 233.679688 198.25 238.320312 193.59375 242.234375 188.359375 L 238.058594 175.90625 C 240.386719 171.792969 242.226562 167.367188 243.511719 162.707031 L 255.238281 156.867188 C 255.691406 153.675781 255.929688 150.414062 255.929688 147.09375 C 255.929688 143.777344 255.691406 140.515625 255.238281 137.324219 " fill-opacity="1" fill-rule="nonzero"/></g><g clip-path="url(#62509a0928)"><path fill="#ffffff" d="M 187.332031 72.671875 C 185.4375 95.480469 142.03125 117.109375 142.03125 146.347656 C 142.03125 179.109375 173.421875 189.605469 173.421875 189.605469 C 173.421875 189.605469 183.296875 183.011719 191.121094 169.53125 C 230.257812 152.714844 186.855469 115.316406 186.855469 115.316406 C 186.855469 115.316406 187.15625 124.335938 181.820312 134.074219 C 175.746094 145.167969 166.585938 157.984375 182.242188 167.144531 C 193.648438 152.402344 191.933594 137.398438 191.933594 137.398438 C 192.375 140.0625 192.65625 142.59375 192.785156 145.003906 C 192.875 151.730469 191.464844 162.101562 184.039062 172.714844 C 179.601562 179.0625 170.816406 180.371094 164.714844 175.613281 C 156.011719 168.832031 150.40625 158.234375 150.40625 146.347656 C 150.40625 133.820312 161.84375 121.625 172.898438 109.832031 C 178.15625 104.230469 183.277344 98.769531 187.332031 93.160156 C 191.390625 98.769531 196.511719 104.230469 201.769531 109.832031 C 212.824219 121.625 224.261719 133.820312 224.261719 146.347656 C 224.261719 166.148438 208.703125 182.371094 189.203125 183.347656 C 188.019531 184.8125 186.777344 186.179688 185.507812 187.457031 C 184.09375 188.875 182.652344 190.179688 181.222656 191.382812 C 183.222656 191.65625 185.261719 191.800781 187.332031 191.800781 C 212.351562 191.800781 232.636719 171.445312 232.636719 146.347656 C 232.636719 117.109375 189.230469 95.480469 187.332031 72.671875 " fill-opacity="1" fill-rule="nonzero"/></g><g clip-path="url(#3861df0f4a)"><path fill="#ffffff" d="M 274.890625 -11.554688 C 274.632812 -9.417969 274.421875 -7.257812 274.210938 -5.097656 C 273.707031 0.015625 273.203125 5.144531 272.097656 10.050781 C 270.78125 15.890625 268.652344 21.261719 266.523438 26.617188 C 262.28125 37.316406 258.058594 47.949219 260.421875 62.132812 C 263.3125 79.472656 272.019531 94.726562 292.703125 102.867188 C 299.464844 105.527344 307.542969 106.839844 315.683594 108.160156 C 325.300781 109.726562 334.996094 111.300781 342.679688 115.128906 C 348.019531 117.785156 352.820312 122.082031 357.570312 126.335938 C 363.160156 131.34375 368.683594 136.289062 374.945312 138.433594 L 374.941406 -11.558594 Z M 274.890625 -11.554688 " fill-opacity="1" fill-rule="nonzero"/></g><path fill="#ffffff" d="M 289.300781 -11.546875 C 289.082031 -9.648438 288.898438 -7.730469 288.714844 -5.808594 C 288.285156 -1.269531 287.855469 3.285156 286.910156 7.644531 C 285.785156 12.835938 283.957031 17.605469 282.140625 22.363281 C 278.503906 31.867188 274.890625 41.3125 276.914062 53.914062 C 279.386719 69.320312 286.839844 82.871094 304.546875 90.097656 C 310.332031 92.464844 317.25 93.628906 324.21875 94.804688 C 332.449219 96.195312 340.75 97.59375 347.328125 100.992188 C 351.898438 103.355469 356.003906 107.171875 360.070312 110.949219 C 364.855469 115.398438 369.585938 119.792969 374.945312 121.699219 L 374.941406 -11.550781 Z M 289.300781 -11.546875 " fill-opacity="1" fill-rule="nonzero"/><g fill="#ffffff" fill-opacity="1"><g transform="translate(70.415203, 252.58759)"><g><path d="M 17.09375 -17.8125 L 10.4375 -17.8125 L 10.4375 0 L 6.90625 0 L 6.90625 -17.8125 L 0.265625 -17.8125 L 0.265625 -21 L 17.09375 -21 Z M 17.09375 -17.8125 "/></g></g></g><g fill="#ffffff" fill-opacity="1"><g transform="translate(88.678445, 252.58759)"><g/></g></g><g fill="#ffffff" fill-opacity="1"><g transform="translate(97.315434, 252.58759)"><g><path d="M 12.0625 -21.09375 C 13.539062 -21.09375 14.984375 -20.804688 16.390625 -20.234375 C 17.804688 -19.660156 19.023438 -18.863281 20.046875 -17.84375 L 17.96875 -15.265625 C 17.207031 -16.085938 16.304688 -16.738281 15.265625 -17.21875 C 14.222656 -17.695312 13.175781 -17.9375 12.125 -17.9375 C 10.019531 -17.9375 8.242188 -17.222656 6.796875 -15.796875 C 5.347656 -14.367188 4.625 -12.625 4.625 -10.5625 C 4.625 -8.476562 5.347656 -6.722656 6.796875 -5.296875 C 8.242188 -3.867188 10.019531 -3.15625 12.125 -3.15625 C 14.300781 -3.15625 16.25 -3.984375 17.96875 -5.640625 L 20.0625 -3.296875 C 18.988281 -2.234375 17.726562 -1.390625 16.28125 -0.765625 C 14.84375 -0.148438 13.394531 0.15625 11.9375 0.15625 C 8.851562 0.15625 6.257812 -0.867188 4.15625 -2.921875 C 2.0625 -4.972656 1.015625 -7.507812 1.015625 -10.53125 C 1.015625 -13.507812 2.078125 -16.015625 4.203125 -18.046875 C 6.335938 -20.078125 8.957031 -21.09375 12.0625 -21.09375 Z M 12.0625 -21.09375 "/></g></g></g><g fill="#ffffff" fill-opacity="1"><g transform="translate(119.117306, 252.58759)"><g><path d="M 4.21875 -18.046875 C 6.363281 -20.078125 9.003906 -21.09375 12.140625 -21.09375 C 15.285156 -21.09375 17.925781 -20.078125 20.0625 -18.046875 C 22.207031 -16.015625 23.28125 -13.5 23.28125 -10.5 C 23.28125 -7.5 22.207031 -4.972656 20.0625 -2.921875 C 17.925781 -0.867188 15.285156 0.15625 12.140625 0.15625 C 9.003906 0.15625 6.363281 -0.867188 4.21875 -2.921875 C 2.082031 -4.972656 1.015625 -7.5 1.015625 -10.5 C 1.015625 -13.5 2.082031 -16.015625 4.21875 -18.046875 Z M 12.1875 -17.90625 C 10.101562 -17.90625 8.320312 -17.191406 6.84375 -15.765625 C 5.363281 -14.335938 4.625 -12.582031 4.625 -10.5 C 4.625 -8.414062 5.367188 -6.648438 6.859375 -5.203125 C 8.347656 -3.753906 10.117188 -3.03125 12.171875 -3.03125 C 14.234375 -3.03125 15.992188 -3.753906 17.453125 -5.203125 C 18.921875 -6.648438 19.65625 -8.414062 19.65625 -10.5 C 19.65625 -12.582031 18.921875 -14.335938 17.453125 -15.765625 C 15.992188 -17.191406 14.238281 -17.90625 12.1875 -17.90625 Z M 12.1875 -17.90625 "/></g></g></g><g fill="#ffffff" fill-opacity="1"><g transform="translate(144.307861, 252.58759)"><g><path d="M 20.96875 0 L 17.484375 0 L 6.296875 -15.0625 L 6.296875 0 L 2.765625 0 L 2.765625 -21 L 6.234375 -21 L 17.484375 -5.90625 L 17.484375 -21 L 20.96875 -21 Z M 20.96875 0 "/></g></g></g><g fill="#ffffff" fill-opacity="1"><g transform="translate(168.958622, 252.58759)"><g><path d="M 9.65625 -21.15625 C 12.375 -21.15625 14.828125 -20.429688 17.015625 -18.984375 L 15.546875 -15.875 C 13.398438 -17.164062 11.347656 -17.8125 9.390625 -17.8125 C 8.328125 -17.8125 7.488281 -17.625 6.875 -17.25 C 6.269531 -16.875 5.96875 -16.332031 5.96875 -15.625 C 5.96875 -14.925781 6.25 -14.332031 6.8125 -13.84375 C 7.375 -13.351562 8.070312 -12.992188 8.90625 -12.765625 C 9.75 -12.535156 10.660156 -12.242188 11.640625 -11.890625 C 12.617188 -11.546875 13.523438 -11.175781 14.359375 -10.78125 C 15.203125 -10.394531 15.898438 -9.785156 16.453125 -8.953125 C 17.003906 -8.117188 17.28125 -7.113281 17.28125 -5.9375 C 17.28125 -4.101562 16.546875 -2.632812 15.078125 -1.53125 C 13.609375 -0.425781 11.703125 0.125 9.359375 0.125 C 7.753906 0.125 6.203125 -0.175781 4.703125 -0.78125 C 3.203125 -1.382812 1.894531 -2.191406 0.78125 -3.203125 L 2.3125 -6.265625 C 3.375 -5.285156 4.535156 -4.53125 5.796875 -4 C 7.066406 -3.46875 8.273438 -3.203125 9.421875 -3.203125 C 10.660156 -3.203125 11.625 -3.425781 12.3125 -3.875 C 13 -4.332031 13.34375 -4.960938 13.34375 -5.765625 C 13.34375 -6.484375 13.0625 -7.085938 12.5 -7.578125 C 11.945312 -8.066406 11.25 -8.425781 10.40625 -8.65625 C 9.570312 -8.882812 8.660156 -9.160156 7.671875 -9.484375 C 6.691406 -9.816406 5.78125 -10.164062 4.9375 -10.53125 C 4.101562 -10.90625 3.40625 -11.503906 2.84375 -12.328125 C 2.289062 -13.148438 2.015625 -14.140625 2.015625 -15.296875 C 2.015625 -17.078125 2.710938 -18.5 4.109375 -19.5625 C 5.503906 -20.625 7.351562 -21.15625 9.65625 -21.15625 Z M 9.65625 -21.15625 "/></g></g></g><g fill="#ffffff" fill-opacity="1"><g transform="translate(188.511367, 252.58759)"><g><path d="M 20.609375 -21 L 20.609375 -8.703125 C 20.609375 -5.960938 19.796875 -3.800781 18.171875 -2.21875 C 16.554688 -0.632812 14.328125 0.15625 11.484375 0.15625 C 8.648438 0.15625 6.414062 -0.632812 4.78125 -2.21875 C 3.15625 -3.800781 2.34375 -5.960938 2.34375 -8.703125 L 2.34375 -21 L 5.875 -21 L 5.875 -8.703125 C 5.875 -6.941406 6.378906 -5.554688 7.390625 -4.546875 C 8.398438 -3.535156 9.773438 -3.03125 11.515625 -3.03125 C 13.234375 -3.03125 14.585938 -3.53125 15.578125 -4.53125 C 16.566406 -5.53125 17.0625 -6.921875 17.0625 -8.703125 L 17.0625 -21 Z M 20.609375 -21 "/></g></g></g><g fill="#ffffff" fill-opacity="1"><g transform="translate(212.322457, 252.58759)"><g><path d="M 6.296875 -3.203125 L 15.390625 -3.203125 L 15.390625 0 L 2.765625 0 L 2.765625 -21 L 6.296875 -21 Z M 6.296875 -3.203125 "/></g></g></g><g fill="#ffffff" fill-opacity="1"><g transform="translate(229.236229, 252.58759)"><g><path d="M 17.09375 -17.8125 L 10.4375 -17.8125 L 10.4375 0 L 6.90625 0 L 6.90625 -17.8125 L 0.265625 -17.8125 L 0.265625 -21 L 17.09375 -21 Z M 17.09375 -17.8125 "/></g></g></g><g fill="#ffffff" fill-opacity="1"><g transform="translate(247.499476, 252.58759)"><g><path d="M 6.296875 0 L 2.765625 0 L 2.765625 -21 L 6.296875 -21 Z M 6.296875 0 "/></g></g></g><g fill="#ffffff" fill-opacity="1"><g transform="translate(257.45595, 252.58759)"><g><path d="M 20.96875 0 L 17.484375 0 L 6.296875 -15.0625 L 6.296875 0 L 2.765625 0 L 2.765625 -21 L 6.234375 -21 L 17.484375 -5.90625 L 17.484375 -21 L 20.96875 -21 Z M 20.96875 0 "/></g></g></g><g fill="#ffffff" fill-opacity="1"><g transform="translate(282.106717, 252.58759)"><g><path d="M 17.125 -10.3125 L 20.21875 -10.3125 L 20.21875 -2.578125 C 19.132812 -1.753906 17.859375 -1.09375 16.390625 -0.59375 C 14.921875 -0.09375 13.476562 0.15625 12.0625 0.15625 C 8.957031 0.15625 6.335938 -0.867188 4.203125 -2.921875 C 2.078125 -4.972656 1.015625 -7.5 1.015625 -10.5 C 1.015625 -13.5 2.09375 -16.015625 4.25 -18.046875 C 6.414062 -20.078125 9.085938 -21.09375 12.265625 -21.09375 C 13.742188 -21.09375 15.195312 -20.828125 16.625 -20.296875 C 18.0625 -19.765625 19.300781 -19.050781 20.34375 -18.15625 L 18.328125 -15.546875 C 16.609375 -17.140625 14.585938 -17.9375 12.265625 -17.9375 C 10.128906 -17.9375 8.320312 -17.21875 6.84375 -15.78125 C 5.363281 -14.34375 4.625 -12.582031 4.625 -10.5 C 4.625 -8.394531 5.367188 -6.625 6.859375 -5.1875 C 8.347656 -3.75 10.160156 -3.03125 12.296875 -3.03125 C 13.921875 -3.03125 15.53125 -3.507812 17.125 -4.46875 Z M 17.125 -10.3125 "/></g></g></g><g fill="#ffffff" fill-opacity="1"><g transform="translate(84.582106, 276.821348)"><g><path d="M 4.828125 -10.578125 C 6.191406 -10.578125 7.414062 -10.21875 8.5 -9.5 L 7.765625 -7.9375 C 6.703125 -8.582031 5.675781 -8.90625 4.6875 -8.90625 C 4.164062 -8.90625 3.75 -8.8125 3.4375 -8.625 C 3.132812 -8.4375 2.984375 -8.164062 2.984375 -7.8125 C 2.984375 -7.46875 3.125 -7.171875 3.40625 -6.921875 C 3.6875 -6.679688 4.035156 -6.5 4.453125 -6.375 C 4.867188 -6.257812 5.320312 -6.113281 5.8125 -5.9375 C 6.3125 -5.769531 6.769531 -5.585938 7.1875 -5.390625 C 7.601562 -5.191406 7.945312 -4.882812 8.21875 -4.46875 C 8.5 -4.0625 8.640625 -3.5625 8.640625 -2.96875 C 8.640625 -2.050781 8.269531 -1.316406 7.53125 -0.765625 C 6.800781 -0.210938 5.851562 0.0625 4.6875 0.0625 C 3.882812 0.0625 3.109375 -0.0859375 2.359375 -0.390625 C 1.609375 -0.691406 0.953125 -1.097656 0.390625 -1.609375 L 1.15625 -3.140625 C 1.6875 -2.648438 2.269531 -2.269531 2.90625 -2 C 3.539062 -1.738281 4.140625 -1.609375 4.703125 -1.609375 C 5.328125 -1.609375 5.8125 -1.71875 6.15625 -1.9375 C 6.5 -2.164062 6.671875 -2.476562 6.671875 -2.875 C 6.671875 -3.238281 6.53125 -3.539062 6.25 -3.78125 C 5.96875 -4.03125 5.617188 -4.210938 5.203125 -4.328125 C 4.785156 -4.441406 4.332031 -4.582031 3.84375 -4.75 C 3.351562 -4.914062 2.894531 -5.085938 2.46875 -5.265625 C 2.050781 -5.453125 1.703125 -5.75 1.421875 -6.15625 C 1.140625 -6.570312 1 -7.070312 1 -7.65625 C 1 -8.539062 1.347656 -9.25 2.046875 -9.78125 C 2.753906 -10.3125 3.679688 -10.578125 4.828125 -10.578125 Z M 4.828125 -10.578125 "/></g></g></g><g fill="#ffffff" fill-opacity="1"><g transform="translate(96.904849, 276.821348)"><g><path d="M 2.109375 -9.015625 C 3.179688 -10.035156 4.503906 -10.546875 6.078125 -10.546875 C 7.648438 -10.546875 8.96875 -10.035156 10.03125 -9.015625 C 11.101562 -8.003906 11.640625 -6.75 11.640625 -5.25 C 11.640625 -3.75 11.101562 -2.484375 10.03125 -1.453125 C 8.96875 -0.429688 7.648438 0.078125 6.078125 0.078125 C 4.503906 0.078125 3.179688 -0.429688 2.109375 -1.453125 C 1.046875 -2.484375 0.515625 -3.75 0.515625 -5.25 C 0.515625 -6.75 1.046875 -8.003906 2.109375 -9.015625 Z M 6.09375 -8.953125 C 5.050781 -8.953125 4.160156 -8.59375 3.421875 -7.875 C 2.679688 -7.164062 2.3125 -6.289062 2.3125 -5.25 C 2.3125 -4.207031 2.679688 -3.320312 3.421875 -2.59375 C 4.171875 -1.875 5.0625 -1.515625 6.09375 -1.515625 C 7.125 -1.515625 8.003906 -1.875 8.734375 -2.59375 C 9.460938 -3.320312 9.828125 -4.207031 9.828125 -5.25 C 9.828125 -6.289062 9.460938 -7.164062 8.734375 -7.875 C 8.003906 -8.59375 7.125 -8.953125 6.09375 -8.953125 Z M 6.09375 -8.953125 "/></g></g></g><g fill="#ffffff" fill-opacity="1"><g transform="translate(112.045413, 276.821348)"><g><path d="M 6.03125 -10.546875 C 6.769531 -10.546875 7.488281 -10.398438 8.1875 -10.109375 C 8.894531 -9.828125 9.503906 -9.429688 10.015625 -8.921875 L 8.984375 -7.640625 C 8.609375 -8.046875 8.160156 -8.367188 7.640625 -8.609375 C 7.117188 -8.847656 6.59375 -8.96875 6.0625 -8.96875 C 5.007812 -8.96875 4.117188 -8.609375 3.390625 -7.890625 C 2.671875 -7.179688 2.3125 -6.3125 2.3125 -5.28125 C 2.3125 -4.238281 2.671875 -3.359375 3.390625 -2.640625 C 4.117188 -1.929688 5.007812 -1.578125 6.0625 -1.578125 C 7.144531 -1.578125 8.117188 -1.988281 8.984375 -2.8125 L 10.03125 -1.65625 C 9.488281 -1.125 8.859375 -0.703125 8.140625 -0.390625 C 7.421875 -0.078125 6.695312 0.078125 5.96875 0.078125 C 4.425781 0.078125 3.128906 -0.429688 2.078125 -1.453125 C 1.035156 -2.484375 0.515625 -3.753906 0.515625 -5.265625 C 0.515625 -6.753906 1.046875 -8.003906 2.109375 -9.015625 C 3.171875 -10.035156 4.476562 -10.546875 6.03125 -10.546875 Z M 6.03125 -10.546875 "/></g></g></g><g fill="#ffffff" fill-opacity="1"><g transform="translate(125.492286, 276.821348)"><g><path d="M 3.15625 0 L 1.375 0 L 1.375 -10.5 L 3.15625 -10.5 Z M 3.15625 0 "/></g></g></g><g fill="#ffffff" fill-opacity="1"><g transform="translate(133.018753, 276.821348)"><g><path d="M 8.875 -8.90625 L 3.15625 -8.90625 L 3.15625 -6.078125 L 8.28125 -6.078125 L 8.28125 -4.484375 L 3.15625 -4.484375 L 3.15625 -1.59375 L 9.0625 -1.59375 L 9.0625 0 L 1.375 0 L 1.375 -10.5 L 8.875 -10.5 Z M 8.875 -8.90625 "/></g></g></g><g fill="#ffffff" fill-opacity="1"><g transform="translate(145.851104, 276.821348)"><g><path d="M 1.375 -10.5 L 5.6875 -10.5 C 7.257812 -10.5 8.554688 -10.003906 9.578125 -9.015625 C 10.597656 -8.023438 11.109375 -6.769531 11.109375 -5.25 C 11.109375 -3.726562 10.59375 -2.472656 9.5625 -1.484375 C 8.539062 -0.492188 7.234375 0 5.640625 0 L 1.375 0 Z M 3.15625 -8.90625 L 3.15625 -1.59375 L 5.734375 -1.59375 C 6.765625 -1.59375 7.617188 -1.929688 8.296875 -2.609375 C 8.984375 -3.296875 9.328125 -4.171875 9.328125 -5.234375 C 9.328125 -6.296875 8.972656 -7.171875 8.265625 -7.859375 C 7.566406 -8.554688 6.695312 -8.90625 5.65625 -8.90625 Z M 3.15625 -8.90625 "/></g></g></g><g fill="#ffffff" fill-opacity="1"><g transform="translate(160.467073, 276.821348)"><g><path d="M 8.15625 -2.375 L 2.859375 -2.375 L 1.859375 0 L 0.015625 0 L 4.65625 -10.5 L 6.46875 -10.5 L 11.0625 0 L 9.171875 0 Z M 7.484375 -3.9375 L 5.5 -8.609375 L 3.53125 -3.9375 Z M 7.484375 -3.9375 "/></g></g></g><g fill="#ffffff" fill-opacity="1"><g transform="translate(174.528474, 276.821348)"><g><path d="M 1.375 -10.5 L 5.6875 -10.5 C 7.257812 -10.5 8.554688 -10.003906 9.578125 -9.015625 C 10.597656 -8.023438 11.109375 -6.769531 11.109375 -5.25 C 11.109375 -3.726562 10.59375 -2.472656 9.5625 -1.484375 C 8.539062 -0.492188 7.234375 0 5.640625 0 L 1.375 0 Z M 3.15625 -8.90625 L 3.15625 -1.59375 L 5.734375 -1.59375 C 6.765625 -1.59375 7.617188 -1.929688 8.296875 -2.609375 C 8.984375 -3.296875 9.328125 -4.171875 9.328125 -5.234375 C 9.328125 -6.296875 8.972656 -7.171875 8.265625 -7.859375 C 7.566406 -8.554688 6.695312 -8.90625 5.65625 -8.90625 Z M 3.15625 -8.90625 "/></g></g></g><g fill="#ffffff" fill-opacity="1"><g transform="translate(189.144443, 276.821348)"><g/></g></g><g fill="#ffffff" fill-opacity="1"><g transform="translate(196.011424, 276.821348)"><g><path d="M 8.15625 -2.375 L 2.859375 -2.375 L 1.859375 0 L 0.015625 0 L 4.65625 -10.5 L 6.46875 -10.5 L 11.0625 0 L 9.171875 0 Z M 7.484375 -3.9375 L 5.5 -8.609375 L 3.53125 -3.9375 Z M 7.484375 -3.9375 "/></g></g></g><g fill="#ffffff" fill-opacity="1"><g transform="translate(210.072825, 276.821348)"><g><path d="M 10.484375 0 L 8.75 0 L 3.15625 -7.53125 L 3.15625 0 L 1.375 0 L 1.375 -10.5 L 3.125 -10.5 L 8.75 -2.953125 L 8.75 -10.5 L 10.484375 -10.5 Z M 10.484375 0 "/></g></g></g><g fill="#ffffff" fill-opacity="1"><g transform="translate(224.943597, 276.821348)"><g><path d="M 2.109375 -9.015625 C 3.179688 -10.035156 4.503906 -10.546875 6.078125 -10.546875 C 7.648438 -10.546875 8.96875 -10.035156 10.03125 -9.015625 C 11.101562 -8.003906 11.640625 -6.75 11.640625 -5.25 C 11.640625 -3.75 11.101562 -2.484375 10.03125 -1.453125 C 8.96875 -0.429688 7.648438 0.078125 6.078125 0.078125 C 4.503906 0.078125 3.179688 -0.429688 2.109375 -1.453125 C 1.046875 -2.484375 0.515625 -3.75 0.515625 -5.25 C 0.515625 -6.75 1.046875 -8.003906 2.109375 -9.015625 Z M 6.09375 -8.953125 C 5.050781 -8.953125 4.160156 -8.59375 3.421875 -7.875 C 2.679688 -7.164062 2.3125 -6.289062 2.3125 -5.25 C 2.3125 -4.207031 2.679688 -3.320312 3.421875 -2.59375 C 4.171875 -1.875 5.0625 -1.515625 6.09375 -1.515625 C 7.125 -1.515625 8.003906 -1.875 8.734375 -2.59375 C 9.460938 -3.320312 9.828125 -4.207031 9.828125 -5.25 C 9.828125 -6.289062 9.460938 -7.164062 8.734375 -7.875 C 8.003906 -8.59375 7.125 -8.953125 6.09375 -8.953125 Z M 6.09375 -8.953125 "/></g></g></g><g fill="#ffffff" fill-opacity="1"><g transform="translate(240.084164, 276.821348)"><g><path d="M 10.484375 0 L 8.75 0 L 3.15625 -7.53125 L 3.15625 0 L 1.375 0 L 1.375 -10.5 L 3.125 -10.5 L 8.75 -2.953125 L 8.75 -10.5 L 10.484375 -10.5 Z M 10.484375 0 "/></g></g></g><g fill="#ffffff" fill-opacity="1"><g transform="translate(254.954937, 276.821348)"><g><path d="M 3.15625 0 L 1.375 0 L 1.375 -10.5 L 3.15625 -10.5 Z M 3.15625 0 "/></g></g></g><g fill="#ffffff" fill-opacity="1"><g transform="translate(262.481407, 276.821348)"><g><path d="M 12.484375 0 L 10.84375 0 L 10.828125 -7.84375 L 7.515625 -1.09375 L 6.359375 -1.09375 L 3.046875 -7.84375 L 3.046875 0 L 1.375 0 L 1.375 -10.5 L 3.484375 -10.5 L 6.9375 -3.53125 L 10.390625 -10.5 L 12.484375 -10.5 Z M 12.484375 0 "/></g></g></g><g fill="#ffffff" fill-opacity="1"><g transform="translate(279.345614, 276.821348)"><g><path d="M 8.15625 -2.375 L 2.859375 -2.375 L 1.859375 0 L 0.015625 0 L 4.65625 -10.5 L 6.46875 -10.5 L 11.0625 0 L 9.171875 0 Z M 7.484375 -3.9375 L 5.5 -8.609375 L 3.53125 -3.9375 Z M 7.484375 -3.9375 "/></g></g></g></svg>