<svg xmlns="http://www.w3.org/2000/svg" xmlns:xlink="http://www.w3.org/1999/xlink" width="1920" zoomAndPan="magnify" viewBox="0 0 1440 809.999993" height="1080" preserveAspectRatio="xMidYMid meet" version="1.0"><defs><g/><clipPath id="75eadd1128"><path d="M 0 351 L 1440 351 L 1440 810 L 0 810 Z M 0 351 " clip-rule="nonzero"/></clipPath><clipPath id="f5ca4a56e4"><path d="M 669.363281 2418.625 L -724.1875 875.8125 L 818.625 -517.734375 L 2212.171875 1025.074219 Z M 669.363281 2418.625 " clip-rule="nonzero"/></clipPath><clipPath id="05534b3bd0"><path d="M 669.363281 2418.625 L -724.1875 875.8125 L 818.625 -517.734375 L 2212.171875 1025.074219 Z M 669.363281 2418.625 " clip-rule="nonzero"/></clipPath><clipPath id="12f8f566ee"><path d="M 669.363281 2418.625 L -724.1875 875.8125 L 818.625 -517.734375 L 2212.171875 1025.074219 Z M 669.363281 2418.625 " clip-rule="nonzero"/></clipPath><clipPath id="07c8d80959"><path d="M 669.363281 2418.625 L -724.1875 875.8125 L 818.625 -517.734375 L 2212.171875 1025.074219 Z M 669.363281 2418.625 " clip-rule="nonzero"/></clipPath><clipPath id="530921b6d0"><path d="M 675.769531 420 L 764.269531 420 L 764.269531 501 L 675.769531 501 Z M 675.769531 420 " clip-rule="nonzero"/></clipPath><clipPath id="34978b2512"><path d="M 690 408.75 L 750 408.75 L 750 486 L 690 486 Z M 690 408.75 " clip-rule="nonzero"/></clipPath></defs><rect x="-144" width="1728" fill="#ffffff" y="-80.999999" height="971.999992" fill-opacity="1"/><rect x="-144" width="1728" fill="#1b1b1b" y="-80.999999" height="971.999992" fill-opacity="1"/><g clip-path="url(#75eadd1128)"><g clip-path="url(#f5ca4a56e4)"><g clip-path="url(#05534b3bd0)"><g clip-path="url(#12f8f566ee)"><g clip-path="url(#07c8d80959)"><path fill="#80cc28" d="M 4.117188 641.476562 C 89.6875 261.035156 317.328125 422.394531 705.390625 423.507812 C 1004.585938 424.363281 1124.179688 260.859375 1307.4375 425.015625 C 1575.511719 665.148438 1677.554688 1031.664062 1420.363281 1303.9375 C 1150.214844 1590.164062 663.234375 1784.195312 340.246094 1544.890625 C 16.523438 1305.039062 -66.972656 957.472656 4.117188 641.476562 Z M 4.117188 641.476562 " fill-opacity="1" fill-rule="nonzero"/></g></g></g></g></g><path fill="#bdf180" d="M 990.753906 459.011719 C 990.753906 521.628906 916.59375 572.378906 825.117188 572.378906 C 783.820312 572.378906 746.054688 562.039062 717.046875 544.929688 C 691.574219 529.90625 660.628906 525.007812 630.949219 530.460938 C 621.476562 532.203125 611.6875 533.113281 601.675781 533.113281 C 517.707031 533.113281 449.636719 468.964844 449.636719 389.832031 C 449.636719 310.699219 517.707031 246.550781 601.675781 246.550781 C 607.960938 246.550781 614.152344 246.910156 620.238281 247.609375 C 644.933594 250.441406 668.917969 238.445312 679.585938 217.78125 C 705.070312 168.429688 761.949219 134.070312 828.027344 134.070312 C 917.902344 134.070312 990.753906 197.617188 990.753906 276.007812 C 990.753906 297.945312 985.050781 318.71875 974.867188 337.261719 C 961.429688 361.726562 962.539062 390.625 977.417969 414.375 C 986 428.074219 990.753906 443.164062 990.753906 459.011719 Z M 990.753906 459.011719 " fill-opacity="1" fill-rule="nonzero"/><path stroke-linecap="round" transform="matrix(0.607637, -0.00169787, 0.00169787, 0.607637, 550.857411, 511.447434)" fill-opacity="1" fill="#80cc28" fill-rule="nonzero" stroke-linejoin="round" d="M 163.906896 -34.568494 C 163.906896 -34.568494 158.722101 132.277673 158.722101 132.277673 C 158.722101 132.277673 157.451366 172.928567 157.451366 172.928567 C 157.451366 172.928567 -122.457511 150.404926 -122.457511 150.404926 C -122.457511 150.404926 -135.141914 132.279412 -135.141914 132.279412 C -135.141914 132.279412 -158.231968 -52.298688 -158.231968 -52.298688 C -166.268202 -116.542823 -112.251858 -172.931397 -42.662303 -172.929806 C -42.662303 -172.929806 19.290084 -172.93027 19.290084 -172.93027 C 100.836824 -172.927411 166.272169 -110.329325 163.906896 -34.568494 Z M 163.906896 -34.568494 " stroke="#231f1f" stroke-width="2" stroke-opacity="1" stroke-miterlimit="4"/><path stroke-linecap="round" transform="matrix(0.607637, -0.00169787, 0.00169787, 0.607637, 648.062446, 523.656786)" fill-opacity="1" fill="#d4d4d4" fill-rule="nonzero" stroke-linejoin="round" d="M 47.152316 152.392184 C 47.152316 152.392184 -2.617868 152.388116 -2.617868 152.388116 C -2.617868 152.388116 -11.215042 111.741791 -11.215042 111.741791 C -11.215042 111.741791 -45.197626 -48.939508 -45.197626 -48.939508 C -47.154001 -91.907286 -31.022614 -140.950975 -4.974115 -152.391807 C 10.351802 -106.429517 25.951849 -2.126946 41.602309 111.741517 C 43.454759 125.18246 45.306833 138.758402 47.152316 152.392184 Z M 47.152316 152.392184 " stroke="#231f1f" stroke-width="2" stroke-opacity="1" stroke-miterlimit="4"/><path stroke-linecap="round" transform="matrix(0.607637, -0.00169787, 0.00169787, 0.607637, 570.470378, 506.710771)" fill-opacity="1" fill="#d4d4d4" fill-rule="nonzero" stroke-linejoin="round" d="M 123.554799 -124.182831 C 99.902609 -137.49183 76.804619 -148.979987 54.821583 -156.871443 C 54.821583 -156.871443 -47.110954 -161.219138 -47.110954 -161.219138 C -73.673306 -149.934029 -99.380303 -136.473664 -123.555317 -119.119718 C -123.555317 -119.119718 -60.928258 154.778493 -60.928258 154.778493 C 7.608301 161.218595 62.223474 159.699767 96.248633 146.397645 C 96.248633 146.397645 123.554799 -124.182831 123.554799 -124.182831 Z M 123.554799 -124.182831 " stroke="#231f1f" stroke-width="2" stroke-opacity="1" stroke-miterlimit="4"/><path stroke-linecap="butt" transform="matrix(0.607637, -0.00169787, 0.00169787, 0.607637, 569.60153, 402.601171)" fill-opacity="1" fill="#ffffff" fill-rule="nonzero" stroke-linejoin="miter" d="M -35.586879 -51.251137 C -35.586879 -51.251137 -30.49194 -4.186002 -30.49194 -4.186002 C -30.49194 -4.186002 18.628352 51.25004 18.628352 51.25004 C 18.628352 51.25004 35.587932 16.403006 35.587932 16.403006 C 35.587932 16.403006 33.825134 -29.122812 33.825134 -29.122812 C 33.825134 -29.122812 -35.586879 -51.251137 -35.586879 -51.251137 Z M -35.586879 -51.251137 " stroke="#231f1f" stroke-width="2" stroke-opacity="1" stroke-miterlimit="10"/><path stroke-linecap="round" transform="matrix(0.607637, -0.00169787, 0.00169787, 0.607637, 569.37173, 387.752285)" fill-opacity="1" fill="#231f1f" fill-rule="nonzero" stroke-linejoin="round" d="M 32.924057 0.776096 C 32.924057 0.776096 33.547557 16.907187 33.547557 16.907187 C -1.461824 18.937229 -19.499181 4.673201 -33.550399 -18.939725 C -10.744713 -4.070943 9.809714 2.042229 32.924057 0.776096 Z M 32.924057 0.776096 " stroke="#231f1f" stroke-width="2" stroke-opacity="1" stroke-miterlimit="4"/><path stroke-linecap="round" transform="matrix(0.607637, -0.00169787, 0.00169787, 0.607637, 557.192618, 416.407415)" fill-opacity="1" fill="#d4d4d4" fill-rule="nonzero" stroke-linejoin="round" d="M 39.113283 28.586057 C 39.113283 28.586057 14.33387 16.071055 14.33387 16.071055 C 14.33387 16.071055 1.517664 35.912464 1.517664 35.912464 C 1.517664 35.912464 -39.112103 -14.331261 -39.112103 -14.331261 C -39.112103 -14.331261 -20.821361 -35.533093 -20.821361 -35.533093 C -20.821361 -35.533093 -10.984553 -35.910609 -10.984553 -35.910609 C -10.984553 -35.910609 -10.007009 -26.849984 -10.007009 -26.849984 C -10.007009 -26.849984 39.113283 28.586057 39.113283 28.586057 Z M 39.113283 28.586057 " stroke="#231f1f" stroke-width="2" stroke-opacity="1" stroke-miterlimit="4"/><path stroke-linecap="round" transform="matrix(0.607637, -0.00169787, 0.00169787, 0.607637, 592.254816, 420.124247)" fill-opacity="1" fill="#d4d4d4" fill-rule="nonzero" stroke-linejoin="round" d="M -18.571761 22.308005 C -18.571761 22.308005 -2.127852 10.96248 -2.127852 10.96248 C -2.127852 10.96248 17.26799 29.09389 17.26799 29.09389 C 17.26799 29.09389 18.572594 -14.475493 18.572594 -14.475493 C 18.572594 -14.475493 -2.253782 -29.094458 -2.253782 -29.094458 C -2.253782 -29.094458 -1.612182 -12.539029 -1.612182 -12.539029 C -1.612182 -12.539029 -18.571761 22.308005 -18.571761 22.308005 Z M -18.571761 22.308005 " stroke="#231f1f" stroke-width="2" stroke-opacity="1" stroke-miterlimit="4"/><path stroke-linecap="round" transform="matrix(0.607637, -0.00169787, 0.00169787, 0.607637, 579.007057, 437.973622)" fill-opacity="1" fill="#80cc28" fill-rule="nonzero" stroke-linejoin="round" d="M 15.730533 -15.572696 C 17.655709 -2.851552 16.674053 7.965033 12.695762 16.806094 C 12.695762 16.806094 -7.652959 17.59781 -7.652959 17.59781 C -13.876969 8.798956 -16.510076 -3.641308 -17.653949 -17.594559 C -17.653949 -17.594559 3.312261 -7.005933 3.312261 -7.005933 C 3.312261 -7.005933 15.730533 -15.572696 15.730533 -15.572696 Z M 15.730533 -15.572696 " stroke="#231f1f" stroke-width="2" stroke-opacity="1" stroke-miterlimit="4"/><path stroke-linecap="round" transform="matrix(0.607637, -0.00169787, 0.00169787, 0.607637, 584.197177, 519.176418)" fill-opacity="1" fill="#80cc28" fill-rule="nonzero" stroke-linejoin="round" d="M 4.52775 -116.853855 C 4.52775 -116.853855 23.579431 -21.567389 23.579431 -21.567389 C 21.009283 21.683456 14.603444 68.755027 7.166164 116.852292 C -5.075616 73.759345 -16.47617 28.69517 -23.580364 -26.308468 C -23.580364 -26.308468 -15.820971 -116.062139 -15.820971 -116.062139 C -15.820971 -116.062139 4.52775 -116.853855 4.52775 -116.853855 Z M 4.52775 -116.853855 " stroke="#231f1f" stroke-width="2" stroke-opacity="1" stroke-miterlimit="4"/><path stroke-linecap="round" transform="matrix(0.607637, -0.00169787, 0.00169787, 0.607637, 487.729446, 521.191746)" fill-opacity="1" fill="#d4d4d4" fill-rule="nonzero" stroke-linejoin="round" d="M 51.197878 -22.595447 C 51.197878 -22.595447 15.632024 104.964246 15.632024 104.964246 C 4.464599 142.116045 -55.8878 123.973051 -44.720374 86.821252 C -28.448728 1.385669 -8.79169 -73.960415 13.281703 -142.119004 C 42.702804 -118.186702 55.893696 -78.864689 51.197878 -22.595447 Z M 51.197878 -22.595447 " stroke="#231f1f" stroke-width="2" stroke-opacity="1" stroke-miterlimit="4"/><path fill="#231f1f" d="M 548.449219 375.367188 C 548.449219 375.367188 560.328125 386.421875 560.328125 386.421875 C 560.328125 386.421875 581.765625 393.804688 581.765625 393.804688 C 581.765625 393.804688 591.25 400.992188 590.734375 394.996094 C 590.578125 393.175781 591.449219 379.347656 591.449219 379.347656 C 591.449219 379.347656 548.449219 375.367188 548.449219 375.367188 Z M 548.449219 375.367188 " fill-opacity="1" fill-rule="nonzero"/><path stroke-linecap="butt" transform="matrix(0.596796, 0.114276, -0.114276, 0.596796, 600.890064, 527.778089)" fill-opacity="1" fill="#ffffff" fill-rule="nonzero" stroke-linejoin="miter" d="M -44.209492 2.069257 C -35.837502 -10.268227 -24.781462 -21.201867 -12.471387 -31.465826 C -10.794444 -32.86037 -8.805304 -33.889246 -6.654292 -34.209491 C -3.161383 -34.734323 -0.702884 -33.346198 0.896515 -30.360136 C 3.230999 -25.996305 2.150083 -20.566129 -1.315845 -17.02905 C -1.315845 -17.02905 -13.609278 -4.490491 -13.609278 -4.490491 C -6.924105 -5.777127 -0.71139 -8.0271 5.164143 -10.978316 C 12.741199 -14.785518 18.456091 -21.515377 21.369521 -29.476053 C 21.39921 -29.560283 21.430108 -29.638198 21.459798 -29.722427 C 24.193883 -37.184042 34.483995 -37.897705 38.210061 -30.881104 C 38.647189 -30.068092 39.046165 -29.215047 39.425931 -28.325597 C 44.208664 -17.021209 41.881179 -3.94953 34.188821 5.613489 C 27.85167 13.503212 19.367009 20.364164 7.599423 25.667586 C 7.599423 25.667586 -28.408177 37.89687 -28.408177 37.89687 C -28.408177 37.89687 -44.209492 2.069257 -44.209492 2.069257 Z M -44.209492 2.069257 " stroke="#231f1f" stroke-width="2" stroke-opacity="1" stroke-miterlimit="10"/><path fill="#d4d4d4" d="M 486.429688 596.863281 C 465.984375 607.425781 448.410156 573.402344 468.855469 562.839844 C 468.855469 562.839844 576.105469 519.414062 576.105469 519.414062 C 576.105469 519.414062 584.902344 548.476562 584.902344 548.476562 C 584.902344 548.476562 486.429688 596.863281 486.429688 596.863281 Z M 486.429688 596.863281 " fill-opacity="1" fill-rule="nonzero"/><path stroke-linecap="butt" transform="matrix(0.596796, 0.114276, -0.114276, 0.596796, 538.194171, 559.465888)" fill="none" stroke-linejoin="miter" d="M 48.881775 -76.471355 C 48.881775 -76.471355 72.095498 -32.218858 72.095498 -32.218858 C 72.095498 -32.218858 -72.094913 76.468455 -72.094913 76.468455 " stroke="#231f1f" stroke-width="2" stroke-opacity="1" stroke-miterlimit="10"/><path stroke-linecap="round" transform="matrix(0.596796, 0.114276, -0.114276, 0.596796, 470.355415, 585.905559)" fill="none" stroke-linejoin="round" d="M -16.432428 -31.70639 C -29.375263 2.35986 0.52816 31.710496 29.373074 12.736487 " stroke="#231f1f" stroke-width="2" stroke-opacity="1" stroke-miterlimit="4"/><path stroke-linecap="round" transform="matrix(0.596796, 0.114276, -0.114276, 0.596796, 533.324403, 536.736737)" fill="none" stroke-linejoin="round" d="M -63.782273 41.237898 C -63.782273 41.237898 63.781423 -41.239105 63.781423 -41.239105 " stroke="#231f1f" stroke-width="2" stroke-opacity="1" stroke-miterlimit="4"/><path stroke-linecap="round" transform="matrix(0.607639, 0, 0, 0.607639, 928.486712, 542.157353)" fill-opacity="1" fill="#ffffff" fill-rule="nonzero" stroke-linejoin="round" d="M 5.91687 -66.318964 C 6.257584 -68.63325 8.141156 -70.420393 10.481156 -70.626107 C 13.759727 -70.921821 16.446871 -68.067535 15.951871 -64.814678 C 15.951871 -64.814678 -6.290989 70.92462 -6.290989 70.92462 C -6.290989 70.92462 -16.448132 70.92462 -16.448132 70.92462 C -16.448132 70.92462 5.91687 -66.318964 5.91687 -66.318964 Z M 5.91687 -66.318964 " stroke="#231f1f" stroke-width="2" stroke-opacity="1" stroke-miterlimit="4"/><path stroke-linecap="round" transform="matrix(0.607639, 0, 0, 0.607639, 908.028705, 475.087988)" fill-opacity="1" fill="#ffffff" fill-rule="nonzero" stroke-linejoin="round" d="M 47.511336 45.729487 C 47.511336 45.729487 -44.160101 -54.986951 -44.160101 -54.986951 C -44.160101 -54.986951 -44.828672 -53.881237 -44.828672 -53.881237 C -44.828672 -53.881237 -49.277244 -46.520522 -49.277244 -46.520522 C -49.277244 -46.520522 39.989907 52.537344 39.989907 52.537344 C 42.194907 54.98663 46.109908 54.71663 47.961336 51.990916 C 49.279194 50.049487 49.092765 47.458772 47.511336 45.729487 Z M 47.511336 45.729487 " stroke="#231f1f" stroke-width="2" stroke-opacity="1" stroke-miterlimit="4"/><path stroke-linecap="round" transform="matrix(0.607639, 0, 0, 0.607639, 919.400696, 588.495278)" fill-opacity="1" fill="#d4d4d4" fill-rule="nonzero" stroke-linejoin="round" d="M -41.731578 6.642057 C -41.731578 6.642057 41.730573 6.642057 41.730573 6.642057 C 41.730573 6.642057 31.078429 -6.639373 3.294141 -6.639373 C -22.593719 -6.639373 -38.009435 0.972056 -41.731578 6.642057 Z M -41.731578 6.642057 " stroke="#231f1f" stroke-width="2" stroke-opacity="1" stroke-miterlimit="4"/><path stroke-linecap="round" transform="matrix(0.607639, 0, 0, 0.607639, 881.131594, 428.818126)" fill-opacity="1" fill="#d4d4d4" fill-rule="nonzero" stroke-linejoin="round" d="M 0.632006 5.191455 C 0.632006 5.191455 4.874863 -1.172831 4.874863 -1.172831 C 4.874863 -1.172831 -0.370852 -5.190689 -0.370852 -5.190689 C -0.370852 -5.190689 -4.870852 1.212169 -4.870852 1.212169 C -4.870852 1.212169 0.632006 5.191455 0.632006 5.191455 Z M 0.632006 5.191455 " stroke="#231f1f" stroke-width="2" stroke-opacity="1" stroke-miterlimit="4"/><path stroke-linecap="round" transform="matrix(0.607639, 0, 0, 0.607639, 862.032275, 452.639997)" fill-opacity="1" fill="#ffffff" fill-rule="nonzero" stroke-linejoin="round" d="M 39.244746 -30.168255 C 39.244746 -30.168255 20.974744 -43.417542 20.974744 -43.417542 C 20.974744 -43.417542 3.431171 -22.318969 3.431171 -22.318969 C -26.982403 -17.413968 -39.248119 1.717462 -39.248119 1.717462 C -39.248119 1.717462 15.208315 43.41318 15.208315 43.41318 C 33.851174 22.809607 25.018316 -6.620396 25.018316 -6.620396 C 25.018316 -6.620396 39.244746 -30.168255 39.244746 -30.168255 Z M 39.244746 -30.168255 " stroke="#231f1f" stroke-width="2" stroke-opacity="1" stroke-miterlimit="4"/><path stroke-linecap="round" transform="matrix(0.607639, 0, 0, 0.607639, 870.676594, 443.846254)" fill="none" stroke-linejoin="round" d="M -10.794911 -7.846978 C -10.794911 -7.846978 10.792234 7.851595 10.792234 7.851595 " stroke="#231f1f" stroke-width="2" stroke-opacity="1" stroke-miterlimit="4"/><path stroke-linecap="round" transform="matrix(0.607639, 0, 0, 0.607639, 630.482375, 588.379862)" fill-opacity="1" fill="#ffffff" fill-rule="nonzero" stroke-linejoin="round" d="M 84.539014 8.451999 C 84.539014 8.451999 -84.538858 8.451999 -84.538858 8.451999 C -84.538858 8.451999 -84.538858 -8.455146 -84.538858 -8.455146 C -84.538858 -8.455146 84.539014 -8.455146 84.539014 -8.455146 C 84.539014 -8.455146 84.539014 8.451999 84.539014 8.451999 Z M 84.539014 8.451999 " stroke="#231f1f" stroke-width="2" stroke-opacity="1" stroke-miterlimit="4"/><path stroke-linecap="round" transform="matrix(0.607639, 0, 0, 0.607639, 716.797482, 479.953388)" fill-opacity="1" fill="#ffffff" fill-rule="nonzero" stroke-linejoin="round" d="M -187.843874 123.33815 C -187.843874 123.33815 187.848304 123.33815 187.848304 123.33815 C 187.848304 123.33815 187.848304 -123.339015 187.848304 -123.339015 C 187.848304 -123.339015 -187.843874 -123.339015 -187.843874 -123.339015 C -187.843874 -123.339015 -187.843874 123.33815 -187.843874 123.33815 Z M -187.843874 123.33815 " stroke="#231f1f" stroke-width="2" stroke-opacity="1" stroke-miterlimit="4"/><path stroke-linecap="round" transform="matrix(0.607639, 0, 0, 0.607639, 598.580136, 479.953988)" fill-opacity="1" fill="#ffffff" fill-rule="nonzero" stroke-linejoin="round" d="M 6.708119 -123.340003 C 6.708119 -123.340003 -6.70831 -123.340003 -6.70831 -123.340003 C -6.70831 -123.340003 -6.70831 123.337163 -6.70831 123.337163 C -6.70831 123.337163 6.708119 123.337163 6.708119 123.337163 C 6.708119 123.337163 6.708119 -123.340003 6.708119 -123.340003 Z M 6.708119 -123.340003 " stroke="#231f1f" stroke-width="2" stroke-opacity="1" stroke-miterlimit="4"/><path stroke-linecap="round" transform="matrix(0.607639, 0, 0, 0.607639, 734.716721, 551.893576)" fill-opacity="1" fill="#ffffff" fill-rule="nonzero" stroke-linejoin="round" d="M -66.564524 -64.239148 C -66.564524 -64.239148 23.416198 -64.239148 23.416198 -64.239148 C 23.416198 -64.239148 66.564773 64.242292 66.564773 64.242292 C 66.564773 64.242292 -43.408808 64.242292 -43.408808 64.242292 C -43.408808 64.242292 -66.564524 -64.239148 -66.564524 -64.239148 Z M -66.564524 -64.239148 " stroke="#231f1f" stroke-width="2" stroke-opacity="1" stroke-miterlimit="4"/><path stroke-linecap="round" transform="matrix(0.607639, 0, 0, 0.607639, 696.908227, 551.893576)" fill-opacity="1" fill="#ffffff" fill-rule="nonzero" stroke-linejoin="round" d="M -4.34254 -64.239148 C -4.34254 -64.239148 -18.813256 -64.239148 -18.813256 -64.239148 C -18.813256 -64.239148 1.713175 64.242292 1.713175 64.242292 C 1.713175 64.242292 18.813176 64.242292 18.813176 64.242292 C 18.813176 64.242292 -4.34254 -64.239148 -4.34254 -64.239148 Z M -4.34254 -64.239148 " stroke="#231f1f" stroke-width="2" stroke-opacity="1" stroke-miterlimit="4"/><path stroke-linecap="round" transform="matrix(0.607639, 0, 0, 0.607639, 709.122979, 604.15475)" fill-opacity="1" fill="#231f1f" fill-rule="nonzero" stroke-linejoin="round" d="M -467.218859 20.323185 C -467.218859 20.323185 467.219084 20.323185 467.219084 20.323185 C 467.219084 20.323185 467.219084 -20.318247 467.219084 -20.318247 C 467.219084 -20.318247 -467.218859 -20.318247 -467.218859 -20.318247 C -467.218859 -20.318247 -467.218859 20.323185 -467.218859 20.323185 Z M -467.218859 20.323185 " stroke="#231f1f" stroke-width="2" stroke-opacity="1" stroke-miterlimit="4"/><path stroke-linecap="round" transform="matrix(0.607639, 0, 0, 0.607639, 957.02691, 604.15295)" fill-opacity="1" fill="#231f1f" fill-rule="nonzero" stroke-linejoin="round" d="M 59.240005 20.326148 C 59.240005 20.326148 -59.238577 20.326148 -59.238577 20.326148 C -59.238577 20.326148 -59.238577 -20.321713 -59.238577 -20.321713 C -59.238577 -20.321713 59.240005 -20.321713 59.240005 -20.321713 C 59.240005 -20.321713 59.240005 20.326148 59.240005 20.326148 Z M 59.240005 20.326148 " stroke="#231f1f" stroke-width="2" stroke-opacity="1" stroke-miterlimit="4"/><path stroke-linecap="round" transform="matrix(0.607638, -0.00100098, 0.00100098, 0.607638, 473.93547, 491.690323)" fill-opacity="1" fill="#ffffff" fill-rule="nonzero" stroke-linejoin="round" d="M -38.239239 50.094578 C -26.017113 18.029664 2.632937 -4.088886 48.248878 -15.025901 C 56.500008 -17.005168 62.505482 -25.526002 60.969934 -33.866401 C 60.058793 -38.811481 56.902961 -43.078829 50.724189 -46.431869 C 44.680302 -49.713973 34.132914 -50.875636 27.457322 -49.22163 C -37.92231 -33.026451 -60.359941 3.238783 -62.501993 50.877467 C -62.501993 50.877467 -38.239239 50.094578 -38.239239 50.094578 Z M -38.239239 50.094578 " stroke="#231f1f" stroke-width="2" stroke-opacity="1" stroke-miterlimit="4"/><path stroke-linecap="round" transform="matrix(0.607639, 0, 0, 0.607639, 513.860068, 583.327311)" fill-opacity="1" fill="#ffffff" fill-rule="nonzero" stroke-linejoin="round" d="M -5.831856 -2.235803 C -2.21257 -0.107946 1.689573 1.698483 5.836002 3.222055 C 5.353859 1.107055 5.128859 -1.03366 5.128859 -3.219374 C 5.128859 -3.219374 -5.831856 -2.235803 -5.831856 -2.235803 Z M -5.831856 -2.235803 " stroke="#231f1f" stroke-width="2" stroke-opacity="1" stroke-miterlimit="4"/><path stroke-linecap="round" transform="matrix(0.607639, 0, 0, 0.607639, 454.841935, 585.271215)" fill-opacity="1" fill="#d4d4d4" fill-rule="nonzero" stroke-linejoin="round" d="M -21.770587 -17.372772 C -13.677015 -4.586342 -2.555585 7.280802 10.847987 16.852946 C 17.051559 17.37366 21.770131 16.737231 20.278703 11.253659 C 15.482988 5.602945 11.78013 -0.356342 9.594416 -6.746342 C -2.259871 -9.5942 -12.789872 -13.1042 -21.770587 -17.372772 Z M -21.770587 -17.372772 " stroke="#231f1f" stroke-width="2" stroke-opacity="1" stroke-miterlimit="4"/><path stroke-linecap="round" transform="matrix(0.607639, 0, 0, 0.607639, 441.489056, 574.522071)" fill-opacity="1" fill="#ffffff" fill-rule="nonzero" stroke-linejoin="round" d="M -0.206989 -0.31918 C -0.206989 -0.31918 -0.00770361 0.22082 -0.00770361 0.22082 C 0.0630107 0.259392 0.133725 0.291534 0.204439 0.317249 C 0.0630107 0.105106 -0.0784179 -0.107037 -0.206989 -0.31918 Z M -0.206989 -0.31918 " stroke="#231f1f" stroke-width="2" stroke-opacity="1" stroke-miterlimit="4"/><path stroke-linecap="round" transform="matrix(0.607639, 0, 0, 0.607639, 479.64027, 558.143728)" fill-opacity="1" fill="#ffffff" fill-rule="nonzero" stroke-linejoin="round" d="M 105.634879 4.790608 C 105.557737 8.92418 105.114165 13.057752 104.092022 17.069181 C 98.962022 37.184183 90.791307 47.527755 80.51202 50.967041 C 78.39702 51.667755 76.114877 51.78347 73.948448 51.28847 C 70.264876 50.439898 66.709876 49.437041 63.31559 48.241326 C 63.31559 48.241326 63.212733 48.241326 63.212733 48.241326 C 63.817018 49.880612 64.588447 51.487755 65.527019 53.082041 C 67.822019 56.932756 71.197019 60.661328 75.851305 64.229185 C 78.191305 66.016328 79.187734 69.2499 77.799163 71.847043 C 76.024877 75.196329 71.364162 75.434186 61.444875 69.892757 C 56.674875 67.546328 52.444875 64.563471 48.838446 60.879899 C 45.148445 57.119184 42.107731 52.599898 39.793445 47.257755 C 37.453445 47.116326 35.145587 46.981326 32.863444 46.807755 C 33.069159 48.376326 33.429159 49.970612 33.930587 51.564898 C 35.377016 56.212756 38.128445 60.924899 42.442017 65.739899 C 44.415588 67.919185 44.801302 71.281329 42.956302 73.589186 C 40.584159 76.546329 35.974873 75.916329 27.257729 68.645614 C 25.245586 67.141328 23.3813 65.514899 21.658443 63.772756 C 21.658443 63.772756 21.658443 63.759899 21.658443 63.759899 C 16.599157 58.584899 12.883442 52.36847 10.774871 44.879183 C -4.563702 43.214183 -18.642275 40.93204 -31.216562 37.897754 C -43.077277 35.049897 -53.600849 31.539896 -62.587993 27.271325 C -62.607279 27.252039 -62.607279 27.239182 -62.620136 27.226325 C -62.620136 27.226325 -62.594422 27.271325 -62.594422 27.271325 C -62.594422 27.271325 -62.793707 27.168467 -62.793707 27.168467 C -62.793707 27.168467 -62.793707 27.181325 -62.793707 27.181325 C -62.896565 28.158467 -62.96085 29.109896 -62.999422 30.074182 C -63.397993 40.244183 -59.90085 49.848469 -53.960849 59.099185 C -53.446564 62.853471 -55.394421 64.100614 -58.55085 64.139185 C -61.74585 64.158471 -64.786565 62.763471 -67.049422 60.51347 C -76.15228 51.442755 -83.641566 41.234183 -89.260138 30.575611 C -104.032997 2.662751 -105.948711 -28.239395 -90.46871 -49.305825 C -85.878709 -57.534397 -79.218709 -64.220112 -71.305137 -68.784399 C -62.080136 -74.113685 -51.157992 -76.550114 -39.895134 -75.122971 C -39.187991 -75.045828 -38.467991 -74.942971 -37.754419 -74.814399 C -9.025131 -69.960827 19.639872 -47.942968 48.253446 -18.159394 C 48.253446 -18.159394 48.36916 -17.895822 48.36916 -17.895822 C 48.36916 -17.895822 48.382017 -17.870108 48.382017 -17.870108 C 48.81916 -18.467965 49.26916 -19.059394 49.725589 -19.644394 C 53.531303 -25.577966 60.217018 -31.440824 68.387733 -37.35511 C 68.387733 -37.35511 69.506305 -10.689393 69.506305 -10.689393 C 77.779877 -9.358679 84.028449 -6.568679 88.811306 -2.705107 C 93.510593 -9.654393 99.296307 -13.100108 105.834165 -14.167251 C 105.949879 -5.835821 105.750594 -1.663678 105.634879 4.790608 Z M 105.634879 4.790608 " stroke="#231f1f" stroke-width="2" stroke-opacity="1" stroke-miterlimit="4"/><path stroke-linecap="round" transform="matrix(0.607639, 0, 0, 0.607639, 412.222161, 508.591986)" fill="none" stroke-linejoin="round" d="M 210.980119 111.107913 C 210.980119 111.107913 217.389406 111.107913 217.389406 111.107913 " stroke="#231f1f" stroke-width="2" stroke-opacity="1" stroke-miterlimit="4"/><path stroke-linecap="round" transform="matrix(0.607639, 0, 0, 0.607639, 541.054323, 580.794063)" fill="none" stroke-linejoin="round" d="M -3.220115 -0.946801 C -3.220115 -0.946801 3.221314 0.949628 3.221314 0.949628 " stroke="#231f1f" stroke-width="2" stroke-opacity="1" stroke-miterlimit="4"/><path stroke-linecap="round" transform="matrix(0.607639, 0, 0, 0.607639, 538.652331, 584.466663)" fill="none" stroke-linejoin="round" d="M -2.912122 -3.017994 C -2.912122 -3.017994 2.912164 3.018436 2.912164 3.018436 " stroke="#231f1f" stroke-width="2" stroke-opacity="1" stroke-miterlimit="4"/><path stroke-linecap="round" transform="matrix(0.607639, 0, 0, 0.607639, 503.635949, 568.313199)" fill="none" stroke-linejoin="round" d="M 4.424125 -23.568296 C -9.885877 -2.598294 -5.328019 12.219564 9.888411 23.565994 " stroke="#231f1f" stroke-width="2" stroke-opacity="1" stroke-miterlimit="4"/><path stroke-linecap="round" transform="matrix(0.607639, 0, 0, 0.607639, 499.455389, 560.151376)" fill="none" stroke-linejoin="round" d="M -4.310869 -3.444122 C -4.310869 -3.444122 4.309846 3.440879 4.309846 3.440879 " stroke="#231f1f" stroke-width="2" stroke-opacity="1" stroke-miterlimit="4"/><path stroke-linecap="round" transform="matrix(0.607639, 0, 0, 0.607639, 497.972141, 566.311048)" fill="none" stroke-linejoin="round" d="M -5.090581 -0.589038 C -5.090581 -0.589038 5.092277 0.58739 5.092277 0.58739 " stroke="#231f1f" stroke-width="2" stroke-opacity="1" stroke-miterlimit="4"/><path stroke-linecap="round" transform="matrix(0.607639, 0, 0, 0.607639, 498.537293, 571.966935)" fill="none" stroke-linejoin="round" d="M -4.554946 1.963701 C -4.554946 1.963701 4.554341 -1.964156 4.554341 -1.964156 " stroke="#231f1f" stroke-width="2" stroke-opacity="1" stroke-miterlimit="4"/><path stroke-linecap="round" transform="matrix(0.607639, 0, 0, 0.607639, 516.762748, 563.118496)" fill="none" stroke-linejoin="round" d="M -3.858837 -1.165724 C 0.827592 -2.676439 3.180449 -1.107867 3.861878 2.678562 " stroke="#231f1f" stroke-width="2" stroke-opacity="1" stroke-miterlimit="4"/><path stroke-linecap="round" transform="matrix(0.607639, 0, 0, 0.607639, 533.610795, 571.357503)" fill="none" stroke-linejoin="round" d="M -2.998052 0.195938 C -0.253052 -1.758348 1.746234 -1.237634 2.999806 1.758081 " stroke="#231f1f" stroke-width="2" stroke-opacity="1" stroke-miterlimit="4"/><path stroke-linecap="round" transform="matrix(0.607639, 0, 0, 0.607639, 523.557412, 570.772311)" fill-opacity="1" fill="#231f1f" fill-rule="nonzero" stroke-linejoin="round" d="M -4.491627 -2.582433 C -4.491627 -2.582433 4.489088 0.824711 4.489088 0.824711 C 4.489088 0.824711 -1.952341 2.586139 -1.952341 2.586139 C -1.952341 2.586139 -4.491627 -2.582433 -4.491627 -2.582433 Z M -4.491627 -2.582433 " stroke="#231f1f" stroke-width="2" stroke-opacity="1" stroke-miterlimit="4"/><path stroke-linecap="round" transform="matrix(0.607639, 0, 0, 0.607639, 520.91782, 575.504631)" fill-opacity="1" fill="#231f1f" fill-rule="nonzero" stroke-linejoin="round" d="M 2.095959 -4.488336 C 2.095959 -4.488336 -2.09547 4.492379 -2.09547 4.492379 " stroke="#231f1f" stroke-width="2" stroke-opacity="1" stroke-miterlimit="4"/><path stroke-linecap="round" transform="matrix(0.607639, 0, 0, 0.607639, 499.832741, 597.056942)" fill-opacity="1" fill="#d4d4d4" fill-rule="nonzero" stroke-linejoin="round" d="M 9.725261 9.549148 C 7.353118 12.506291 2.743832 11.876291 -5.973312 4.605576 C -7.985455 3.10129 -9.84974 1.474861 -11.572598 -0.267282 C -11.572598 -0.267282 -11.572598 -0.280139 -11.572598 -0.280139 C -11.572598 -0.280139 -10.736883 -6.380854 -10.736883 -6.380854 C -10.736883 -6.380854 -5.369026 -3.642282 -5.369026 -3.642282 C -5.369026 -3.642282 0.673832 -12.507283 0.673832 -12.507283 C 0.673832 -12.507283 0.699546 -12.47514 0.699546 -12.47514 C 2.145975 -7.827282 4.897404 -3.115139 9.210976 1.70629 C 11.184547 3.885576 11.570261 7.24129 9.725261 9.549148 Z M 9.725261 9.549148 " stroke="#231f1f" stroke-width="2" stroke-opacity="1" stroke-miterlimit="4"/><path stroke-linecap="round" transform="matrix(0.607639, 0, 0, 0.607639, 518.274004, 597.185726)" fill-opacity="1" fill="#d4d4d4" fill-rule="nonzero" stroke-linejoin="round" d="M 14.219069 7.595063 C 12.444783 10.937921 7.790497 11.182206 -2.135218 5.640777 C -6.905219 3.28792 -11.135219 0.311491 -14.741648 -3.372081 C -14.741648 -3.372081 -15.609505 -11.182796 -15.609505 -11.182796 C -15.609505 -11.182796 -6.345933 -6.399938 -6.345933 -6.399938 C -6.345933 -6.399938 -4.578076 -11.182796 -4.578076 -11.182796 C -4.578076 -11.182796 1.940496 -11.182796 1.940496 -11.182796 C 1.940496 -11.182796 1.946925 -11.169939 1.946925 -11.169939 C 4.241925 -7.319224 7.616925 -3.590652 12.271211 -0.0227947 C 14.611212 1.764348 15.60764 4.99792 14.219069 7.595063 Z M 14.219069 7.595063 " stroke="#231f1f" stroke-width="2" stroke-opacity="1" stroke-miterlimit="4"/><path stroke-linecap="round" transform="matrix(0.607639, 0, 0, 0.607639, 436.283432, 583.950759)" fill-opacity="1" fill="#d4d4d4" fill-rule="nonzero" stroke-linejoin="round" d="M 12.808553 21.668182 C 9.607124 21.687468 6.566409 20.292468 4.30998 18.042467 C -4.799306 8.971752 -12.288593 -1.23682 -17.907164 -11.895392 C -17.907164 -11.895392 -13.825021 -21.686108 -13.825021 -21.686108 C -13.825021 -21.686108 -7.229306 -12.396821 -7.229306 -12.396821 C -7.229306 -12.396821 -1.99002 -15.836107 -1.99002 -15.836107 C -1.99002 -15.836107 2.28498 -9.407535 2.28498 -9.407535 C 2.28498 -9.407535 8.353552 -12.396821 8.353552 -12.396821 C 7.954981 -2.22682 11.452124 7.377466 17.392124 16.628182 C 17.912839 20.382468 15.958553 21.629611 12.808553 21.668182 Z M 12.808553 21.668182 " stroke="#231f1f" stroke-width="2" stroke-opacity="1" stroke-miterlimit="4"/><path stroke-linecap="round" transform="matrix(0.607639, 0, 0, 0.607639, 515.905996, 544.899017)" fill-opacity="1" fill="#d4d4d4" fill-rule="nonzero" stroke-linejoin="round" d="M 4.879704 -6.249525 C -0.198868 -2.08381 -3.451726 2.081904 -4.878869 6.247619 " stroke="#231f1f" stroke-width="2" stroke-opacity="1" stroke-miterlimit="4"/><path stroke-linecap="round" transform="matrix(0.607639, 0, 0, 0.607639, 539.320179, 555.3784)" fill-opacity="1" fill="#ffffff" fill-rule="nonzero" stroke-linejoin="round" d="M -3.586924 4.410833 C -2.963352 1.151547 -1.009066 -1.869881 3.587363 -4.409167 " stroke="#231f1f" stroke-width="2" stroke-opacity="1" stroke-miterlimit="4"/><path stroke-linecap="round" transform="matrix(0.607637, -0.00169787, 0.00169787, 0.607637, 614.341799, 315.249878)" fill-opacity="1" fill="#231f1f" fill-rule="nonzero" stroke-linejoin="round" d="M 5.847772 -27.954283 C 12.386664 -9.910227 9.35803 8.769241 -1.322048 27.954474 C -1.322048 27.954474 -12.380788 -24.405203 -12.380788 -24.405203 C -12.380788 -24.405203 5.847772 -27.954283 5.847772 -27.954283 Z M 5.847772 -27.954283 " stroke="#231f1f" stroke-width="2" stroke-opacity="1" stroke-miterlimit="4"/><path stroke-linecap="butt" transform="matrix(0.607637, -0.00169787, 0.00169787, 0.607637, 578.736433, 335.674983)" fill-opacity="1" fill="#ffffff" fill-rule="nonzero" stroke-linejoin="miter" d="M -56.503805 -9.388035 C -56.503805 -9.388035 -54.658216 24.913685 -54.658216 24.913685 C -54.658216 24.913685 -50.138034 66.011476 -50.138034 66.011476 C -22.153474 84.102599 7.046987 92.669939 38.436366 83.989042 C 45.153014 82.13066 50.407027 76.867463 52.283666 70.148395 C 60.562817 40.554984 60.058986 0.00198817 51.021987 -51.188464 C 25.069948 -92.673999 -28.634744 -88.002615 -60.557701 -51.712386 C -60.557701 -51.712386 -56.503805 -9.388035 -56.503805 -9.388035 Z M -56.503805 -9.388035 " stroke="#231f1f" stroke-width="2" stroke-opacity="1" stroke-miterlimit="10"/><path stroke-linecap="butt" transform="matrix(0.607637, -0.00169787, 0.00169787, 0.607637, 537.317787, 337.635502)" fill-opacity="1" fill="#ffffff" fill-rule="nonzero" stroke-linejoin="miter" d="M 11.668203 -12.424015 C 4.575425 -23.198876 -13.659029 -15.239795 -7.307247 3.048025 C -0.709094 18.289378 6.4163 21.992874 13.657949 23.202399 C 13.657949 23.202399 11.668203 -12.424015 11.668203 -12.424015 Z M 11.668203 -12.424015 " stroke="#231f1f" stroke-width="2" stroke-opacity="1" stroke-miterlimit="10"/><path stroke-linecap="round" transform="matrix(0.607637, -0.00169787, 0.00169787, 0.607637, 542.961603, 315.048902)" fill-opacity="1" fill="#231f1f" fill-rule="nonzero" stroke-linejoin="round" d="M 15.738379 -33.021631 C 29.998367 -12.802421 20.728634 28.501125 3.47462 39.882958 C 3.47462 39.882958 2.276267 24.720979 2.276267 24.720979 C -2.378374 20.240098 -7.308241 17.62917 -13.312795 22.318125 C -27.450636 -2.50362 -29.995405 -23.551527 -18.069718 -39.885411 C -18.069718 -39.885411 15.738379 -33.021631 15.738379 -33.021631 Z M 15.738379 -33.021631 " stroke="#231f1f" stroke-width="2" stroke-opacity="1" stroke-miterlimit="4"/><path stroke-linecap="round" transform="matrix(0.607637, -0.00169787, 0.00169787, 0.607637, 579.807697, 284.79235)" fill-opacity="1" fill="#231f1f" fill-rule="nonzero" stroke-linejoin="round" d="M 57.438234 -35.825771 C 78.846147 -6.162265 69.284883 17.538969 50.19515 39.400714 C 32.667842 22.052385 2.797171 20.972487 -38.300665 34.711276 C -38.300665 34.711276 -78.84676 9.738598 -78.84676 9.738598 C -76.721481 -26.146318 -37.688574 -39.402304 -6.607662 -22.813249 C 26.754292 -10.428552 48.570411 -14.121893 57.438234 -35.825771 Z M 57.438234 -35.825771 " stroke="#231f1f" stroke-width="2" stroke-opacity="1" stroke-miterlimit="4"/><path stroke-linecap="round" transform="matrix(0.607637, -0.00169787, 0.00169787, 0.607637, 598.845912, 341.637454)" fill="none" stroke-linejoin="round" d="M -4.520842 -26.030373 C -2.851466 -6.887776 1.924983 9.216348 9.782773 22.288355 C 2.799879 25.103855 -3.689165 26.030727 -9.781882 25.460843 " stroke="#231f1f" stroke-width="2" stroke-opacity="1" stroke-miterlimit="4"/><path stroke-linecap="round" transform="matrix(0.607637, -0.00169787, 0.00169787, 0.607637, 573.833425, 325.490101)" fill="none" stroke-linejoin="round" d="M 9.329956 -3.859798 C 0.891843 -4.802665 -5.33268 -1.914332 -9.330758 4.805237 " stroke="#231f1f" stroke-width="2" stroke-opacity="1" stroke-miterlimit="4"/><path stroke-linecap="round" transform="matrix(0.607637, -0.00169787, 0.00169787, 0.607637, 605.325672, 323.967397)" fill="none" stroke-linejoin="round" d="M 7.56382 2.389085 C 3.625458 -0.759075 -1.069301 -2.385771 -7.567827 -0.366064 " stroke="#231f1f" stroke-width="2" stroke-opacity="1" stroke-miterlimit="4"/><path stroke-linecap="round" transform="matrix(0.607637, -0.00169787, 0.00169787, 0.607637, 577.868473, 336.901203)" fill-opacity="1" fill="#231f1f" fill-rule="nonzero" stroke-linejoin="round" d="M -3.853269 0.151825 C -3.685054 4.369455 -1.830134 7.723937 0.297949 7.646311 C 2.41962 7.562239 4.017225 4.075975 3.849027 -0.148083 C 3.687258 -4.372123 1.832338 -7.726605 -0.295762 -7.642551 C -2.423844 -7.564925 -4.015039 -4.072215 -3.853269 0.151825 Z M -3.853269 0.151825 " stroke="#231f1f" stroke-width="2" stroke-opacity="1" stroke-miterlimit="4"/><path stroke-linecap="round" transform="matrix(0.607637, -0.00169787, 0.00169787, 0.607637, 605.675376, 332.988051)" fill-opacity="1" fill="#231f1f" fill-rule="nonzero" stroke-linejoin="round" d="M -3.046824 0.120437 C -2.91497 3.547247 -1.444021 6.277083 0.240456 6.211075 C 1.924933 6.145067 3.179992 3.313563 3.048157 -0.119676 C 2.916303 -3.546487 1.445353 -6.276322 -0.239124 -6.210314 C -1.923582 -6.150735 -3.17866 -3.312802 -3.046824 0.120437 Z M -3.046824 0.120437 " stroke="#231f1f" stroke-width="2" stroke-opacity="1" stroke-miterlimit="4"/><path stroke-linecap="round" transform="matrix(0.607637, -0.00169787, 0.00169787, 0.607637, 581.858761, 368.185989)" fill="none" stroke-linejoin="round" d="M 14.235452 6.355146 C 3.453542 4.467155 -6.333288 0.762651 -14.233426 -6.356595 " stroke="#231f1f" stroke-width="2" stroke-opacity="1" stroke-miterlimit="4"/><path stroke-linecap="round" transform="matrix(0.607639, 0, 0, 0.607639, 841.329468, 255.34404)" fill-opacity="1" fill="#231f1f" fill-rule="nonzero" stroke-linejoin="round" d="M 203.192094 188.195969 C 203.192094 188.195969 -203.196514 188.195969 -203.196514 188.195969 C -203.196514 188.195969 -203.196514 -188.196923 -203.196514 -188.196923 C -203.196514 -188.196923 203.192094 -188.196923 203.192094 -188.196923 C 203.192094 -188.196923 203.192094 188.195969 203.192094 188.195969 Z M 203.192094 188.195969 " stroke="#231f1f" stroke-width="2" stroke-opacity="1" stroke-miterlimit="4"/><path stroke-linecap="round" transform="matrix(0.607639, 0, 0, 0.607639, 833.084964, 245.832048)" fill-opacity="1" fill="#ffffff" fill-rule="nonzero" stroke-linejoin="round" d="M 203.195906 188.196417 C 203.195906 188.196417 -203.192703 188.196417 -203.192703 188.196417 C -203.192703 188.196417 -203.192703 -188.196474 -203.192703 -188.196474 C -203.192703 -188.196474 203.195906 -188.196474 203.195906 -188.196474 C 203.195906 -188.196474 203.195906 188.196417 203.195906 188.196417 Z M 203.195906 188.196417 " stroke="#231f1f" stroke-width="2" stroke-opacity="1" stroke-miterlimit="4"/><path stroke-linecap="round" transform="matrix(0.607639, 0, 0, 0.607639, 833.546796, 256.690555)" fill-opacity="1" fill="#80cc28" fill-rule="nonzero" stroke-linejoin="round" d="M 190.459433 153.084986 C 190.459433 153.084986 -190.459174 153.084986 -190.459174 153.084986 C -190.459174 153.084986 -190.459174 -153.082185 -190.459174 -153.082185 C -190.459174 -153.082185 190.459433 -153.082185 190.459433 -153.082185 C 190.459433 -153.082185 190.459433 153.084986 190.459433 153.084986 Z M 190.459433 153.084986 " stroke="#231f1f" stroke-width="2" stroke-opacity="1" stroke-miterlimit="4"/><path stroke-linecap="round" transform="matrix(0.607639, 0, 0, 0.607639, 835.767732, 260.621373)" fill-opacity="1" fill="#231f1f" fill-rule="nonzero" stroke-linejoin="round" d="M 38.702964 146.609553 C 38.702964 146.609553 -29.472042 146.609553 -29.472042 146.609553 C -43.775615 74.513118 -57.822045 2.570969 -64.462759 -65.012609 C -69.303474 -91.202611 -55.212044 -131.477615 -9.665612 -143.537616 C 7.337961 -146.610473 19.937963 -141.557616 29.606535 -131.059758 C 45.125108 -125.119757 53.475823 -112.571185 58.027252 -96.51904 C 69.302967 -7.521889 54.452966 69.743118 38.702964 146.609553 Z M 38.702964 146.609553 " stroke="#231f1f" stroke-width="2" stroke-opacity="1" stroke-miterlimit="4"/><path stroke-linecap="round" transform="matrix(0.607639, 0, 0, 0.607639, 803.152694, 314.546284)" fill-opacity="1" fill="#d4d4d4" fill-rule="nonzero" stroke-linejoin="round" d="M 25.00014 14.253116 C 25.00014 14.253116 15.498711 47.784548 15.498711 47.784548 C 15.498711 47.784548 12.637996 57.864549 12.637996 57.864549 C 12.637996 57.864549 -28.312007 57.864549 -28.312007 57.864549 C -17.190578 7.046687 -6.660577 -35.626174 2.390853 -57.714747 C 2.397281 -57.753319 2.422996 -57.785462 2.429424 -57.824033 C 2.442281 -57.83689 2.442281 -57.856176 2.44871 -57.862604 C 2.461567 -57.856176 2.467996 -57.856176 2.480853 -57.856176 C 19.619426 -48.856175 28.310855 -14.823315 25.00014 14.253116 Z M 25.00014 14.253116 " stroke="#231f1f" stroke-width="2" stroke-opacity="1" stroke-miterlimit="4"/><path stroke-linecap="round" transform="matrix(0.607639, 0, 0, 0.607639, 842.345364, 308.074956)" fill-opacity="1" fill="#d4d4d4" fill-rule="nonzero" stroke-linejoin="round" d="M 70.268065 -47.135503 C 70.139493 -46.74336 70.010922 -46.344788 69.88235 -45.952646 C 58.548778 -11.591928 50.333063 22.608075 45.460205 56.653792 C 44.888062 60.613793 44.36092 64.567365 43.891634 68.514508 C 43.891634 68.514508 -48.499803 68.514508 -48.499803 68.514508 C -48.55766 64.94665 -48.718375 61.578079 -49.001232 58.434507 C -49.599089 51.66522 -50.749803 45.982363 -52.639804 41.745934 C -68.190519 30.483076 -70.266948 9.024502 -58.68909 -22.777643 C -58.168376 -29.283358 -59.762661 -37.814073 -62.10909 -47.064789 C -62.121947 -47.084074 -62.121947 -47.116217 -62.128376 -47.135503 C -62.10909 -47.141931 -62.089804 -47.154789 -62.070519 -47.174074 C -62.051233 -47.186931 -62.038376 -47.19336 -62.01909 -47.206217 C -49.341946 -54.881932 -36.150516 -59.93479 -22.116944 -60.815504 C -22.116944 -60.815504 -10.442657 -49.366217 -10.442657 -49.366217 C -10.442657 -49.366217 19.842346 -68.516933 19.842346 -68.516933 C 19.842346 -68.516933 70.268065 -47.135503 70.268065 -47.135503 Z M 70.268065 -47.135503 " stroke="#231f1f" stroke-width="2" stroke-opacity="1" stroke-miterlimit="4"/><path stroke-linecap="round" transform="matrix(0.607639, 0, 0, 0.607639, 841.652652, 264.467116)" fill-opacity="1" fill="#ffffff" fill-rule="nonzero" stroke-linejoin="round" d="M -20.976938 -24.451599 C -20.976938 -24.451599 -20.976938 10.944118 -20.976938 10.944118 C -20.976938 10.944118 -14.426223 44.784121 -14.426223 44.784121 C -14.426223 44.784121 20.975923 3.249117 20.975923 3.249117 C 20.975923 3.249117 20.693066 -44.785173 20.693066 -44.785173 C 20.693066 -44.785173 -20.976938 -24.451599 -20.976938 -24.451599 Z M -20.976938 -24.451599 " stroke="#231f1f" stroke-width="2" stroke-opacity="1" stroke-miterlimit="4"/><path stroke-linecap="round" transform="matrix(0.607639, 0, 0, 0.607639, 841.329468, 249.022157)" fill-opacity="1" fill="#231f1f" fill-rule="nonzero" stroke-linejoin="round" d="M -20.445069 3.878536 C -20.445069 3.878536 -20.445069 15.842109 -20.445069 15.842109 C -3.15221 16.131394 12.64922 3.422108 20.447078 -16.12718 C 8.624934 -5.449322 -7.176496 3.267822 -20.445069 3.878536 Z M -20.445069 3.878536 " stroke="#231f1f" stroke-width="2" stroke-opacity="1" stroke-miterlimit="4"/><path stroke-linecap="round" transform="matrix(0.607639, 0, 0, 0.607639, 826.705405, 220.474667)" fill-opacity="1" fill="#ffffff" fill-rule="nonzero" stroke-linejoin="round" d="M -34.550898 -26.611169 C -46.893756 52.563124 5.447677 70.222411 45.163395 30.20455 C 45.163395 30.20455 46.892681 -6.264739 46.892681 -6.264739 C 46.892681 -6.264739 46.892681 -30.545455 46.892681 -30.545455 C 30.936965 -70.222602 -25.666611 -60.644029 -34.550898 -26.611169 Z M -34.550898 -26.611169 " stroke="#231f1f" stroke-width="2" stroke-opacity="1" stroke-miterlimit="4"/><path stroke-linecap="round" transform="matrix(0.607639, 0, 0, 0.607639, 859.813211, 222.382655)" fill-opacity="1" fill="#ffffff" fill-rule="nonzero" stroke-linejoin="round" d="M -7.593314 -9.404742 C 1.869544 -15.261171 7.398116 -14.264742 8.413831 -5.425456 C 8.735259 -2.635456 8.445974 0.193116 7.745259 2.899545 C 4.710973 14.734546 -1.84617 15.261689 -8.737599 14.734546 C -8.737599 14.734546 -7.593314 -9.404742 -7.593314 -9.404742 Z M -7.593314 -9.404742 " stroke="#231f1f" stroke-width="2" stroke-opacity="1" stroke-miterlimit="4"/><path stroke-linecap="round" transform="matrix(0.607639, 0, 0, 0.607639, 820.631461, 221.171025)" fill="none" stroke-linejoin="round" d="M 1.23651 -16.089317 C 0.368653 -2.139315 -1.784919 7.323543 -4.934919 13.282829 C -3.012776 15.789972 0.74151 16.092115 4.932939 15.847829 " stroke="#231f1f" stroke-width="2" stroke-opacity="1" stroke-miterlimit="4"/><path stroke-linecap="round" transform="matrix(0.607639, 0, 0, 0.607639, 830.604564, 195.750449)" fill-opacity="1" fill="#231f1f" fill-rule="nonzero" stroke-linejoin="round" d="M 11.508632 -10.03574 C 11.418632 12.907833 22.270062 27.847834 40.475778 37.419978 C 40.475778 37.419978 45.657207 -10.03574 45.657207 -10.03574 C -2.312798 -37.421457 -24.491371 -20.244313 -45.660659 -1.318597 C -45.660659 -1.318597 -40.967801 14.077833 -40.967801 14.077833 C -21.772085 12.033547 -3.823512 5.58569 11.508632 -10.03574 Z M 11.508632 -10.03574 " stroke="#231f1f" stroke-width="2" stroke-opacity="1" stroke-miterlimit="4"/><path stroke-linecap="round" transform="matrix(0.607639, 0, 0, 0.607639, 881.07325, 314.853139)" fill-opacity="1" fill="#d4d4d4" fill-rule="nonzero" stroke-linejoin="round" d="M 23.825882 57.359554 C 23.825882 57.359554 -16.333407 57.359554 -16.333407 57.359554 C -16.333407 57.359554 -18.274836 45.498839 -18.274836 45.498839 C -18.274836 45.498839 -23.822693 11.742407 -23.822693 11.742407 C -23.822693 -17.211881 -11.601978 -49.656884 6.147309 -57.107599 C 6.346595 -57.197599 6.545881 -57.28117 6.745167 -57.358313 C 13.083739 -34.980454 18.625168 7.13955 23.825882 57.359554 Z M 23.825882 57.359554 " stroke="#231f1f" stroke-width="2" stroke-opacity="1" stroke-miterlimit="4"/><path stroke-linecap="round" transform="matrix(0.607639, 0, 0, 0.607639, 847.693212, 278.073376)" fill-opacity="1" fill="#d4d4d4" fill-rule="nonzero" stroke-linejoin="round" d="M -24.367259 22.392104 C -24.367259 22.392104 -6.701543 12.852103 -6.701543 12.852103 C -6.701543 12.852103 2.041315 22.392104 2.041315 22.392104 C 2.041315 22.392104 24.367745 -13.492185 24.367745 -13.492185 C 24.367745 -13.492185 22.092031 -19.605757 22.092031 -19.605757 C 22.092031 -19.605757 11.034887 -22.389329 11.034887 -22.389329 C 11.034887 -22.389329 11.034887 -19.1429 11.034887 -19.1429 C 11.034887 -19.1429 -24.367259 22.392104 -24.367259 22.392104 Z M -24.367259 22.392104 " stroke="#231f1f" stroke-width="2" stroke-opacity="1" stroke-miterlimit="4"/><path stroke-linecap="round" transform="matrix(0.607639, 0, 0, 0.607639, 826.921717, 280.00688)" fill-opacity="1" fill="#d4d4d4" fill-rule="nonzero" stroke-linejoin="round" d="M 9.81669 19.210107 C 9.81669 19.210107 2.166689 10.897964 2.166689 10.897964 C 2.166689 10.897964 -4.99474 13.861535 -4.99474 13.861535 C -4.99474 13.861535 -9.816169 -11.557038 -9.816169 -11.557038 C -9.816169 -11.557038 -2.770454 -17.728468 -2.770454 -17.728468 C -2.770454 -17.728468 3.265975 -19.207039 3.265975 -19.207039 C 3.265975 -19.207039 3.265975 -13.537039 3.265975 -13.537039 C 3.265975 -13.537039 9.81669 19.210107 9.81669 19.210107 Z M 9.81669 19.210107 " stroke="#231f1f" stroke-width="2" stroke-opacity="1" stroke-miterlimit="4"/><path stroke-linecap="round" transform="matrix(0.607639, 0, 0, 0.607639, 832.474308, 334.835365)" fill="none" stroke-linejoin="round" d="M -32.27415 -2.306915 C -23.235578 0.483085 -13.509149 -1.7412 -4.309862 -3.939772 C -2.689862 -4.325486 -1.03129 -4.717629 0.627281 -4.518344 C 2.947996 -4.248344 4.966567 -2.866201 7.010853 -1.728343 C 14.660854 2.520943 23.59014 3.6588 32.268713 4.713086 " stroke="#231f1f" stroke-width="2" stroke-opacity="1" stroke-miterlimit="4"/><path stroke-linecap="round" transform="matrix(0.607639, 0, 0, 0.607639, 833.084964, 141.49803)" fill-opacity="1" fill="#ffffff" fill-rule="nonzero" stroke-linejoin="round" d="M 203.195906 16.498958 C 203.195906 16.498958 -203.192703 16.498958 -203.192703 16.498958 C -203.192703 16.498958 -203.192703 -16.498902 -203.192703 -16.498902 C -203.192703 -16.498902 203.195906 -16.498902 203.195906 -16.498902 C 203.195906 -16.498902 203.195906 16.498958 203.195906 16.498958 Z M 203.195906 16.498958 " stroke="#231f1f" stroke-width="2" stroke-opacity="1" stroke-miterlimit="4"/><path stroke-linecap="round" transform="matrix(0.607639, 0, 0, 0.607639, 905.374521, 141.092737)" fill-opacity="1" fill="#ffffff" fill-rule="nonzero" stroke-linejoin="round" d="M 10.164361 10.16524 C 10.164361 10.16524 -10.162784 10.16524 -10.162784 10.16524 C -10.162784 10.16524 -10.162784 -10.161905 -10.162784 -10.161905 C -10.162784 -10.161905 10.164361 -10.161905 10.164361 -10.161905 C 10.164361 -10.161905 10.164361 10.16524 10.164361 10.16524 Z M 10.164361 10.16524 " stroke="#231f1f" stroke-width="2" stroke-opacity="1" stroke-miterlimit="4"/><path stroke-linecap="round" transform="matrix(0.607639, 0, 0, 0.607639, 925.066952, 141.092737)" fill-opacity="1" fill="#ffffff" fill-rule="nonzero" stroke-linejoin="round" d="M 10.162675 10.16524 C 10.162675 10.16524 -10.16447 10.16524 -10.16447 10.16524 C -10.16447 10.16524 -10.16447 -10.161905 -10.16447 -10.161905 C -10.16447 -10.161905 10.162675 -10.161905 10.162675 -10.161905 C 10.162675 -10.161905 10.162675 10.16524 10.162675 10.16524 Z M 10.162675 10.16524 " stroke="#231f1f" stroke-width="2" stroke-opacity="1" stroke-miterlimit="4"/><path stroke-linecap="round" transform="matrix(0.607639, 0, 0, 0.607639, 944.759263, 141.092737)" fill-opacity="1" fill="#ffffff" fill-rule="nonzero" stroke-linejoin="round" d="M 10.161186 10.16524 C 10.161186 10.16524 -10.165959 10.16524 -10.165959 10.16524 C -10.165959 10.16524 -10.165959 -10.161905 -10.165959 -10.161905 C -10.165959 -10.161905 10.161186 -10.161905 10.161186 -10.161905 C 10.161186 -10.161905 10.161186 10.16524 10.161186 10.16524 Z M 10.161186 10.16524 " stroke="#231f1f" stroke-width="2" stroke-opacity="1" stroke-miterlimit="4"/><path stroke-linecap="round" transform="matrix(0.607639, 0, 0, 0.607639, 944.759263, 141.092737)" fill-opacity="1" fill="#80cc28" fill-rule="nonzero" stroke-linejoin="round" d="M -10.165959 -10.161905 C -10.165959 -10.161905 10.161186 10.16524 10.161186 10.16524 " stroke="#231f1f" stroke-width="2" stroke-opacity="1" stroke-miterlimit="4"/><path stroke-linecap="round" transform="matrix(0.607639, 0, 0, 0.607639, 944.759263, 141.092737)" fill-opacity="1" fill="#80cc28" fill-rule="nonzero" stroke-linejoin="round" d="M -10.165959 10.16524 C -10.165959 10.16524 10.161186 -10.161905 10.161186 -10.161905 " stroke="#231f1f" stroke-width="2" stroke-opacity="1" stroke-miterlimit="4"/><path stroke-linecap="round" transform="matrix(0.607639, 0, 0, 0.607639, 835.65894, 209.823993)" fill="none" stroke-linejoin="round" d="M -7.699428 -2.031058 C -1.328713 -2.583915 3.56343 -0.636058 7.703431 2.584657 " stroke="#231f1f" stroke-width="2" stroke-opacity="1" stroke-miterlimit="4"/><path stroke-linecap="round" transform="matrix(0.607639, 0, 0, 0.607639, 814.145461, 209.655067)" fill="none" stroke-linejoin="round" d="M -5.735817 1.96909 C -1.910816 -0.988053 1.914184 -1.965196 5.739184 -0.981625 " stroke="#231f1f" stroke-width="2" stroke-opacity="1" stroke-miterlimit="4"/><path stroke-linecap="round" transform="matrix(0.607639, 0, 0, 0.213341, 833.104428, 219.370586)" fill-opacity="1" fill="#231f1f" fill-rule="nonzero" stroke-linejoin="round" d="M 2.470284 0.0023811 C 2.470284 2.730557 1.36457 4.964365 0.00171227 4.964365 C -1.361145 4.964365 -2.466859 2.730557 -2.466859 0.0023811 C -2.466859 -2.744105 -1.361145 -4.959603 0.00171227 -4.959603 C 1.36457 -4.959603 2.470284 -2.744105 2.470284 0.0023811 Z M 2.470284 0.0023811 " stroke="#231f1f" stroke-width="2" stroke-opacity="1" stroke-miterlimit="4"/><path stroke-linecap="round" transform="matrix(0.607639, 0, 0, 0.213341, 835.3509, 218.116034)" fill-opacity="1" fill="#231f1f" fill-rule="nonzero" stroke-linejoin="round" d="M -3.695339 -1.184736 C -0.873196 -1.056567 1.57609 -1.569244 3.697519 -2.594599 C 3.163947 -0.36079 1.145376 1.213861 -1.297482 2.587104 C -1.297482 2.587104 -3.695339 -1.184736 -3.695339 -1.184736 Z M -3.695339 -1.184736 " stroke="#231f1f" stroke-width="2" stroke-opacity="1" stroke-miterlimit="4"/><path stroke-linecap="round" transform="matrix(0.607639, 0, 0, 0.213341, 814.201381, 219.205322)" fill-opacity="1" fill="#231f1f" fill-rule="nonzero" stroke-linejoin="round" d="M -2.465702 0.0080129 C -2.465702 2.736189 -1.359988 4.951687 0.0028697 4.951687 C 1.365727 4.951687 2.465013 2.736189 2.465013 0.0080129 C 2.465013 -2.738473 1.365727 -4.953971 0.0028697 -4.953971 C -1.359988 -4.953971 -2.465702 -2.738473 -2.465702 0.0080129 Z M -2.465702 0.0080129 " stroke="#231f1f" stroke-width="2" stroke-opacity="1" stroke-miterlimit="4"/><path stroke-linecap="round" transform="matrix(0.607639, 0, 0, 0.213341, 811.954957, 218.049355)" fill-opacity="1" fill="#231f1f" fill-rule="nonzero" stroke-linejoin="round" d="M 3.699842 -1.183457 C 0.87127 -1.055287 -1.571587 -1.567965 -3.699444 -2.59332 C -3.159444 -0.359511 -1.147301 1.215141 1.301985 2.588384 C 1.301985 2.588384 3.699842 -1.183457 3.699842 -1.183457 Z M 3.699842 -1.183457 " stroke="#231f1f" stroke-width="2" stroke-opacity="1" stroke-miterlimit="4"/><path stroke-linecap="round" transform="matrix(0.607639, 0, 0, 0.607639, 829.726596, 238.616346)" fill-opacity="1" fill="#231f1f" fill-rule="nonzero" stroke-linejoin="round" d="M -11.455771 -0.725043 C -10.999343 1.582814 -4.487199 5.8771 1.118516 4.758529 C 6.72423 3.639957 11.918517 -1.258615 11.455659 -3.566472 C 10.999231 -5.874329 5.41923 -2.8979 -0.186485 -1.779329 C -5.792199 -0.660757 -11.918628 -3.0329 -11.455771 -0.725043 Z M -11.455771 -0.725043 " stroke="#231f1f" stroke-width="2" stroke-opacity="1" stroke-miterlimit="4"/><path stroke-linecap="round" transform="matrix(0.607639, 0, 0, 0.607639, 594.624408, 182.857921)" fill-opacity="1" fill="#231f1f" fill-rule="nonzero" stroke-linejoin="round" d="M 71.943123 55.918112 C 71.943123 55.918112 -71.947604 55.918112 -71.947604 55.918112 C -71.947604 55.918112 -71.947604 -55.919755 -71.947604 -55.919755 C -71.947604 -55.919755 71.943123 -55.919755 71.943123 -55.919755 C 71.943123 -55.919755 71.943123 55.918112 71.943123 55.918112 Z M 71.943123 55.918112 " stroke="#231f1f" stroke-width="2" stroke-opacity="1" stroke-miterlimit="4"/><path stroke-linecap="round" transform="matrix(0.607639, 0, 0, 0.607639, 590.84856, 176.918257)" fill-opacity="1" fill="#ffffff" fill-rule="nonzero" stroke-linejoin="round" d="M 71.94709 55.921673 C 71.94709 55.921673 -71.943638 55.921673 -71.943638 55.921673 C -71.943638 55.921673 -71.943638 -55.916195 -71.943638 -55.916195 C -71.943638 -55.916195 71.94709 -55.916195 71.94709 -55.916195 C 71.94709 -55.916195 71.94709 55.921673 71.94709 55.921673 Z M 71.94709 55.921673 " stroke="#231f1f" stroke-width="2" stroke-opacity="1" stroke-miterlimit="4"/><path stroke-linecap="round" transform="matrix(0.607639, 0, 0, 0.607639, 590.84856, 149.085965)" fill-opacity="1" fill="#80cc28" fill-rule="nonzero" stroke-linejoin="round" d="M 71.94709 10.118527 C 71.94709 10.118527 -71.943638 10.118527 -71.943638 10.118527 C -71.943638 10.118527 -71.943638 -10.118618 -71.943638 -10.118618 C -71.943638 -10.118618 71.94709 -10.118618 71.94709 -10.118618 C 71.94709 -10.118618 71.94709 10.118527 71.94709 10.118527 Z M 71.94709 10.118527 " stroke="#231f1f" stroke-width="2" stroke-opacity="1" stroke-miterlimit="4"/><path stroke-linecap="round" transform="matrix(0.607639, 0, 0, 0.607639, 610.393224, 182.857921)" fill-opacity="1" fill="#ffffff" fill-rule="nonzero" stroke-linejoin="round" d="M 28.795726 33.64311 C 28.795726 33.64311 -28.791422 33.64311 -28.791422 33.64311 C -28.791422 33.64311 -28.791422 -33.644753 -28.791422 -33.644753 C -28.791422 -33.644753 28.795726 -33.644753 28.795726 -33.644753 C 28.795726 -33.644753 28.795726 33.64311 28.795726 33.64311 Z M 28.795726 33.64311 " stroke="#231f1f" stroke-width="2" stroke-opacity="1" stroke-miterlimit="4"/><path stroke-linecap="round" transform="matrix(0.607639, 0, 0, 0.607639, 610.3938, 182.857307)" fill-opacity="1" fill="#ffffff" fill-rule="nonzero" stroke-linejoin="round" d="M -28.79237 -33.643742 C -28.79237 -33.643742 28.794778 33.644121 28.794778 33.644121 " stroke="#231f1f" stroke-width="2" stroke-opacity="1" stroke-miterlimit="4"/><path stroke-linecap="round" transform="matrix(0.607639, 0, 0, 0.607639, 610.393224, 182.857307)" fill-opacity="1" fill="#ffffff" fill-rule="nonzero" stroke-linejoin="round" d="M 28.795726 -33.643742 C 28.795726 -33.643742 -28.791422 33.644121 -28.791422 33.644121 " stroke="#231f1f" stroke-width="2" stroke-opacity="1" stroke-miterlimit="4"/><path stroke-linecap="round" transform="matrix(0.607639, 0, 0, 0.607639, 546.272739, 142.079895)" fill="none" stroke-linejoin="round" d="M 12.781151 47.787091 C 12.781151 47.787091 63.245441 47.787091 63.245441 47.787091 " stroke="#231f1f" stroke-width="2" stroke-opacity="1" stroke-miterlimit="4"/><path stroke-linecap="round" transform="matrix(0.607639, 0, 0, 0.607639, 546.272739, 142.079895)" fill="none" stroke-linejoin="round" d="M 12.781151 56.690663 C 12.781151 56.690663 63.245441 56.690663 63.245441 56.690663 " stroke="#231f1f" stroke-width="2" stroke-opacity="1" stroke-miterlimit="4"/><path stroke-linecap="round" transform="matrix(0.607639, 0, 0, 0.607639, 546.272739, 142.079895)" fill="none" stroke-linejoin="round" d="M 12.781151 65.594236 C 12.781151 65.594236 63.245441 65.594236 63.245441 65.594236 " stroke="#231f1f" stroke-width="2" stroke-opacity="1" stroke-miterlimit="4"/><path stroke-linecap="round" transform="matrix(0.607639, 0, 0, 0.607639, 569.370338, 193.354904)" fill-opacity="1" fill="#d4d4d4" fill-rule="nonzero" stroke-linejoin="round" d="M 16.31696 5.304502 C 16.31696 5.304502 -16.314471 5.304502 -16.314471 5.304502 C -18.101614 5.304502 -19.548043 3.858073 -19.548043 2.07093 C -19.548043 2.07093 -19.548043 -2.069071 -19.548043 -2.069071 C -19.548043 -3.856214 -18.101614 -5.302642 -16.314471 -5.302642 C -16.314471 -5.302642 16.31696 -5.302642 16.31696 -5.302642 C 18.104103 -5.302642 19.550532 -3.856214 19.550532 -2.069071 C 19.550532 -2.069071 19.550532 2.07093 19.550532 2.07093 C 19.550532 3.858073 18.104103 5.304502 16.31696 5.304502 Z M 16.31696 5.304502 " stroke="#231f1f" stroke-width="2" stroke-opacity="1" stroke-miterlimit="4"/><path stroke-linecap="round" transform="matrix(0.625868, 0, 0, 0.625868, 443.284376, 243.316971)" fill-opacity="1" fill="#80cc28" fill-rule="nonzero" stroke-linejoin="round" d="M 12.883357 41.285512 C 12.883357 41.285512 -12.880863 41.285512 -12.880863 41.285512 C -12.880863 41.285512 -12.880863 -40.756803 -12.880863 -40.756803 C -12.880863 -40.756803 12.883357 -40.756803 12.883357 -40.756803 C 12.883357 -40.756803 12.883357 41.285512 12.883357 41.285512 Z M 12.883357 41.285512 " stroke="#231f1f" stroke-width="2" stroke-opacity="1" stroke-miterlimit="4"/><path stroke-linecap="round" transform="matrix(0.625868, 0, 0, 0.625868, 464.531359, 248.898463)" fill-opacity="1" fill="#d4d4d4" fill-rule="nonzero" stroke-linejoin="round" d="M 12.881936 32.367508 C 12.881936 32.367508 -12.882284 32.367508 -12.882284 32.367508 C -12.882284 32.367508 -12.882284 -32.26773 -12.882284 -32.26773 C -12.882284 -32.26773 12.881936 -32.26773 12.881936 -32.26773 C 12.881936 -32.26773 12.881936 32.367508 12.881936 32.367508 Z M 12.881936 32.367508 " stroke="#231f1f" stroke-width="2" stroke-opacity="1" stroke-miterlimit="4"/><path stroke-linecap="round" transform="matrix(0.625868, 0, 0, 0.625868, 485.778318, 256.237361)" fill-opacity="1" fill="#80cc28" fill-rule="nonzero" stroke-linejoin="round" d="M 12.880554 20.641557 C 12.880554 20.641557 -12.883666 20.641557 -12.883666 20.641557 C -12.883666 20.641557 -12.883666 -21.08175 -12.883666 -21.08175 C -12.883666 -21.08175 12.880554 -21.08175 12.880554 -21.08175 C 12.880554 -21.08175 12.880554 20.641557 12.880554 20.641557 Z M 12.880554 20.641557 " stroke="#231f1f" stroke-width="2" stroke-opacity="1" stroke-miterlimit="4"/><g clip-path="url(#530921b6d0)"><path fill="#231f1f" d="M 763.804688 450.386719 L 756.242188 446.625 C 755.414062 443.625 754.226562 440.773438 752.726562 438.125 L 755.421875 430.105469 C 752.898438 426.734375 749.902344 423.734375 746.539062 421.207031 L 738.535156 423.90625 C 735.917969 422.417969 733.105469 421.238281 730.144531 420.410156 C 731.878906 422.425781 733.816406 424.488281 735.789062 426.589844 C 743.714844 435.03125 752.703125 444.601562 752.703125 456.195312 C 752.703125 474.253906 738.039062 488.945312 720.019531 488.945312 C 702 488.945312 687.335938 474.253906 687.335938 456.195312 C 687.335938 444.601562 696.324219 435.03125 704.25 426.589844 C 706.222656 424.488281 708.160156 422.425781 709.894531 420.410156 C 706.933594 421.238281 704.121094 422.417969 701.503906 423.90625 L 693.5 421.207031 C 690.136719 423.734375 687.144531 426.734375 684.617188 430.105469 L 687.3125 438.125 C 685.8125 440.773438 684.625 443.625 683.796875 446.625 L 676.234375 450.386719 C 675.941406 452.441406 675.789062 454.542969 675.789062 456.679688 C 675.789062 458.816406 675.941406 460.914062 676.234375 462.972656 L 683.796875 466.730469 C 684.625 469.730469 685.8125 472.582031 687.3125 475.230469 L 684.617188 483.253906 C 687.144531 486.621094 690.136719 489.621094 693.5 492.152344 L 701.503906 489.453125 C 704.148438 490.957031 706.992188 492.144531 709.988281 492.976562 L 713.738281 500.550781 C 715.792969 500.84375 717.886719 501 720.019531 501 C 722.152344 501 724.246094 500.84375 726.300781 500.550781 L 730.054688 492.976562 C 733.046875 492.144531 735.890625 490.957031 738.535156 489.453125 L 746.539062 492.152344 C 749.902344 489.621094 752.898438 486.621094 755.421875 483.253906 L 752.726562 475.230469 C 754.226562 472.582031 755.414062 469.730469 756.242188 466.730469 L 763.804688 462.972656 C 764.097656 460.914062 764.25 458.816406 764.25 456.679688 C 764.25 454.542969 764.097656 452.441406 763.804688 450.386719 " fill-opacity="1" fill-rule="nonzero"/></g><g clip-path="url(#34978b2512)"><path fill="#80cc28" d="M 720.019531 408.75 C 718.796875 423.4375 690.808594 437.367188 690.808594 456.195312 C 690.808594 477.296875 711.046875 484.054688 711.046875 484.054688 C 711.046875 484.054688 717.417969 479.808594 722.460938 471.128906 C 747.695312 460.296875 719.710938 436.210938 719.710938 436.210938 C 719.710938 436.210938 719.90625 442.023438 716.464844 448.292969 C 712.546875 455.4375 706.640625 463.691406 716.738281 469.589844 C 724.09375 460.09375 722.984375 450.433594 722.984375 450.433594 C 723.269531 452.148438 723.449219 453.78125 723.535156 455.332031 C 723.59375 459.664062 722.683594 466.339844 717.894531 473.175781 C 715.035156 477.265625 709.371094 478.105469 705.433594 475.042969 C 699.824219 470.675781 696.207031 463.851562 696.207031 456.195312 C 696.207031 448.128906 703.582031 440.277344 710.710938 432.679688 C 714.101562 429.074219 717.402344 425.558594 720.019531 421.945312 C 722.636719 425.558594 725.9375 429.074219 729.328125 432.679688 C 736.457031 440.277344 743.832031 448.128906 743.832031 456.195312 C 743.832031 468.949219 733.796875 479.394531 721.226562 480.023438 C 720.460938 480.964844 719.660156 481.847656 718.84375 482.667969 C 717.929688 483.585938 717 484.425781 716.078125 485.199219 C 717.367188 485.375 718.683594 485.46875 720.019531 485.46875 C 736.152344 485.46875 749.230469 472.359375 749.230469 456.195312 C 749.230469 437.367188 721.242188 423.4375 720.019531 408.75 " fill-opacity="1" fill-rule="nonzero"/></g><g fill="#1b1b1b" fill-opacity="0.8118"><g transform="translate(487.453849, 702.245173)"><g><path d="M 34.34375 -35.78125 L 20.96875 -35.78125 L 20.96875 0 L 13.859375 0 L 13.859375 -35.78125 L 0.546875 -35.78125 L 0.546875 -42.171875 L 34.34375 -42.171875 Z M 34.34375 -35.78125 "/></g></g></g><g fill="#1b1b1b" fill-opacity="0.8118"><g transform="translate(524.142549, 702.245173)"><g/></g></g><g fill="#1b1b1b" fill-opacity="0.8118"><g transform="translate(541.49324, 702.245173)"><g><path d="M 24.21875 -42.359375 C 27.1875 -42.359375 30.085938 -41.785156 32.921875 -40.640625 C 35.753906 -39.492188 38.195312 -37.894531 40.25 -35.84375 L 36.09375 -30.671875 C 34.5625 -32.316406 32.75 -33.617188 30.65625 -34.578125 C 28.570312 -35.546875 26.46875 -36.03125 24.34375 -36.03125 C 20.125 -36.03125 16.554688 -34.59375 13.640625 -31.71875 C 10.734375 -28.84375 9.28125 -25.335938 9.28125 -21.203125 C 9.28125 -17.023438 10.734375 -13.5 13.640625 -10.625 C 16.554688 -7.757812 20.125 -6.328125 24.34375 -6.328125 C 28.71875 -6.328125 32.632812 -7.992188 36.09375 -11.328125 L 40.3125 -6.625 C 38.132812 -4.5 35.597656 -2.8125 32.703125 -1.5625 C 29.816406 -0.320312 26.910156 0.296875 23.984375 0.296875 C 17.796875 0.296875 12.59375 -1.757812 8.375 -5.875 C 4.15625 -9.988281 2.046875 -15.078125 2.046875 -21.140625 C 2.046875 -27.128906 4.179688 -32.160156 8.453125 -36.234375 C 12.734375 -40.316406 17.988281 -42.359375 24.21875 -42.359375 Z M 24.21875 -42.359375 "/></g></g></g><g fill="#1b1b1b" fill-opacity="0.8118"><g transform="translate(585.290627, 702.245173)"><g><path d="M 8.484375 -36.234375 C 12.785156 -40.316406 18.085938 -42.359375 24.390625 -42.359375 C 30.703125 -42.359375 36.003906 -40.316406 40.296875 -36.234375 C 44.597656 -32.160156 46.75 -27.109375 46.75 -21.078125 C 46.75 -15.054688 44.597656 -9.988281 40.296875 -5.875 C 36.003906 -1.757812 30.703125 0.296875 24.390625 0.296875 C 18.085938 0.296875 12.785156 -1.757812 8.484375 -5.875 C 4.191406 -9.988281 2.046875 -15.054688 2.046875 -21.078125 C 2.046875 -27.109375 4.191406 -32.160156 8.484375 -36.234375 Z M 24.46875 -35.96875 C 20.289062 -35.96875 16.710938 -34.53125 13.734375 -31.65625 C 10.765625 -28.789062 9.28125 -25.269531 9.28125 -21.09375 C 9.28125 -16.914062 10.773438 -13.367188 13.765625 -10.453125 C 16.753906 -7.535156 20.316406 -6.078125 24.453125 -6.078125 C 28.597656 -6.078125 32.132812 -7.535156 35.0625 -10.453125 C 38 -13.367188 39.46875 -16.914062 39.46875 -21.09375 C 39.46875 -25.269531 38 -28.789062 35.0625 -31.65625 C 32.132812 -34.53125 28.601562 -35.96875 24.46875 -35.96875 Z M 24.46875 -35.96875 "/></g></g></g><g fill="#1b1b1b" fill-opacity="0.8118"><g transform="translate(635.895482, 702.245173)"><g><path d="M 42.109375 0 L 35.125 0 L 12.65625 -30.25 L 12.65625 0 L 5.546875 0 L 5.546875 -42.171875 L 12.53125 -42.171875 L 35.125 -11.875 L 35.125 -42.171875 L 42.109375 -42.171875 Z M 42.109375 0 "/></g></g></g><g fill="#1b1b1b" fill-opacity="0.8118"><g transform="translate(685.415952, 702.245173)"><g><path d="M 19.40625 -42.46875 C 24.863281 -42.46875 29.78125 -41.023438 34.15625 -38.140625 L 31.203125 -31.875 C 26.910156 -34.476562 22.796875 -35.78125 18.859375 -35.78125 C 16.734375 -35.78125 15.054688 -35.398438 13.828125 -34.640625 C 12.597656 -33.878906 11.984375 -32.796875 11.984375 -31.390625 C 11.984375 -29.984375 12.546875 -28.785156 13.671875 -27.796875 C 14.796875 -26.816406 16.203125 -26.09375 17.890625 -25.625 C 19.578125 -25.164062 21.40625 -24.582031 23.375 -23.875 C 25.34375 -23.175781 27.171875 -22.4375 28.859375 -21.65625 C 30.546875 -20.875 31.941406 -19.648438 33.046875 -17.984375 C 34.148438 -16.316406 34.703125 -14.296875 34.703125 -11.921875 C 34.703125 -8.234375 33.222656 -5.285156 30.265625 -3.078125 C 27.316406 -0.867188 23.492188 0.234375 18.796875 0.234375 C 15.585938 0.234375 12.472656 -0.363281 9.453125 -1.5625 C 6.441406 -2.769531 3.8125 -4.398438 1.5625 -6.453125 L 4.640625 -12.59375 C 6.765625 -10.625 9.101562 -9.109375 11.65625 -8.046875 C 14.207031 -6.984375 16.628906 -6.453125 18.921875 -6.453125 C 21.410156 -6.453125 23.347656 -6.898438 24.734375 -7.796875 C 26.117188 -8.703125 26.8125 -9.957031 26.8125 -11.5625 C 26.8125 -13.007812 26.25 -14.222656 25.125 -15.203125 C 24 -16.191406 22.59375 -16.914062 20.90625 -17.375 C 19.21875 -17.84375 17.390625 -18.40625 15.421875 -19.0625 C 13.453125 -19.726562 11.625 -20.429688 9.9375 -21.171875 C 8.25 -21.921875 6.84375 -23.117188 5.71875 -24.765625 C 4.59375 -26.410156 4.03125 -28.398438 4.03125 -30.734375 C 4.03125 -34.304688 5.4375 -37.15625 8.25 -39.28125 C 11.0625 -41.40625 14.78125 -42.46875 19.40625 -42.46875 Z M 19.40625 -42.46875 "/></g></g></g><g fill="#1b1b1b" fill-opacity="0.8118"><g transform="translate(724.695109, 702.245173)"><g><path d="M 41.390625 -42.171875 L 41.390625 -17.46875 C 41.390625 -11.96875 39.757812 -7.628906 36.5 -4.453125 C 33.25 -1.285156 28.769531 0.296875 23.0625 0.296875 C 17.363281 0.296875 12.878906 -1.285156 9.609375 -4.453125 C 6.335938 -7.628906 4.703125 -11.96875 4.703125 -17.46875 L 4.703125 -42.171875 L 11.8125 -42.171875 L 11.8125 -17.46875 C 11.8125 -13.9375 12.820312 -11.15625 14.84375 -9.125 C 16.875 -7.09375 19.640625 -6.078125 23.140625 -6.078125 C 26.585938 -6.078125 29.304688 -7.082031 31.296875 -9.09375 C 33.285156 -11.101562 34.28125 -13.894531 34.28125 -17.46875 L 34.28125 -42.171875 Z M 41.390625 -42.171875 "/></g></g></g><g fill="#1b1b1b" fill-opacity="0.8118"><g transform="translate(772.528781, 702.245173)"><g><path d="M 12.65625 -6.453125 L 30.90625 -6.453125 L 30.90625 0 L 5.546875 0 L 5.546875 -42.171875 L 12.65625 -42.171875 Z M 12.65625 -6.453125 "/></g></g></g><g fill="#1b1b1b" fill-opacity="0.8118"><g transform="translate(806.506552, 702.245173)"><g><path d="M 34.34375 -35.78125 L 20.96875 -35.78125 L 20.96875 0 L 13.859375 0 L 13.859375 -35.78125 L 0.546875 -35.78125 L 0.546875 -42.171875 L 34.34375 -42.171875 Z M 34.34375 -35.78125 "/></g></g></g><g fill="#1b1b1b" fill-opacity="0.8118"><g transform="translate(843.195261, 702.245173)"><g><path d="M 12.65625 0 L 5.546875 0 L 5.546875 -42.171875 L 12.65625 -42.171875 Z M 12.65625 0 "/></g></g></g><g fill="#1b1b1b" fill-opacity="0.8118"><g transform="translate(863.196642, 702.245173)"><g><path d="M 42.109375 0 L 35.125 0 L 12.65625 -30.25 L 12.65625 0 L 5.546875 0 L 5.546875 -42.171875 L 12.53125 -42.171875 L 35.125 -11.875 L 35.125 -42.171875 L 42.109375 -42.171875 Z M 42.109375 0 "/></g></g></g><g fill="#1b1b1b" fill-opacity="0.8118"><g transform="translate(912.717124, 702.245173)"><g><path d="M 34.40625 -20.71875 L 40.609375 -20.71875 L 40.609375 -5.1875 C 38.441406 -3.539062 35.878906 -2.210938 32.921875 -1.203125 C 29.972656 -0.203125 27.070312 0.296875 24.21875 0.296875 C 17.988281 0.296875 12.734375 -1.757812 8.453125 -5.875 C 4.179688 -9.988281 2.046875 -15.054688 2.046875 -21.078125 C 2.046875 -27.109375 4.210938 -32.160156 8.546875 -36.234375 C 12.890625 -40.316406 18.253906 -42.359375 24.640625 -42.359375 C 27.609375 -42.359375 30.53125 -41.820312 33.40625 -40.75 C 36.28125 -39.6875 38.757812 -38.253906 40.84375 -36.453125 L 36.8125 -31.203125 C 33.351562 -34.421875 29.296875 -36.03125 24.640625 -36.03125 C 20.347656 -36.03125 16.710938 -34.582031 13.734375 -31.6875 C 10.765625 -28.800781 9.28125 -25.269531 9.28125 -21.09375 C 9.28125 -16.875 10.773438 -13.316406 13.765625 -10.421875 C 16.753906 -7.523438 20.398438 -6.078125 24.703125 -6.078125 C 27.953125 -6.078125 31.1875 -7.046875 34.40625 -8.984375 Z M 34.40625 -20.71875 "/></g></g></g><g fill="#ffffff" fill-opacity="1"><g transform="translate(484.790425, 699.581797)"><g><path d="M 34.34375 -35.78125 L 20.96875 -35.78125 L 20.96875 0 L 13.859375 0 L 13.859375 -35.78125 L 0.546875 -35.78125 L 0.546875 -42.171875 L 34.34375 -42.171875 Z M 34.34375 -35.78125 "/></g></g></g><g fill="#ffffff" fill-opacity="1"><g transform="translate(521.479125, 699.581797)"><g/></g></g><g fill="#ffffff" fill-opacity="1"><g transform="translate(538.829816, 699.581797)"><g><path d="M 24.21875 -42.359375 C 27.1875 -42.359375 30.085938 -41.785156 32.921875 -40.640625 C 35.753906 -39.492188 38.195312 -37.894531 40.25 -35.84375 L 36.09375 -30.671875 C 34.5625 -32.316406 32.75 -33.617188 30.65625 -34.578125 C 28.570312 -35.546875 26.46875 -36.03125 24.34375 -36.03125 C 20.125 -36.03125 16.554688 -34.59375 13.640625 -31.71875 C 10.734375 -28.84375 9.28125 -25.335938 9.28125 -21.203125 C 9.28125 -17.023438 10.734375 -13.5 13.640625 -10.625 C 16.554688 -7.757812 20.125 -6.328125 24.34375 -6.328125 C 28.71875 -6.328125 32.632812 -7.992188 36.09375 -11.328125 L 40.3125 -6.625 C 38.132812 -4.5 35.597656 -2.8125 32.703125 -1.5625 C 29.816406 -0.320312 26.910156 0.296875 23.984375 0.296875 C 17.796875 0.296875 12.59375 -1.757812 8.375 -5.875 C 4.15625 -9.988281 2.046875 -15.078125 2.046875 -21.140625 C 2.046875 -27.128906 4.179688 -32.160156 8.453125 -36.234375 C 12.734375 -40.316406 17.988281 -42.359375 24.21875 -42.359375 Z M 24.21875 -42.359375 "/></g></g></g><g fill="#ffffff" fill-opacity="1"><g transform="translate(582.627203, 699.581797)"><g><path d="M 8.484375 -36.234375 C 12.785156 -40.316406 18.085938 -42.359375 24.390625 -42.359375 C 30.703125 -42.359375 36.003906 -40.316406 40.296875 -36.234375 C 44.597656 -32.160156 46.75 -27.109375 46.75 -21.078125 C 46.75 -15.054688 44.597656 -9.988281 40.296875 -5.875 C 36.003906 -1.757812 30.703125 0.296875 24.390625 0.296875 C 18.085938 0.296875 12.785156 -1.757812 8.484375 -5.875 C 4.191406 -9.988281 2.046875 -15.054688 2.046875 -21.078125 C 2.046875 -27.109375 4.191406 -32.160156 8.484375 -36.234375 Z M 24.46875 -35.96875 C 20.289062 -35.96875 16.710938 -34.53125 13.734375 -31.65625 C 10.765625 -28.789062 9.28125 -25.269531 9.28125 -21.09375 C 9.28125 -16.914062 10.773438 -13.367188 13.765625 -10.453125 C 16.753906 -7.535156 20.316406 -6.078125 24.453125 -6.078125 C 28.597656 -6.078125 32.132812 -7.535156 35.0625 -10.453125 C 38 -13.367188 39.46875 -16.914062 39.46875 -21.09375 C 39.46875 -25.269531 38 -28.789062 35.0625 -31.65625 C 32.132812 -34.53125 28.601562 -35.96875 24.46875 -35.96875 Z M 24.46875 -35.96875 "/></g></g></g><g fill="#ffffff" fill-opacity="1"><g transform="translate(633.232058, 699.581797)"><g><path d="M 42.109375 0 L 35.125 0 L 12.65625 -30.25 L 12.65625 0 L 5.546875 0 L 5.546875 -42.171875 L 12.53125 -42.171875 L 35.125 -11.875 L 35.125 -42.171875 L 42.109375 -42.171875 Z M 42.109375 0 "/></g></g></g><g fill="#ffffff" fill-opacity="1"><g transform="translate(682.752528, 699.581797)"><g><path d="M 19.40625 -42.46875 C 24.863281 -42.46875 29.78125 -41.023438 34.15625 -38.140625 L 31.203125 -31.875 C 26.910156 -34.476562 22.796875 -35.78125 18.859375 -35.78125 C 16.734375 -35.78125 15.054688 -35.398438 13.828125 -34.640625 C 12.597656 -33.878906 11.984375 -32.796875 11.984375 -31.390625 C 11.984375 -29.984375 12.546875 -28.785156 13.671875 -27.796875 C 14.796875 -26.816406 16.203125 -26.09375 17.890625 -25.625 C 19.578125 -25.164062 21.40625 -24.582031 23.375 -23.875 C 25.34375 -23.175781 27.171875 -22.4375 28.859375 -21.65625 C 30.546875 -20.875 31.941406 -19.648438 33.046875 -17.984375 C 34.148438 -16.316406 34.703125 -14.296875 34.703125 -11.921875 C 34.703125 -8.234375 33.222656 -5.285156 30.265625 -3.078125 C 27.316406 -0.867188 23.492188 0.234375 18.796875 0.234375 C 15.585938 0.234375 12.472656 -0.363281 9.453125 -1.5625 C 6.441406 -2.769531 3.8125 -4.398438 1.5625 -6.453125 L 4.640625 -12.59375 C 6.765625 -10.625 9.101562 -9.109375 11.65625 -8.046875 C 14.207031 -6.984375 16.628906 -6.453125 18.921875 -6.453125 C 21.410156 -6.453125 23.347656 -6.898438 24.734375 -7.796875 C 26.117188 -8.703125 26.8125 -9.957031 26.8125 -11.5625 C 26.8125 -13.007812 26.25 -14.222656 25.125 -15.203125 C 24 -16.191406 22.59375 -16.914062 20.90625 -17.375 C 19.21875 -17.84375 17.390625 -18.40625 15.421875 -19.0625 C 13.453125 -19.726562 11.625 -20.429688 9.9375 -21.171875 C 8.25 -21.921875 6.84375 -23.117188 5.71875 -24.765625 C 4.59375 -26.410156 4.03125 -28.398438 4.03125 -30.734375 C 4.03125 -34.304688 5.4375 -37.15625 8.25 -39.28125 C 11.0625 -41.40625 14.78125 -42.46875 19.40625 -42.46875 Z M 19.40625 -42.46875 "/></g></g></g><g fill="#ffffff" fill-opacity="1"><g transform="translate(722.031685, 699.581797)"><g><path d="M 41.390625 -42.171875 L 41.390625 -17.46875 C 41.390625 -11.96875 39.757812 -7.628906 36.5 -4.453125 C 33.25 -1.285156 28.769531 0.296875 23.0625 0.296875 C 17.363281 0.296875 12.878906 -1.285156 9.609375 -4.453125 C 6.335938 -7.628906 4.703125 -11.96875 4.703125 -17.46875 L 4.703125 -42.171875 L 11.8125 -42.171875 L 11.8125 -17.46875 C 11.8125 -13.9375 12.820312 -11.15625 14.84375 -9.125 C 16.875 -7.09375 19.640625 -6.078125 23.140625 -6.078125 C 26.585938 -6.078125 29.304688 -7.082031 31.296875 -9.09375 C 33.285156 -11.101562 34.28125 -13.894531 34.28125 -17.46875 L 34.28125 -42.171875 Z M 41.390625 -42.171875 "/></g></g></g><g fill="#ffffff" fill-opacity="1"><g transform="translate(769.865357, 699.581797)"><g><path d="M 12.65625 -6.453125 L 30.90625 -6.453125 L 30.90625 0 L 5.546875 0 L 5.546875 -42.171875 L 12.65625 -42.171875 Z M 12.65625 -6.453125 "/></g></g></g><g fill="#ffffff" fill-opacity="1"><g transform="translate(803.843128, 699.581797)"><g><path d="M 34.34375 -35.78125 L 20.96875 -35.78125 L 20.96875 0 L 13.859375 0 L 13.859375 -35.78125 L 0.546875 -35.78125 L 0.546875 -42.171875 L 34.34375 -42.171875 Z M 34.34375 -35.78125 "/></g></g></g><g fill="#ffffff" fill-opacity="1"><g transform="translate(840.531837, 699.581797)"><g><path d="M 12.65625 0 L 5.546875 0 L 5.546875 -42.171875 L 12.65625 -42.171875 Z M 12.65625 0 "/></g></g></g><g fill="#ffffff" fill-opacity="1"><g transform="translate(860.533218, 699.581797)"><g><path d="M 42.109375 0 L 35.125 0 L 12.65625 -30.25 L 12.65625 0 L 5.546875 0 L 5.546875 -42.171875 L 12.53125 -42.171875 L 35.125 -11.875 L 35.125 -42.171875 L 42.109375 -42.171875 Z M 42.109375 0 "/></g></g></g><g fill="#ffffff" fill-opacity="1"><g transform="translate(910.0537, 699.581797)"><g><path d="M 34.40625 -20.71875 L 40.609375 -20.71875 L 40.609375 -5.1875 C 38.441406 -3.539062 35.878906 -2.210938 32.921875 -1.203125 C 29.972656 -0.203125 27.070312 0.296875 24.21875 0.296875 C 17.988281 0.296875 12.734375 -1.757812 8.453125 -5.875 C 4.179688 -9.988281 2.046875 -15.054688 2.046875 -21.078125 C 2.046875 -27.109375 4.210938 -32.160156 8.546875 -36.234375 C 12.890625 -40.316406 18.253906 -42.359375 24.640625 -42.359375 C 27.609375 -42.359375 30.53125 -41.820312 33.40625 -40.75 C 36.28125 -39.6875 38.757812 -38.253906 40.84375 -36.453125 L 36.8125 -31.203125 C 33.351562 -34.421875 29.296875 -36.03125 24.640625 -36.03125 C 20.347656 -36.03125 16.710938 -34.582031 13.734375 -31.6875 C 10.765625 -28.800781 9.28125 -25.269531 9.28125 -21.09375 C 9.28125 -16.875 10.773438 -13.316406 13.765625 -10.421875 C 16.753906 -7.523438 20.398438 -6.078125 24.703125 -6.078125 C 27.953125 -6.078125 31.1875 -7.046875 34.40625 -8.984375 Z M 34.40625 -20.71875 "/></g></g></g><g fill="#1b1b1b" fill-opacity="0.8118"><g transform="translate(514.581822, 749.596298)"><g><path d="M 9.703125 -21.234375 C 12.429688 -21.234375 14.890625 -20.507812 17.078125 -19.0625 L 15.609375 -15.9375 C 13.453125 -17.238281 11.390625 -17.890625 9.421875 -17.890625 C 8.359375 -17.890625 7.519531 -17.695312 6.90625 -17.3125 C 6.300781 -16.9375 6 -16.394531 6 -15.6875 C 6 -14.988281 6.28125 -14.394531 6.84375 -13.90625 C 7.40625 -13.414062 8.109375 -13.050781 8.953125 -12.8125 C 9.796875 -12.582031 10.707031 -12.289062 11.6875 -11.9375 C 12.675781 -11.59375 13.585938 -11.222656 14.421875 -10.828125 C 15.265625 -10.441406 15.960938 -9.828125 16.515625 -8.984375 C 17.078125 -8.148438 17.359375 -7.144531 17.359375 -5.96875 C 17.359375 -4.113281 16.617188 -2.632812 15.140625 -1.53125 C 13.660156 -0.425781 11.75 0.125 9.40625 0.125 C 7.789062 0.125 6.226562 -0.175781 4.71875 -0.78125 C 3.21875 -1.382812 1.90625 -2.195312 0.78125 -3.21875 L 2.3125 -6.296875 C 3.382812 -5.304688 4.554688 -4.546875 5.828125 -4.015625 C 7.097656 -3.484375 8.304688 -3.21875 9.453125 -3.21875 C 10.703125 -3.21875 11.671875 -3.441406 12.359375 -3.890625 C 13.054688 -4.347656 13.40625 -4.976562 13.40625 -5.78125 C 13.40625 -6.507812 13.125 -7.117188 12.5625 -7.609375 C 12 -8.097656 11.296875 -8.457031 10.453125 -8.6875 C 9.609375 -8.914062 8.691406 -9.195312 7.703125 -9.53125 C 6.722656 -9.863281 5.8125 -10.210938 4.96875 -10.578125 C 4.125 -10.953125 3.421875 -11.550781 2.859375 -12.375 C 2.296875 -13.195312 2.015625 -14.191406 2.015625 -15.359375 C 2.015625 -17.148438 2.71875 -18.578125 4.125 -19.640625 C 5.53125 -20.703125 7.390625 -21.234375 9.703125 -21.234375 Z M 9.703125 -21.234375 "/></g></g></g><g fill="#1b1b1b" fill-opacity="0.8118"><g transform="translate(539.336758, 749.596298)"><g><path d="M 4.25 -18.109375 C 6.394531 -20.148438 9.046875 -21.171875 12.203125 -21.171875 C 15.359375 -21.171875 18.007812 -20.148438 20.15625 -18.109375 C 22.300781 -16.078125 23.375 -13.554688 23.375 -10.546875 C 23.375 -7.535156 22.300781 -5 20.15625 -2.9375 C 18.007812 -0.875 15.359375 0.15625 12.203125 0.15625 C 9.046875 0.15625 6.394531 -0.875 4.25 -2.9375 C 2.101562 -5 1.03125 -7.535156 1.03125 -10.546875 C 1.03125 -13.554688 2.101562 -16.078125 4.25 -18.109375 Z M 12.234375 -17.984375 C 10.140625 -17.984375 8.347656 -17.265625 6.859375 -15.828125 C 5.378906 -14.390625 4.640625 -12.625 4.640625 -10.53125 C 4.640625 -8.445312 5.382812 -6.675781 6.875 -5.21875 C 8.375 -3.769531 10.15625 -3.046875 12.21875 -3.046875 C 14.289062 -3.046875 16.0625 -3.769531 17.53125 -5.21875 C 19 -6.675781 19.734375 -8.445312 19.734375 -10.53125 C 19.734375 -12.625 19 -14.390625 17.53125 -15.828125 C 16.0625 -17.265625 14.296875 -17.984375 12.234375 -17.984375 Z M 12.234375 -17.984375 "/></g></g></g><g fill="#1b1b1b" fill-opacity="0.8118"><g transform="translate(569.752364, 749.596298)"><g><path d="M 12.109375 -21.171875 C 13.597656 -21.171875 15.050781 -20.882812 16.46875 -20.3125 C 17.882812 -19.738281 19.101562 -18.941406 20.125 -17.921875 L 18.046875 -15.328125 C 17.285156 -16.148438 16.378906 -16.800781 15.328125 -17.28125 C 14.285156 -17.769531 13.234375 -18.015625 12.171875 -18.015625 C 10.054688 -18.015625 8.269531 -17.296875 6.8125 -15.859375 C 5.363281 -14.421875 4.640625 -12.671875 4.640625 -10.609375 C 4.640625 -8.515625 5.363281 -6.75 6.8125 -5.3125 C 8.269531 -3.875 10.054688 -3.15625 12.171875 -3.15625 C 14.359375 -3.15625 16.316406 -3.988281 18.046875 -5.65625 L 20.15625 -3.3125 C 19.070312 -2.25 17.804688 -1.40625 16.359375 -0.78125 C 14.910156 -0.15625 13.453125 0.15625 11.984375 0.15625 C 8.890625 0.15625 6.289062 -0.875 4.1875 -2.9375 C 2.082031 -5 1.03125 -7.546875 1.03125 -10.578125 C 1.03125 -13.566406 2.097656 -16.078125 4.234375 -18.109375 C 6.367188 -20.148438 8.992188 -21.171875 12.109375 -21.171875 Z M 12.109375 -21.171875 "/></g></g></g><g fill="#1b1b1b" fill-opacity="0.8118"><g transform="translate(596.765545, 749.596298)"><g><path d="M 6.328125 0 L 2.765625 0 L 2.765625 -21.09375 L 6.328125 -21.09375 Z M 6.328125 0 "/></g></g></g><g fill="#1b1b1b" fill-opacity="0.8118"><g transform="translate(611.885329, 749.596298)"><g><path d="M 17.828125 -17.890625 L 6.328125 -17.890625 L 6.328125 -12.203125 L 16.625 -12.203125 L 16.625 -9 L 6.328125 -9 L 6.328125 -3.1875 L 18.203125 -3.1875 L 18.203125 0 L 2.765625 0 L 2.765625 -21.09375 L 17.828125 -21.09375 Z M 17.828125 -17.890625 "/></g></g></g><g fill="#1b1b1b" fill-opacity="0.8118"><g transform="translate(637.664008, 749.596298)"><g><path d="M 2.765625 -21.09375 L 11.421875 -21.09375 C 14.566406 -21.09375 17.171875 -20.097656 19.234375 -18.109375 C 21.296875 -16.117188 22.328125 -13.597656 22.328125 -10.546875 C 22.328125 -7.492188 21.289062 -4.972656 19.21875 -2.984375 C 17.144531 -0.992188 14.515625 0 11.328125 0 L 2.765625 0 Z M 6.328125 -17.890625 L 6.328125 -3.1875 L 11.5 -3.1875 C 13.570312 -3.1875 15.296875 -3.875 16.671875 -5.25 C 18.046875 -6.632812 18.734375 -8.390625 18.734375 -10.515625 C 18.734375 -12.640625 18.023438 -14.398438 16.609375 -15.796875 C 15.191406 -17.191406 13.441406 -17.890625 11.359375 -17.890625 Z M 6.328125 -17.890625 "/></g></g></g><g fill="#1b1b1b" fill-opacity="0.8118"><g transform="translate(667.025767, 749.596298)"><g><path d="M 16.390625 -4.765625 L 5.75 -4.765625 L 3.734375 0 L 0.03125 0 L 9.34375 -21.09375 L 12.984375 -21.09375 L 22.203125 0 L 18.40625 0 Z M 15.03125 -7.921875 L 11.0625 -17.296875 L 7.078125 -7.921875 Z M 15.03125 -7.921875 "/></g></g></g><g fill="#1b1b1b" fill-opacity="0.8118"><g transform="translate(695.273461, 749.596298)"><g><path d="M 2.765625 -21.09375 L 11.421875 -21.09375 C 14.566406 -21.09375 17.171875 -20.097656 19.234375 -18.109375 C 21.296875 -16.117188 22.328125 -13.597656 22.328125 -10.546875 C 22.328125 -7.492188 21.289062 -4.972656 19.21875 -2.984375 C 17.144531 -0.992188 14.515625 0 11.328125 0 L 2.765625 0 Z M 6.328125 -17.890625 L 6.328125 -3.1875 L 11.5 -3.1875 C 13.570312 -3.1875 15.296875 -3.875 16.671875 -5.25 C 18.046875 -6.632812 18.734375 -8.390625 18.734375 -10.515625 C 18.734375 -12.640625 18.023438 -14.398438 16.609375 -15.796875 C 15.191406 -17.191406 13.441406 -17.890625 11.359375 -17.890625 Z M 6.328125 -17.890625 "/></g></g></g><g fill="#1b1b1b" fill-opacity="0.8118"><g transform="translate(724.63522, 749.596298)"><g/></g></g><g fill="#1b1b1b" fill-opacity="0.8118"><g transform="translate(738.430174, 749.596298)"><g><path d="M 16.390625 -4.765625 L 5.75 -4.765625 L 3.734375 0 L 0.03125 0 L 9.34375 -21.09375 L 12.984375 -21.09375 L 22.203125 0 L 18.40625 0 Z M 15.03125 -7.921875 L 11.0625 -17.296875 L 7.078125 -7.921875 Z M 15.03125 -7.921875 "/></g></g></g><g fill="#1b1b1b" fill-opacity="0.8118"><g transform="translate(766.677869, 749.596298)"><g><path d="M 21.0625 0 L 17.5625 0 L 6.328125 -15.125 L 6.328125 0 L 2.765625 0 L 2.765625 -21.09375 L 6.265625 -21.09375 L 17.5625 -5.9375 L 17.5625 -21.09375 L 21.0625 -21.09375 Z M 21.0625 0 "/></g></g></g><g fill="#1b1b1b" fill-opacity="0.8118"><g transform="translate(796.551496, 749.596298)"><g><path d="M 4.25 -18.109375 C 6.394531 -20.148438 9.046875 -21.171875 12.203125 -21.171875 C 15.359375 -21.171875 18.007812 -20.148438 20.15625 -18.109375 C 22.300781 -16.078125 23.375 -13.554688 23.375 -10.546875 C 23.375 -7.535156 22.300781 -5 20.15625 -2.9375 C 18.007812 -0.875 15.359375 0.15625 12.203125 0.15625 C 9.046875 0.15625 6.394531 -0.875 4.25 -2.9375 C 2.101562 -5 1.03125 -7.535156 1.03125 -10.546875 C 1.03125 -13.554688 2.101562 -16.078125 4.25 -18.109375 Z M 12.234375 -17.984375 C 10.140625 -17.984375 8.347656 -17.265625 6.859375 -15.828125 C 5.378906 -14.390625 4.640625 -12.625 4.640625 -10.53125 C 4.640625 -8.445312 5.382812 -6.675781 6.875 -5.21875 C 8.375 -3.769531 10.15625 -3.046875 12.21875 -3.046875 C 14.289062 -3.046875 16.0625 -3.769531 17.53125 -5.21875 C 19 -6.675781 19.734375 -8.445312 19.734375 -10.53125 C 19.734375 -12.625 19 -14.390625 17.53125 -15.828125 C 16.0625 -17.265625 14.296875 -17.984375 12.234375 -17.984375 Z M 12.234375 -17.984375 "/></g></g></g><g fill="#1b1b1b" fill-opacity="0.8118"><g transform="translate(826.967109, 749.596298)"><g><path d="M 21.0625 0 L 17.5625 0 L 6.328125 -15.125 L 6.328125 0 L 2.765625 0 L 2.765625 -21.09375 L 6.265625 -21.09375 L 17.5625 -5.9375 L 17.5625 -21.09375 L 21.0625 -21.09375 Z M 21.0625 0 "/></g></g></g><g fill="#1b1b1b" fill-opacity="0.8118"><g transform="translate(856.840736, 749.596298)"><g><path d="M 6.328125 0 L 2.765625 0 L 2.765625 -21.09375 L 6.328125 -21.09375 Z M 6.328125 0 "/></g></g></g><g fill="#1b1b1b" fill-opacity="0.8118"><g transform="translate(871.960526, 749.596298)"><g><path d="M 25.0625 0 L 21.78125 0 L 21.75 -15.75 L 15.09375 -2.203125 L 12.765625 -2.203125 L 6.109375 -15.75 L 6.109375 0 L 2.765625 0 L 2.765625 -21.09375 L 6.984375 -21.09375 L 13.953125 -7.078125 L 20.875 -21.09375 L 25.0625 -21.09375 Z M 25.0625 0 "/></g></g></g><g fill="#1b1b1b" fill-opacity="0.8118"><g transform="translate(905.838728, 749.596298)"><g><path d="M 16.390625 -4.765625 L 5.75 -4.765625 L 3.734375 0 L 0.03125 0 L 9.34375 -21.09375 L 12.984375 -21.09375 L 22.203125 0 L 18.40625 0 Z M 15.03125 -7.921875 L 11.0625 -17.296875 L 7.078125 -7.921875 Z M 15.03125 -7.921875 "/></g></g></g><g fill="#ffffff" fill-opacity="1"><g transform="translate(513.25011, 748.264586)"><g><path d="M 9.703125 -21.234375 C 12.429688 -21.234375 14.890625 -20.507812 17.078125 -19.0625 L 15.609375 -15.9375 C 13.453125 -17.238281 11.390625 -17.890625 9.421875 -17.890625 C 8.359375 -17.890625 7.519531 -17.695312 6.90625 -17.3125 C 6.300781 -16.9375 6 -16.394531 6 -15.6875 C 6 -14.988281 6.28125 -14.394531 6.84375 -13.90625 C 7.40625 -13.414062 8.109375 -13.050781 8.953125 -12.8125 C 9.796875 -12.582031 10.707031 -12.289062 11.6875 -11.9375 C 12.675781 -11.59375 13.585938 -11.222656 14.421875 -10.828125 C 15.265625 -10.441406 15.960938 -9.828125 16.515625 -8.984375 C 17.078125 -8.148438 17.359375 -7.144531 17.359375 -5.96875 C 17.359375 -4.113281 16.617188 -2.632812 15.140625 -1.53125 C 13.660156 -0.425781 11.75 0.125 9.40625 0.125 C 7.789062 0.125 6.226562 -0.175781 4.71875 -0.78125 C 3.21875 -1.382812 1.90625 -2.195312 0.78125 -3.21875 L 2.3125 -6.296875 C 3.382812 -5.304688 4.554688 -4.546875 5.828125 -4.015625 C 7.097656 -3.484375 8.304688 -3.21875 9.453125 -3.21875 C 10.703125 -3.21875 11.671875 -3.441406 12.359375 -3.890625 C 13.054688 -4.347656 13.40625 -4.976562 13.40625 -5.78125 C 13.40625 -6.507812 13.125 -7.117188 12.5625 -7.609375 C 12 -8.097656 11.296875 -8.457031 10.453125 -8.6875 C 9.609375 -8.914062 8.691406 -9.195312 7.703125 -9.53125 C 6.722656 -9.863281 5.8125 -10.210938 4.96875 -10.578125 C 4.125 -10.953125 3.421875 -11.550781 2.859375 -12.375 C 2.296875 -13.195312 2.015625 -14.191406 2.015625 -15.359375 C 2.015625 -17.148438 2.71875 -18.578125 4.125 -19.640625 C 5.53125 -20.703125 7.390625 -21.234375 9.703125 -21.234375 Z M 9.703125 -21.234375 "/></g></g></g><g fill="#ffffff" fill-opacity="1"><g transform="translate(538.005046, 748.264586)"><g><path d="M 4.25 -18.109375 C 6.394531 -20.148438 9.046875 -21.171875 12.203125 -21.171875 C 15.359375 -21.171875 18.007812 -20.148438 20.15625 -18.109375 C 22.300781 -16.078125 23.375 -13.554688 23.375 -10.546875 C 23.375 -7.535156 22.300781 -5 20.15625 -2.9375 C 18.007812 -0.875 15.359375 0.15625 12.203125 0.15625 C 9.046875 0.15625 6.394531 -0.875 4.25 -2.9375 C 2.101562 -5 1.03125 -7.535156 1.03125 -10.546875 C 1.03125 -13.554688 2.101562 -16.078125 4.25 -18.109375 Z M 12.234375 -17.984375 C 10.140625 -17.984375 8.347656 -17.265625 6.859375 -15.828125 C 5.378906 -14.390625 4.640625 -12.625 4.640625 -10.53125 C 4.640625 -8.445312 5.382812 -6.675781 6.875 -5.21875 C 8.375 -3.769531 10.15625 -3.046875 12.21875 -3.046875 C 14.289062 -3.046875 16.0625 -3.769531 17.53125 -5.21875 C 19 -6.675781 19.734375 -8.445312 19.734375 -10.53125 C 19.734375 -12.625 19 -14.390625 17.53125 -15.828125 C 16.0625 -17.265625 14.296875 -17.984375 12.234375 -17.984375 Z M 12.234375 -17.984375 "/></g></g></g><g fill="#ffffff" fill-opacity="1"><g transform="translate(568.420652, 748.264586)"><g><path d="M 12.109375 -21.171875 C 13.597656 -21.171875 15.050781 -20.882812 16.46875 -20.3125 C 17.882812 -19.738281 19.101562 -18.941406 20.125 -17.921875 L 18.046875 -15.328125 C 17.285156 -16.148438 16.378906 -16.800781 15.328125 -17.28125 C 14.285156 -17.769531 13.234375 -18.015625 12.171875 -18.015625 C 10.054688 -18.015625 8.269531 -17.296875 6.8125 -15.859375 C 5.363281 -14.421875 4.640625 -12.671875 4.640625 -10.609375 C 4.640625 -8.515625 5.363281 -6.75 6.8125 -5.3125 C 8.269531 -3.875 10.054688 -3.15625 12.171875 -3.15625 C 14.359375 -3.15625 16.316406 -3.988281 18.046875 -5.65625 L 20.15625 -3.3125 C 19.070312 -2.25 17.804688 -1.40625 16.359375 -0.78125 C 14.910156 -0.15625 13.453125 0.15625 11.984375 0.15625 C 8.890625 0.15625 6.289062 -0.875 4.1875 -2.9375 C 2.082031 -5 1.03125 -7.546875 1.03125 -10.578125 C 1.03125 -13.566406 2.097656 -16.078125 4.234375 -18.109375 C 6.367188 -20.148438 8.992188 -21.171875 12.109375 -21.171875 Z M 12.109375 -21.171875 "/></g></g></g><g fill="#ffffff" fill-opacity="1"><g transform="translate(595.433834, 748.264586)"><g><path d="M 6.328125 0 L 2.765625 0 L 2.765625 -21.09375 L 6.328125 -21.09375 Z M 6.328125 0 "/></g></g></g><g fill="#ffffff" fill-opacity="1"><g transform="translate(610.553617, 748.264586)"><g><path d="M 17.828125 -17.890625 L 6.328125 -17.890625 L 6.328125 -12.203125 L 16.625 -12.203125 L 16.625 -9 L 6.328125 -9 L 6.328125 -3.1875 L 18.203125 -3.1875 L 18.203125 0 L 2.765625 0 L 2.765625 -21.09375 L 17.828125 -21.09375 Z M 17.828125 -17.890625 "/></g></g></g><g fill="#ffffff" fill-opacity="1"><g transform="translate(636.332296, 748.264586)"><g><path d="M 2.765625 -21.09375 L 11.421875 -21.09375 C 14.566406 -21.09375 17.171875 -20.097656 19.234375 -18.109375 C 21.296875 -16.117188 22.328125 -13.597656 22.328125 -10.546875 C 22.328125 -7.492188 21.289062 -4.972656 19.21875 -2.984375 C 17.144531 -0.992188 14.515625 0 11.328125 0 L 2.765625 0 Z M 6.328125 -17.890625 L 6.328125 -3.1875 L 11.5 -3.1875 C 13.570312 -3.1875 15.296875 -3.875 16.671875 -5.25 C 18.046875 -6.632812 18.734375 -8.390625 18.734375 -10.515625 C 18.734375 -12.640625 18.023438 -14.398438 16.609375 -15.796875 C 15.191406 -17.191406 13.441406 -17.890625 11.359375 -17.890625 Z M 6.328125 -17.890625 "/></g></g></g><g fill="#ffffff" fill-opacity="1"><g transform="translate(665.694055, 748.264586)"><g><path d="M 16.390625 -4.765625 L 5.75 -4.765625 L 3.734375 0 L 0.03125 0 L 9.34375 -21.09375 L 12.984375 -21.09375 L 22.203125 0 L 18.40625 0 Z M 15.03125 -7.921875 L 11.0625 -17.296875 L 7.078125 -7.921875 Z M 15.03125 -7.921875 "/></g></g></g><g fill="#ffffff" fill-opacity="1"><g transform="translate(693.941749, 748.264586)"><g><path d="M 2.765625 -21.09375 L 11.421875 -21.09375 C 14.566406 -21.09375 17.171875 -20.097656 19.234375 -18.109375 C 21.296875 -16.117188 22.328125 -13.597656 22.328125 -10.546875 C 22.328125 -7.492188 21.289062 -4.972656 19.21875 -2.984375 C 17.144531 -0.992188 14.515625 0 11.328125 0 L 2.765625 0 Z M 6.328125 -17.890625 L 6.328125 -3.1875 L 11.5 -3.1875 C 13.570312 -3.1875 15.296875 -3.875 16.671875 -5.25 C 18.046875 -6.632812 18.734375 -8.390625 18.734375 -10.515625 C 18.734375 -12.640625 18.023438 -14.398438 16.609375 -15.796875 C 15.191406 -17.191406 13.441406 -17.890625 11.359375 -17.890625 Z M 6.328125 -17.890625 "/></g></g></g><g fill="#ffffff" fill-opacity="1"><g transform="translate(723.303508, 748.264586)"><g/></g></g><g fill="#ffffff" fill-opacity="1"><g transform="translate(737.098462, 748.264586)"><g><path d="M 16.390625 -4.765625 L 5.75 -4.765625 L 3.734375 0 L 0.03125 0 L 9.34375 -21.09375 L 12.984375 -21.09375 L 22.203125 0 L 18.40625 0 Z M 15.03125 -7.921875 L 11.0625 -17.296875 L 7.078125 -7.921875 Z M 15.03125 -7.921875 "/></g></g></g><g fill="#ffffff" fill-opacity="1"><g transform="translate(765.346157, 748.264586)"><g><path d="M 21.0625 0 L 17.5625 0 L 6.328125 -15.125 L 6.328125 0 L 2.765625 0 L 2.765625 -21.09375 L 6.265625 -21.09375 L 17.5625 -5.9375 L 17.5625 -21.09375 L 21.0625 -21.09375 Z M 21.0625 0 "/></g></g></g><g fill="#ffffff" fill-opacity="1"><g transform="translate(795.219784, 748.264586)"><g><path d="M 4.25 -18.109375 C 6.394531 -20.148438 9.046875 -21.171875 12.203125 -21.171875 C 15.359375 -21.171875 18.007812 -20.148438 20.15625 -18.109375 C 22.300781 -16.078125 23.375 -13.554688 23.375 -10.546875 C 23.375 -7.535156 22.300781 -5 20.15625 -2.9375 C 18.007812 -0.875 15.359375 0.15625 12.203125 0.15625 C 9.046875 0.15625 6.394531 -0.875 4.25 -2.9375 C 2.101562 -5 1.03125 -7.535156 1.03125 -10.546875 C 1.03125 -13.554688 2.101562 -16.078125 4.25 -18.109375 Z M 12.234375 -17.984375 C 10.140625 -17.984375 8.347656 -17.265625 6.859375 -15.828125 C 5.378906 -14.390625 4.640625 -12.625 4.640625 -10.53125 C 4.640625 -8.445312 5.382812 -6.675781 6.875 -5.21875 C 8.375 -3.769531 10.15625 -3.046875 12.21875 -3.046875 C 14.289062 -3.046875 16.0625 -3.769531 17.53125 -5.21875 C 19 -6.675781 19.734375 -8.445312 19.734375 -10.53125 C 19.734375 -12.625 19 -14.390625 17.53125 -15.828125 C 16.0625 -17.265625 14.296875 -17.984375 12.234375 -17.984375 Z M 12.234375 -17.984375 "/></g></g></g><g fill="#ffffff" fill-opacity="1"><g transform="translate(825.635397, 748.264586)"><g><path d="M 21.0625 0 L 17.5625 0 L 6.328125 -15.125 L 6.328125 0 L 2.765625 0 L 2.765625 -21.09375 L 6.265625 -21.09375 L 17.5625 -5.9375 L 17.5625 -21.09375 L 21.0625 -21.09375 Z M 21.0625 0 "/></g></g></g><g fill="#ffffff" fill-opacity="1"><g transform="translate(855.509024, 748.264586)"><g><path d="M 6.328125 0 L 2.765625 0 L 2.765625 -21.09375 L 6.328125 -21.09375 Z M 6.328125 0 "/></g></g></g><g fill="#ffffff" fill-opacity="1"><g transform="translate(870.628814, 748.264586)"><g><path d="M 25.0625 0 L 21.78125 0 L 21.75 -15.75 L 15.09375 -2.203125 L 12.765625 -2.203125 L 6.109375 -15.75 L 6.109375 0 L 2.765625 0 L 2.765625 -21.09375 L 6.984375 -21.09375 L 13.953125 -7.078125 L 20.875 -21.09375 L 25.0625 -21.09375 Z M 25.0625 0 "/></g></g></g><g fill="#ffffff" fill-opacity="1"><g transform="translate(904.507016, 748.264586)"><g><path d="M 16.390625 -4.765625 L 5.75 -4.765625 L 3.734375 0 L 0.03125 0 L 9.34375 -21.09375 L 12.984375 -21.09375 L 22.203125 0 L 18.40625 0 Z M 15.03125 -7.921875 L 11.0625 -17.296875 L 7.078125 -7.921875 Z M 15.03125 -7.921875 "/></g></g></g></svg>