<svg xmlns="http://www.w3.org/2000/svg" xmlns:xlink="http://www.w3.org/1999/xlink" width="1920" zoomAndPan="magnify" viewBox="0 0 1440 809.999993" height="1080" preserveAspectRatio="xMidYMid meet" version="1.0"><defs><g/><clipPath id="d26ccd2346"><path d="M 640.269531 378 L 731.019531 378 L 731.019531 461.011719 L 640.269531 461.011719 Z M 640.269531 378 " clip-rule="nonzero"/></clipPath><clipPath id="bf5a02df78"><path d="M 655 366.511719 L 716 366.511719 L 716 446 L 655 446 Z M 655 366.511719 " clip-rule="nonzero"/></clipPath></defs><rect x="-144" width="1728" fill="#ffffff" y="-80.999999" height="971.999992" fill-opacity="1"/><rect x="-144" width="1728" fill="#1b1b1b" y="-80.999999" height="971.999992" fill-opacity="1"/><path stroke-linecap="round" transform="matrix(0.52776, 0, 0, 0.527778, 710.71521, 350.922864)" fill-opacity="1" fill="#ffffff" fill-rule="nonzero" stroke-linejoin="round" d="M 186.452073 44.339413 C 186.452073 44.339413 186.452073 -44.335759 186.452073 -44.335759 C 186.452073 -44.335759 139.385536 -44.335759 139.385536 -44.335759 C 136.869004 -52.26997 133.686332 -59.91553 129.904134 -67.198425 C 129.904134 -67.198425 163.203765 -100.496948 163.203765 -100.496948 C 163.203765 -100.496948 100.505126 -163.193499 100.505126 -163.193499 C 100.505126 -163.193499 67.205495 -129.894977 67.205495 -129.894977 C 59.922357 -133.691852 52.276543 -136.874418 44.327265 -139.390866 C 44.327265 -139.390866 44.327265 -186.463238 44.327265 -186.463238 C 44.327265 -186.463238 -44.328654 -186.463238 -44.328654 -186.463238 C -44.328654 -186.463238 -44.328654 -139.390866 -44.328654 -139.390866 C -52.277933 -136.874418 -59.923747 -133.691852 -67.206885 -129.894977 C -67.206885 -129.894977 -100.506516 -163.193499 -100.506516 -163.193499 C -100.506516 -163.193499 -163.197753 -100.496948 -163.197753 -100.496948 C -163.197753 -100.496948 -129.905523 -67.198425 -129.905523 -67.198425 C -133.68032 -59.91553 -136.862992 -52.26997 -139.386925 -44.335759 C -139.386925 -44.335759 -186.453463 -44.335759 -186.453463 -44.335759 C -186.453463 -44.335759 -186.453463 44.339413 -186.453463 44.339413 C -186.453463 44.339413 -139.386925 44.339413 -139.386925 44.339413 C -136.862992 52.273624 -133.702525 59.911783 -129.905523 67.202079 C -129.905523 67.202079 -163.197753 100.500602 -163.197753 100.500602 C -163.197753 100.500602 -100.506516 163.189752 -100.506516 163.189752 C -100.506516 163.189752 -67.206885 129.898631 -67.206885 129.898631 C -59.923747 133.695506 -52.277933 136.878072 -44.328654 139.394519 C -44.328654 139.394519 -44.328654 186.466892 -44.328654 186.466892 C -44.328654 186.466892 44.327265 186.466892 44.327265 186.466892 C 44.327265 186.466892 44.327265 139.394519 44.327265 139.394519 C 52.276543 136.878072 59.922357 133.695506 67.205495 129.898631 C 67.205495 129.898631 100.505126 163.189752 100.505126 163.189752 C 100.505126 163.189752 163.203765 100.500602 163.203765 100.500602 C 163.203765 100.500602 129.904134 67.202079 129.904134 67.202079 C 133.701135 59.911783 136.869004 52.273624 139.385536 44.339413 C 139.385536 44.339413 186.452073 44.339413 186.452073 44.339413 Z M 66.206284 3.498949 C 65.384711 19.174937 59.122989 33.392866 49.27891 44.339413 C 47.71718 46.071321 46.066632 47.721814 44.327265 49.290894 C 33.380353 59.127243 19.15455 65.373954 3.492843 66.1955 C 2.330797 66.247309 1.176154 66.276915 -0.000694856 66.276915 C -1.177543 66.276915 -2.332187 66.247309 -3.486831 66.1955 C -19.148538 65.373954 -33.381743 59.127243 -44.328654 49.290894 C -46.06062 47.721814 -47.71857 46.071321 -49.2803 44.339413 C -59.124378 33.392866 -65.3861 19.174937 -66.200272 3.498949 C -66.252083 2.344344 -66.289091 1.182337 -66.289091 0.00552752 C -66.289091 -1.16388 -66.252083 -2.325887 -66.200272 -3.495295 C -65.3861 -19.178685 -59.124378 -33.389212 -49.2803 -44.335759 C -47.71857 -46.075068 -46.06062 -47.725562 -44.328654 -49.28724 C -33.381743 -59.130991 -19.148538 -65.377702 -3.486831 -66.191846 C -2.332187 -66.243656 -1.177543 -66.280662 -0.000694856 -66.280662 C 1.176154 -66.280662 2.330797 -66.243656 3.492843 -66.191846 C 19.15455 -65.377702 33.380353 -59.130991 44.327265 -49.28724 C 46.066632 -47.725562 47.71718 -46.075068 49.27891 -44.335759 C 59.122989 -33.389212 65.384711 -19.178685 66.206284 -3.495295 C 66.258095 -2.325887 66.287701 -1.16388 66.287701 0.00552752 C 66.287701 1.182337 66.258095 2.344344 66.206284 3.498949 Z M 66.206284 3.498949 " stroke="#253237" stroke-width="2" stroke-opacity="1" stroke-miterlimit="4"/><path stroke-linecap="round" transform="matrix(0.52776, 0, 0, 0.527778, 476.612454, 259.886462)" fill-opacity="1" fill="#ffffff" fill-rule="nonzero" stroke-linejoin="round" d="M 186.454335 44.334372 C 186.454335 44.334372 186.454335 -44.333399 186.454335 -44.333399 C 186.454335 -44.333399 139.387797 -44.333399 139.387797 -44.333399 C 136.863864 -52.26761 133.681192 -59.91317 129.906395 -67.196065 C 129.906395 -67.196065 163.198625 -100.494588 163.198625 -100.494588 C 163.198625 -100.494588 100.507388 -163.191139 100.507388 -163.191139 C 100.507388 -163.191139 67.207757 -129.892617 67.207757 -129.892617 C 59.924619 -133.689492 52.278805 -136.872058 44.329527 -139.395907 C 44.329527 -139.395907 44.329527 -186.460878 44.329527 -186.460878 C 44.329527 -186.460878 -44.326393 -186.460878 -44.326393 -186.460878 C -44.326393 -186.460878 -44.326393 -139.395907 -44.326393 -139.395907 C -52.275671 -136.872058 -59.921485 -133.689492 -67.204623 -129.892617 C -67.204623 -129.892617 -100.504254 -163.191139 -100.504254 -163.191139 C -100.504254 -163.191139 -163.202892 -100.494588 -163.202892 -100.494588 C -163.202892 -100.494588 -129.903261 -67.196065 -129.903261 -67.196065 C -133.68546 -59.91317 -136.868132 -52.26761 -139.384663 -44.333399 C -139.384663 -44.333399 -186.451201 -44.333399 -186.451201 -44.333399 C -186.451201 -44.333399 -186.451201 44.334372 -186.451201 44.334372 C -186.451201 44.334372 -139.384663 44.334372 -139.384663 44.334372 C -136.868132 52.268583 -133.700263 59.914143 -129.903261 67.197038 C -129.903261 67.197038 -163.202892 100.49556 -163.202892 100.49556 C -163.202892 100.49556 -100.504254 163.192112 -100.504254 163.192112 C -100.504254 163.192112 -67.204623 129.893589 -67.204623 129.893589 C -59.921485 133.690465 -52.275671 136.873031 -44.326393 139.389478 C -44.326393 139.389478 -44.326393 186.461851 -44.326393 186.461851 C -44.326393 186.461851 44.329527 186.461851 44.329527 186.461851 C 44.329527 186.461851 44.329527 139.389478 44.329527 139.389478 C 52.278805 136.873031 59.924619 133.690465 67.207757 129.893589 C 67.207757 129.893589 100.507388 163.192112 100.507388 163.192112 C 100.507388 163.192112 163.198625 100.49556 163.198625 100.49556 C 163.198625 100.49556 129.906395 67.197038 129.906395 67.197038 C 133.703397 59.914143 136.863864 52.268583 139.387797 44.334372 C 139.387797 44.334372 186.454335 44.334372 186.454335 44.334372 Z M 66.201145 3.493908 C 65.386973 19.177297 59.125251 33.387825 49.281172 44.334372 C 47.719442 46.073681 46.061492 47.724174 44.329527 49.293254 C 33.382615 59.129603 19.14941 65.376314 3.487703 66.190459 C 2.333059 66.249669 1.178415 66.279275 0.00156701 66.279275 C -1.175281 66.279275 -2.329925 66.249669 -3.491971 66.190459 C -19.153677 65.376314 -33.379481 59.129603 -44.326393 49.293254 C -46.06576 47.724174 -47.716308 46.073681 -49.278038 44.334372 C -59.122117 33.387825 -65.383839 19.177297 -66.205412 3.493908 C -66.249821 2.339302 -66.286829 1.184697 -66.286829 0.00788755 C -66.286829 -1.168922 -66.249821 -2.323527 -66.205412 -3.500336 C -65.383839 -19.176325 -59.122117 -33.394253 -49.278038 -44.333399 C -47.716308 -46.072708 -46.06576 -47.723202 -44.326393 -49.292281 C -33.379481 -59.128631 -19.153677 -65.375342 -3.491971 -66.196888 C -2.329925 -66.248697 -1.175281 -66.278302 0.00156701 -66.278302 C 1.178415 -66.278302 2.333059 -66.248697 3.487703 -66.196888 C 19.14941 -65.375342 33.382615 -59.128631 44.329527 -49.292281 C 46.061492 -47.723202 47.719442 -46.072708 49.281172 -44.333399 C 59.125251 -33.394253 65.386973 -19.176325 66.201145 -3.500336 C 66.252955 -2.323527 66.289963 -1.168922 66.289963 0.00788755 C 66.289963 1.184697 66.252955 2.339302 66.201145 3.493908 Z M 66.201145 3.493908 " stroke="#253237" stroke-width="2" stroke-opacity="1" stroke-miterlimit="4"/><path stroke-linecap="butt" transform="matrix(0.52776, 0, 0, 0.527778, 678.8675, 142.063782)" fill-opacity="1" fill="#253237" fill-rule="nonzero" stroke-linejoin="miter" d="M 69.174414 63.959748 C 69.174414 63.959748 -69.175598 63.959748 -69.175598 63.959748 C -78.619992 63.959748 -86.28061 56.299386 -86.28061 46.855306 C -86.28061 46.855306 -86.28061 -46.852761 -86.28061 -46.852761 C -86.28061 -56.304242 -78.619992 -63.964605 -69.175598 -63.964605 C -69.175598 -63.964605 69.174414 -63.964605 69.174414 -63.964605 C 78.626209 -63.964605 86.279425 -56.304242 86.279425 -46.852761 C 86.279425 -46.852761 86.279425 46.855306 86.279425 46.855306 C 86.279425 56.299386 78.626209 63.959748 69.174414 63.959748 Z M 69.174414 63.959748 " stroke="#253237" stroke-width="2" stroke-opacity="1" stroke-miterlimit="10"/><path stroke-linecap="butt" transform="matrix(0.52776, 0, 0, 0.527778, 671.981348, 135.177332)" fill-opacity="1" fill="#ffffff" fill-rule="nonzero" stroke-linejoin="miter" d="M 69.173339 63.959237 C 69.173339 63.959237 -69.176673 63.959237 -69.176673 63.959237 C -78.621067 63.959237 -86.281684 56.306276 -86.281684 46.854795 C -86.281684 46.854795 -86.281684 -46.853272 -86.281684 -46.853272 C -86.281684 -56.304753 -78.621067 -63.965115 -69.176673 -63.965115 C -69.176673 -63.965115 69.173339 -63.965115 69.173339 -63.965115 C 78.625135 -63.965115 86.278351 -56.304753 86.278351 -46.853272 C 86.278351 -46.853272 86.278351 46.854795 86.278351 46.854795 C 86.278351 56.306276 78.625135 63.959237 69.173339 63.959237 Z M 69.173339 63.959237 " stroke="#253237" stroke-width="2" stroke-opacity="1" stroke-miterlimit="10"/><path stroke-linecap="round" transform="matrix(0.52776, 0, 0, 0.527778, 671.981804, 135.177332)" fill="none" stroke-linejoin="round" d="M 52.829824 36.019268 C 52.829824 36.019268 -53.922916 33.983906 -53.922916 33.983906 C -53.922916 33.983906 -52.827484 -36.017745 -52.827484 -36.017745 C -52.827484 -36.017745 53.925256 -33.982383 53.925256 -33.982383 C 53.925256 -33.982383 52.829824 36.019268 52.829824 36.019268 Z M 52.829824 36.019268 " stroke="#253237" stroke-width="2" stroke-opacity="1" stroke-miterlimit="4"/><path stroke-linecap="round" transform="matrix(0.52776, 0, 0, 0.527778, 672.269972, 125.672577)" fill="none" stroke-linejoin="round" d="M -53.373505 -18.008733 C -53.373505 -18.008733 -0.548552 18.006073 -0.548552 18.006073 C -0.548552 18.006073 53.371833 -15.973371 53.371833 -15.973371 " stroke="#253237" stroke-width="2" stroke-opacity="1" stroke-miterlimit="4"/><path stroke-linecap="round" transform="matrix(0.52776, 0, 0, 0.527778, 654.742533, 142.093328)" fill="none" stroke-linejoin="round" d="M -21.257944 20.879913 C -21.257944 20.879913 21.256633 -20.878314 21.256633 -20.878314 " stroke="#253237" stroke-width="2" stroke-opacity="1" stroke-miterlimit="4"/><path stroke-linecap="round" transform="matrix(0.52776, 0, 0, 0.527778, 688.994156, 142.745667)" fill="none" stroke-linejoin="round" d="M 20.59482 21.679264 C 20.59482 21.679264 -20.594877 -21.677648 -20.594877 -21.677648 " stroke="#253237" stroke-width="2" stroke-opacity="1" stroke-miterlimit="4"/><path stroke-linecap="butt" transform="matrix(0.52776, 0, 0, 0.527778, 833.492316, 198.656055)" fill-opacity="1" fill="#253237" fill-rule="nonzero" stroke-linejoin="miter" d="M 69.174762 63.962546 C 69.174762 63.962546 -69.17525 63.962546 -69.17525 63.962546 C -78.619644 63.962546 -86.280261 56.302184 -86.280261 46.858104 C -86.280261 46.858104 -86.280261 -46.857364 -86.280261 -46.857364 C -86.280261 -56.301444 -78.619644 -63.961807 -69.17525 -63.961807 C -69.17525 -63.961807 69.174762 -63.961807 69.174762 -63.961807 C 78.626557 -63.961807 86.279773 -56.301444 86.279773 -46.857364 C 86.279773 -46.857364 86.279773 46.858104 86.279773 46.858104 C 86.279773 56.302184 78.626557 63.962546 69.174762 63.962546 Z M 69.174762 63.962546 " stroke="#253237" stroke-width="2" stroke-opacity="1" stroke-miterlimit="10"/><path stroke-linecap="butt" transform="matrix(0.52776, 0, 0, 0.527778, 826.606069, 192.45836)" fill-opacity="1" fill="#ffffff" fill-rule="nonzero" stroke-linejoin="miter" d="M 69.173869 63.959659 C 69.173869 63.959659 -69.176142 63.959659 -69.176142 63.959659 C -78.620537 63.959659 -86.281154 56.306698 -86.281154 46.855217 C -86.281154 46.855217 -86.281154 -46.85285 -86.281154 -46.85285 C -86.281154 -56.304331 -78.620537 -63.964694 -69.176142 -63.964694 C -69.176142 -63.964694 69.173869 -63.964694 69.173869 -63.964694 C 78.625665 -63.964694 86.278881 -56.304331 86.278881 -46.85285 C 86.278881 -46.85285 86.278881 46.855217 86.278881 46.855217 C 86.278881 56.306698 78.625665 63.959659 69.173869 63.959659 Z M 69.173869 63.959659 " stroke="#253237" stroke-width="2" stroke-opacity="1" stroke-miterlimit="10"/><path fill="#253237" d="M 845.953125 197.292969 C 845.953125 197.292969 816.449219 197.292969 816.449219 197.292969 C 816.027344 197.292969 815.6875 196.957031 815.6875 196.542969 C 815.6875 196.125 816.027344 195.789062 816.449219 195.789062 C 816.449219 195.789062 845.316406 195.789062 845.316406 195.789062 C 845.316406 195.789062 848.570312 177.570312 848.570312 177.570312 C 848.570312 177.570312 813.667969 177.570312 813.667969 177.570312 C 813.246094 177.570312 812.90625 177.234375 812.90625 176.820312 C 812.90625 176.402344 813.246094 176.066406 813.667969 176.066406 C 813.667969 176.066406 849.476562 176.066406 849.476562 176.066406 C 849.703125 176.066406 849.917969 176.164062 850.0625 176.335938 C 850.207031 176.503906 850.265625 176.730469 850.226562 176.949219 C 850.226562 176.949219 846.703125 196.671875 846.703125 196.671875 C 846.640625 197.03125 846.324219 197.292969 845.953125 197.292969 Z M 845.953125 197.292969 " fill-opacity="1" fill-rule="nonzero"/><path fill="#253237" d="M 844.976562 204.195312 C 844.976562 204.195312 816.871094 204.097656 816.871094 204.097656 C 816.492188 204.097656 816.171875 203.816406 816.121094 203.441406 C 816.121094 203.441406 812.089844 172.320312 812.089844 172.320312 C 812.089844 172.320312 803.734375 172.320312 803.734375 172.320312 C 803.3125 172.320312 802.972656 171.984375 802.972656 171.570312 C 802.972656 171.152344 803.3125 170.816406 803.734375 170.816406 C 803.734375 170.816406 812.757812 170.816406 812.757812 170.816406 C 813.140625 170.816406 813.464844 171.097656 813.511719 171.472656 C 813.511719 171.472656 817.546875 202.59375 817.546875 202.59375 C 817.546875 202.59375 844.980469 202.6875 844.980469 202.6875 C 845.402344 202.6875 845.738281 203.027344 845.738281 203.441406 C 845.738281 203.859375 845.394531 204.195312 844.976562 204.195312 Z M 844.976562 204.195312 " fill-opacity="1" fill-rule="nonzero"/><path fill="#253237" d="M 821.460938 214.101562 C 819.113281 214.101562 817.199219 212.207031 817.199219 209.882812 C 817.199219 207.554688 819.113281 205.664062 821.460938 205.664062 C 823.808594 205.664062 825.71875 207.554688 825.71875 209.882812 C 825.71875 212.207031 823.808594 214.101562 821.460938 214.101562 Z M 821.460938 207.167969 C 819.949219 207.167969 818.722656 208.386719 818.722656 209.882812 C 818.722656 211.378906 819.949219 212.59375 821.460938 212.59375 C 822.96875 212.59375 824.199219 211.378906 824.199219 209.882812 C 824.199219 208.386719 822.96875 207.167969 821.460938 207.167969 Z M 821.460938 207.167969 " fill-opacity="1" fill-rule="nonzero"/><path fill="#253237" d="M 840.855469 214.101562 C 838.507812 214.101562 836.597656 212.207031 836.597656 209.882812 C 836.597656 207.554688 838.507812 205.664062 840.855469 205.664062 C 843.203125 205.664062 845.117188 207.554688 845.117188 209.882812 C 845.117188 212.207031 843.203125 214.101562 840.855469 214.101562 Z M 840.855469 207.167969 C 839.347656 207.167969 838.117188 208.386719 838.117188 209.882812 C 838.117188 211.378906 839.347656 212.59375 840.855469 212.59375 C 842.367188 212.59375 843.59375 211.378906 843.59375 209.882812 C 843.59375 208.386719 842.367188 207.167969 840.855469 207.167969 Z M 840.855469 207.167969 " fill-opacity="1" fill-rule="nonzero"/><path fill="#253237" d="M 825.558594 197.292969 C 825.160156 197.292969 824.824219 196.988281 824.800781 196.589844 C 824.800781 196.589844 823.601562 177.503906 823.601562 177.503906 C 823.574219 177.085938 823.890625 176.730469 824.3125 176.703125 C 824.765625 176.6875 825.089844 176.996094 825.117188 177.410156 C 825.117188 177.410156 826.316406 196.492188 826.316406 196.492188 C 826.34375 196.910156 826.023438 197.265625 825.605469 197.292969 C 825.589844 197.292969 825.574219 197.292969 825.558594 197.292969 Z M 825.558594 197.292969 " fill-opacity="1" fill-rule="nonzero"/><path fill="#253237" d="M 836.347656 197.292969 C 836.332031 197.292969 836.320312 197.292969 836.304688 197.292969 C 835.886719 197.269531 835.5625 196.914062 835.589844 196.5 C 835.589844 196.5 836.664062 177.414062 836.664062 177.414062 C 836.6875 177 837.011719 176.6875 837.46875 176.703125 C 837.886719 176.726562 838.207031 177.082031 838.183594 177.496094 C 838.183594 177.496094 837.105469 196.582031 837.105469 196.582031 C 837.082031 196.984375 836.75 197.292969 836.347656 197.292969 Z M 836.347656 197.292969 " fill-opacity="1" fill-rule="nonzero"/><path fill="#253237" d="M 814.757812 187.75 C 814.339844 187.75 814.003906 187.417969 813.996094 187.007812 C 813.992188 186.589844 814.332031 186.25 814.75 186.246094 C 814.75 186.246094 847.707031 185.925781 847.707031 185.925781 C 848.191406 185.917969 848.472656 186.257812 848.476562 186.671875 C 848.480469 187.089844 848.144531 187.429688 847.722656 187.433594 C 847.722656 187.433594 814.765625 187.75 814.765625 187.75 C 814.765625 187.75 814.757812 187.75 814.757812 187.75 Z M 814.757812 187.75 " fill-opacity="1" fill-rule="nonzero"/><path stroke-linecap="butt" transform="matrix(0.52776, 0, 0, 0.527778, 942.732271, 314.415619)" fill-opacity="1" fill="#253237" fill-rule="nonzero" stroke-linejoin="miter" d="M 69.178993 63.959228 C 69.178993 63.959228 -69.17842 63.959228 -69.17842 63.959228 C -78.622814 63.959228 -86.283432 56.306267 -86.283432 46.854786 C -86.283432 46.854786 -86.283432 -46.853281 -86.283432 -46.853281 C -86.283432 -56.304762 -78.622814 -63.965125 -69.17842 -63.965125 C -69.17842 -63.965125 69.178993 -63.965125 69.178993 -63.965125 C 78.623387 -63.965125 86.284004 -56.304762 86.284004 -46.853281 C 86.284004 -46.853281 86.284004 46.854786 86.284004 46.854786 C 86.284004 56.306267 78.623387 63.959228 69.178993 63.959228 Z M 69.178993 63.959228 " stroke="#253237" stroke-width="2" stroke-opacity="1" stroke-miterlimit="10"/><path stroke-linecap="butt" transform="matrix(0.52776, 0, 0, 0.527778, 935.846095, 307.529184)" fill-opacity="1" fill="#ffffff" fill-rule="nonzero" stroke-linejoin="miter" d="M 69.177964 63.95869 C 69.177964 63.95869 -69.172048 63.95869 -69.172048 63.95869 C -78.623843 63.95869 -86.284461 56.305729 -86.284461 46.854248 C -86.284461 46.854248 -86.284461 -46.853819 -86.284461 -46.853819 C -86.284461 -56.3053 -78.623843 -63.965663 -69.172048 -63.965663 C -69.172048 -63.965663 69.177964 -63.965663 69.177964 -63.965663 C 78.622358 -63.965663 86.282975 -56.3053 86.282975 -46.853819 C 86.282975 -46.853819 86.282975 46.854248 86.282975 46.854248 C 86.282975 56.305729 78.622358 63.95869 69.177964 63.95869 Z M 69.177964 63.95869 " stroke="#253237" stroke-width="2" stroke-opacity="1" stroke-miterlimit="10"/><path stroke-linecap="round" transform="matrix(0.52776, 0, 0, 0.527778, 935.846095, 307.529184)" fill="none" stroke-linejoin="round" d="M 41.31108 -0.00348628 C 41.31108 22.814772 22.814574 41.310662 0.00295799 41.310662 C -22.81606 41.310662 -41.312565 22.814772 -41.312565 -0.00348628 C -41.312565 -22.814343 -22.81606 -41.310233 0.00295799 -41.310233 C 22.814574 -41.310233 41.31108 -22.814343 41.31108 -0.00348628 Z M 41.31108 -0.00348628 " stroke="#253237" stroke-width="2" stroke-opacity="1" stroke-miterlimit="4"/><path stroke-linecap="round" transform="matrix(0.52776, 0, 0, 0.527778, 935.783287, 307.529184)" fill="none" stroke-linejoin="round" d="M 0.447635 -41.310233 C 29.31373 -41.310233 29.31373 41.310662 0.447635 41.310662 C -29.314049 41.310662 -29.314049 -41.310233 0.447635 -41.310233 Z M 0.447635 -41.310233 " stroke="#253237" stroke-width="2" stroke-opacity="1" stroke-miterlimit="4"/><path stroke-linecap="round" transform="matrix(0.52776, 0, 0, 0.527778, 887.671138, 271.132564)" fill="none" stroke-linejoin="round" d="M 91.61054 27.651789 C 91.61054 27.651789 91.61054 110.272684 91.61054 110.272684 " stroke="#253237" stroke-width="2" stroke-opacity="1" stroke-miterlimit="4"/><path stroke-linecap="round" transform="matrix(0.52776, 0, 0, 0.527778, 887.671138, 271.132564)" fill="none" stroke-linejoin="round" d="M 49.976749 68.958536 C 49.976749 68.958536 132.592993 68.958536 132.592993 68.958536 " stroke="#253237" stroke-width="2" stroke-opacity="1" stroke-miterlimit="4"/><path stroke-linecap="round" transform="matrix(0.52776, 0, 0, 0.527778, 535.591203, 468.942428)" fill-opacity="1" fill="#80cc28" fill-rule="nonzero" stroke-linejoin="round" d="M 214.790776 -41.012631 C 214.790776 -41.012631 208.010944 176.697091 208.010944 176.697091 C 208.010944 176.697091 206.360396 220.727523 206.360396 220.727523 C 206.360396 220.727523 206.338191 221.534266 206.338191 221.534266 C 206.338191 221.534266 206.160554 220.727523 206.160554 220.727523 C 206.160554 220.727523 -158.773499 196.76206 -158.773499 196.76206 C -158.773499 196.76206 -175.397409 176.697091 -175.397409 176.697091 C -175.397409 176.697091 -205.536573 -64.141745 -205.536573 -64.141745 C -216.031989 -147.961653 -145.539505 -221.53814 -54.751936 -221.53814 C -54.751936 -221.53814 26.087933 -221.53814 26.087933 -221.53814 C 89.608145 -221.53814 145.630573 -192.421361 179.818392 -147.932048 C 202.896465 -117.904907 216.026837 -80.853917 214.790776 -41.012631 Z M 214.790776 -41.012631 " stroke="#253237" stroke-width="2" stroke-opacity="1" stroke-miterlimit="4"/><path stroke-linecap="round" transform="matrix(0.52776, 0, 0, 0.527778, 646.362814, 483.086852)" fill-opacity="1" fill="#d4d4d4" fill-rule="nonzero" stroke-linejoin="round" d="M 61.197007 193.92756 C 61.197007 193.92756 -3.52966 193.92756 -3.52966 193.92756 C -3.52966 193.92756 -3.551864 194.734304 -3.551864 194.734304 C -3.551864 194.734304 -3.729502 193.92756 -3.729502 193.92756 C -3.729502 193.92756 -14.942869 149.897129 -14.942869 149.897129 C -14.942869 149.897129 -59.27823 -59.75256 -59.27823 -59.75256 C -61.202637 -101.555195 -49.981868 -147.74681 -30.071664 -174.73201 C -23.269627 -183.95405 -15.460979 -190.933492 -6.808552 -194.737768 C 13.190471 -134.764901 33.55217 1.323103 53.973082 149.897129 C 56.37859 167.423446 58.791499 176.134796 61.197007 193.92756 Z M 61.197007 193.92756 " stroke="#253237" stroke-width="2" stroke-opacity="1" stroke-miterlimit="4"/><path stroke-linecap="round" transform="matrix(0.52776, 0, 0, 0.527778, 558.318674, 465.799485)" fill-opacity="1" fill="#d4d4d4" fill-rule="nonzero" stroke-linejoin="round" d="M 161.209142 -162.027162 C 130.344625 -179.398052 100.212863 -194.393119 71.531807 -204.680948 C 71.531807 -204.680948 -61.474276 -210.357758 -61.474276 -210.357758 C -96.128393 -195.629139 -129.664874 -178.073216 -161.210335 -155.425188 C -161.210335 -155.425188 -79.497081 201.947375 -79.497081 201.947375 C 9.9286 210.355271 81.190847 208.371718 125.58542 191.015631 C 125.58542 191.015631 161.209142 -162.027162 161.209142 -162.027162 Z M 161.209142 -162.027162 " stroke="#253237" stroke-width="2" stroke-opacity="1" stroke-miterlimit="4"/><path stroke-linecap="butt" transform="matrix(0.52776, 0, 0, 0.527778, 557.664242, 347.809486)" fill-opacity="1" fill="#ffffff" fill-rule="nonzero" stroke-linejoin="miter" d="M -46.430344 -66.872584 C -46.430344 -66.872584 -39.78374 -5.463862 -39.78374 -5.463862 C -39.78374 -5.463862 24.306392 66.869204 24.306392 66.869204 C 24.306392 66.869204 46.429663 21.395516 46.429663 21.395516 C 46.429663 21.395516 44.135178 -38.000048 44.135178 -38.000048 C 44.135178 -38.000048 -46.430344 -66.872584 -46.430344 -66.872584 Z M -46.430344 -66.872584 " stroke="#253237" stroke-width="2" stroke-opacity="1" stroke-miterlimit="10"/><path stroke-linecap="round" transform="matrix(0.52776, 0, 0, 0.527778, 543.557787, 363.417482)" fill-opacity="1" fill="#d4d4d4" fill-rule="nonzero" stroke-linejoin="round" d="M 51.035304 37.296156 C 51.035304 37.296156 18.705278 20.968852 18.705278 20.968852 C 18.705278 20.968852 1.977746 46.858657 1.977746 46.858657 C 1.977746 46.858657 -51.032247 -18.694802 -51.032247 -18.694802 C -51.032247 -18.694802 -27.162207 -46.360923 -27.162207 -46.360923 C -27.162207 -46.360923 -14.335298 -46.856811 -14.335298 -46.856811 C -14.335298 -46.856811 -13.054828 -35.036909 -13.054828 -35.036909 C -13.054828 -35.036909 51.035304 37.296156 51.035304 37.296156 Z M 51.035304 37.296156 " stroke="#253237" stroke-width="2" stroke-opacity="1" stroke-miterlimit="4"/><path stroke-linecap="round" transform="matrix(0.52776, 0, 0, 0.527778, 583.280137, 367.739973)" fill-opacity="1" fill="#d4d4d4" fill-rule="nonzero" stroke-linejoin="round" d="M -24.230607 29.106173 C -24.230607 29.106173 -2.773477 14.30354 -2.773477 14.30354 C -2.773477 14.30354 22.525065 37.965548 22.525065 37.965548 C 22.525065 37.965548 24.234826 -18.883963 24.234826 -18.883963 C 24.234826 -18.883963 -2.943713 -37.964557 -2.943713 -37.964557 C -2.943713 -37.964557 -2.107336 -16.367515 -2.107336 -16.367515 C -2.107336 -16.367515 -24.230607 29.106173 -24.230607 29.106173 Z M -24.230607 29.106173 " stroke="#253237" stroke-width="2" stroke-opacity="1" stroke-miterlimit="4"/><path stroke-linecap="round" transform="matrix(0.52776, 0, 0, 0.527778, 568.210514, 387.926952)" fill-opacity="1" fill="#80cc28" fill-rule="nonzero" stroke-linejoin="round" d="M 20.525337 -20.318833 C 23.034467 -3.71768 21.753996 10.389229 16.565501 21.935283 C 16.565501 21.935283 -9.983905 22.956664 -9.983905 22.956664 C -18.103419 11.484624 -21.537745 -4.753864 -23.03286 -22.961103 C -23.03286 -22.961103 4.323316 -9.142845 4.323316 -9.142845 C 4.323316 -9.142845 20.525337 -20.318833 20.525337 -20.318833 Z M 20.525337 -20.318833 " stroke="#253237" stroke-width="2" stroke-opacity="1" stroke-miterlimit="4"/><path stroke-linecap="round" transform="matrix(0.52776, 0, 0, 0.527778, 573.835345, 479.970308)" fill-opacity="1" fill="#80cc28" fill-rule="nonzero" stroke-linejoin="round" d="M 5.907569 -152.47007 C 5.907569 -152.47007 30.762017 -28.142757 30.762017 -28.142757 C 27.409109 28.292281 19.052745 89.715806 9.356697 152.464166 C -6.623277 96.236366 -21.493016 37.440308 -30.767174 -34.322856 C -30.767174 -34.322856 -20.649238 -151.441287 -20.649238 -151.441287 C -20.649238 -151.441287 5.907569 -152.47007 5.907569 -152.47007 Z M 5.907569 -152.47007 " stroke="#253237" stroke-width="2" stroke-opacity="1" stroke-miterlimit="4"/><path stroke-linecap="round" transform="matrix(0.52776, 0, 0, 0.527778, 464.506159, 481.947908)" fill-opacity="1" fill="#d4d4d4" fill-rule="nonzero" stroke-linejoin="round" d="M 66.809639 -29.484361 C 66.809639 -29.484361 20.394439 136.956443 20.394439 136.956443 C 5.820762 185.427664 -72.924465 161.758254 -58.350788 113.279632 C -37.115704 1.808405 -11.469289 -96.503281 17.32279 -185.430097 C 55.714696 -154.203943 72.92333 -102.898018 66.809639 -29.484361 Z M 66.809639 -29.484361 " stroke="#253237" stroke-width="2" stroke-opacity="1" stroke-miterlimit="4"/><path stroke-linecap="round" transform="matrix(0.52776, 0, 0, 0.527778, 557.450474, 330.981303)" fill-opacity="1" fill="#253237" fill-rule="nonzero" stroke-linejoin="round" d="M 42.963693 1.012399 C 42.963693 1.012399 43.777865 22.061743 43.777865 22.061743 C -1.90458 24.711414 -25.448952 6.097103 -43.775221 -24.707176 C -14.020939 -5.308325 12.794923 2.662893 42.963693 1.012399 Z M 42.963693 1.012399 " stroke="#253237" stroke-width="2" stroke-opacity="1" stroke-miterlimit="4"/><path stroke-linecap="butt" transform="matrix(0.52776, 0, 0, 0.527778, 579.148873, 464.699613)" fill-opacity="1" fill="#ffffff" fill-rule="nonzero" stroke-linejoin="miter" d="M -57.681204 2.700734 C -46.763899 -13.397129 -32.338253 -27.659466 -16.26946 -41.055848 C -14.085999 -42.876572 -11.488051 -44.216211 -8.682858 -44.638086 C -4.123496 -45.326408 -0.918619 -43.505684 1.168622 -39.612592 C 4.218065 -33.913578 2.811769 -26.830518 -1.717988 -22.219498 C -1.717988 -22.219498 -17.757174 -5.862589 -17.757174 -5.862589 C -9.030732 -7.535286 -0.926021 -10.473609 6.734597 -14.322294 C 16.623085 -19.295978 24.076458 -28.073939 27.888263 -38.457986 C 27.925271 -38.569006 27.962279 -38.672625 27.999287 -38.776243 C 31.56684 -48.516375 44.993275 -49.448941 49.856102 -40.293513 C 50.426022 -39.227723 50.951533 -38.117526 51.440036 -36.96292 C 57.686955 -22.212097 54.644913 -5.159464 44.608394 7.326557 C 36.340848 17.614387 25.26811 26.56998 9.917269 33.49021 C 9.917269 33.49021 -37.06045 49.447449 -37.06045 49.447449 C -37.06045 49.447449 -57.681204 2.700734 -57.681204 2.700734 Z M -57.681204 2.700734 " stroke="#253237" stroke-width="2" stroke-opacity="1" stroke-miterlimit="10"/><path fill="#d4d4d4" d="M 466.476562 565.992188 C 445.96875 582.105469 419.15625 547.980469 439.660156 531.867188 C 439.660156 531.867188 549.777344 460.675781 549.777344 460.675781 C 549.777344 460.675781 565.765625 491.148438 565.765625 491.148438 C 565.765625 491.148438 466.476562 565.992188 466.476562 565.992188 Z M 466.476562 565.992188 " fill-opacity="1" fill-rule="nonzero"/><path stroke-linecap="butt" transform="matrix(0.52776, 0, 0, 0.527778, 516.1195, 513.332754)" fill="none" stroke-linejoin="miter" d="M 63.774884 -99.771115 C 63.774884 -99.771115 94.069481 -42.033446 94.069481 -42.033446 C 94.069481 -42.033446 -94.063442 99.775777 -94.063442 99.775777 " stroke="#253237" stroke-width="2" stroke-opacity="1" stroke-miterlimit="10"/><path stroke-linecap="round" transform="matrix(0.52776, 0, 0, 0.527778, 446.247224, 557.221168)" fill="none" stroke-linejoin="round" d="M -21.437067 -41.370539 C -38.327433 3.081768 0.686204 41.376179 38.330552 16.618775 " stroke="#253237" stroke-width="2" stroke-opacity="1" stroke-miterlimit="4"/><path stroke-linecap="round" transform="matrix(0.52776, 0, 0, 0.527778, 505.855109, 489.071371)" fill="none" stroke-linejoin="round" d="M -83.22249 53.805564 C -83.22249 53.805564 83.223854 -53.802175 83.223854 -53.802175 " stroke="#253237" stroke-width="2" stroke-opacity="1" stroke-miterlimit="4"/><path stroke-linecap="round" transform="matrix(0.52776, 0, 0, 0.527778, 608.642208, 248.956735)" fill-opacity="1" fill="#253237" fill-rule="nonzero" stroke-linejoin="round" d="M 7.628013 -36.473127 C 16.162014 -12.929539 12.216981 11.442996 -1.727563 36.474248 C -1.727563 36.474248 -16.16061 -31.839903 -16.16061 -31.839903 C -16.16061 -31.839903 7.628013 -36.473127 7.628013 -36.473127 Z M 7.628013 -36.473127 " stroke="#253237" stroke-width="2" stroke-opacity="1" stroke-miterlimit="4"/><path stroke-linecap="butt" transform="matrix(0.52776, 0, 0, 0.527778, 568.22741, 271.991608)" fill-opacity="1" fill="#ffffff" fill-rule="nonzero" stroke-linejoin="miter" d="M -73.728572 -12.248081 C -73.728572 -12.248081 -71.323064 32.50768 -71.323064 32.50768 C -71.323064 32.50768 -65.416617 86.130217 -65.416617 86.130217 C -28.897306 109.733015 9.191136 120.916404 50.143983 109.584989 C 58.914835 107.157357 65.768682 100.296337 68.218599 91.533178 C 79.017479 52.913109 78.35874 0.00849947 66.575452 -66.788381 C 32.713302 -120.914208 -37.357293 -114.822925 -79.020689 -67.469302 C -79.020689 -67.469302 -73.728572 -12.248081 -73.728572 -12.248081 Z M -73.728572 -12.248081 " stroke="#253237" stroke-width="2" stroke-opacity="1" stroke-miterlimit="10"/><path stroke-linecap="butt" transform="matrix(0.52776, 0, 0, 0.527778, 521.283076, 274.082116)" fill-opacity="1" fill="#ffffff" fill-rule="nonzero" stroke-linejoin="miter" d="M 15.221555 -16.209043 C 5.969601 -30.271544 -17.819022 -19.887497 -9.536673 3.981748 C -0.921254 23.861684 8.375109 28.694744 17.819503 30.271224 C 17.819503 30.271224 15.221555 -16.209043 15.221555 -16.209043 Z M 15.221555 -16.209043 " stroke="#253237" stroke-width="2" stroke-opacity="1" stroke-miterlimit="10"/><path stroke-linecap="round" transform="matrix(0.52776, 0, 0, 0.527778, 527.750788, 248.503366)" fill-opacity="1" fill="#253237" fill-rule="nonzero" stroke-linejoin="round" d="M 20.537844 -43.08944 C 39.137972 -16.703747 27.043818 37.185237 4.535666 52.03968 C 4.535666 52.03968 2.966534 32.255961 2.966534 32.255961 C -3.102747 26.401519 -9.534705 22.996914 -17.37296 29.125204 C -35.817655 -3.262957 -39.140956 -30.729242 -23.57547 -52.037632 C -23.57547 -52.037632 20.537844 -43.08944 20.537844 -43.08944 Z M 20.537844 -43.08944 " stroke="#253237" stroke-width="2" stroke-opacity="1" stroke-miterlimit="4"/><path stroke-linecap="round" transform="matrix(0.52776, 0, 0, 0.527778, 569.603234, 214.330293)" fill-opacity="1" fill="#253237" fill-rule="nonzero" stroke-linejoin="round" d="M 74.945058 -46.743421 C 102.878556 -8.034537 90.399522 22.880762 65.493263 51.412837 C 42.622434 28.77221 3.653206 27.36596 -49.971117 45.291948 C -49.971117 45.291948 -102.877487 12.711353 -102.877487 12.711353 C -100.109303 -34.116776 -49.171748 -51.413652 -8.618585 -29.764801 C 34.910005 -13.607728 63.369014 -18.418583 74.945058 -46.743421 Z M 74.945058 -46.743421 " stroke="#253237" stroke-width="2" stroke-opacity="1" stroke-miterlimit="4"/><path stroke-linecap="butt" transform="matrix(0.52776, 0, 0, 0.527778, 541.025547, 293.643668)" fill="none" stroke-linejoin="miter" d="M -25.250728 -24.911195 C -15.014366 -1.152969 -0.551713 18.031243 25.250135 24.907066 " stroke="#253237" stroke-width="4" stroke-opacity="1" stroke-miterlimit="10"/><path stroke-linecap="butt" transform="matrix(0.52776, 0, 0, 0.527778, 555.289322, 306.926256)" fill-opacity="1" fill="#253237" fill-rule="nonzero" stroke-linejoin="miter" d="M 2.331 7.237588 C 2.331 7.237588 -6.388041 5.098608 -6.388041 5.098608 C -9.104414 4.432489 -10.680947 1.990055 -9.911185 -0.356162 C -9.911185 -0.356162 -8.645518 -4.204847 -8.645518 -4.204847 C -7.868353 -6.543663 -5.040956 -7.905505 -2.324583 -7.239387 C -2.324583 -7.239387 6.394458 -5.100406 6.394458 -5.100406 C 9.10343 -4.426886 10.679963 -1.991853 9.9102 0.354364 C 9.9102 0.354364 8.644533 4.203049 8.644533 4.203049 C 7.867369 6.549266 5.039972 7.903707 2.331 7.237588 Z M 2.331 7.237588 " stroke="#253237" stroke-width="2" stroke-opacity="1" stroke-miterlimit="10"/><path stroke-linecap="butt" transform="matrix(0.52776, 0, 0, 0.527778, 527.21722, 276.112477)" fill-opacity="1" fill="#80cc28" fill-rule="nonzero" stroke-linejoin="miter" d="M 29.979229 0.00152326 C 29.979229 16.558268 16.560196 29.984256 0.00289962 29.984256 C -16.561798 29.984256 -29.980831 16.558268 -29.980831 0.00152326 C -29.980831 -16.562623 -16.561798 -29.98121 0.00289962 -29.98121 C 16.560196 -29.98121 29.979229 -16.562623 29.979229 0.00152326 Z M 29.979229 0.00152326 " stroke="#253237" stroke-width="2" stroke-opacity="1" stroke-miterlimit="10"/><path stroke-linecap="butt" transform="matrix(0.52776, 0, 0, 0.527778, 547.278963, 238.249695)" fill-opacity="1" fill="#80cc28" fill-rule="nonzero" stroke-linejoin="miter" d="M -50.674166 68.077886 C -44.086776 13.500579 -28.550895 -38.427057 24.762562 -79.171304 C 40.520489 -81.569331 43.599539 -78.949265 52.55543 -69.164724 C -7.249198 -44.992025 -22.910904 8.386269 -32.466322 71.467689 C -34.35372 81.570486 -52.554163 78.173281 -50.674166 68.077886 Z M -50.674166 68.077886 " stroke="#253237" stroke-width="2" stroke-opacity="1" stroke-miterlimit="10"/><path stroke-linecap="round" transform="matrix(0.52776, 0, 0, 0.527778, 590.997576, 278.812595)" fill="none" stroke-linejoin="round" d="M -5.894453 -33.964821 C -3.718394 -8.985378 2.50632 12.02696 12.764886 29.079593 C 3.653563 32.758047 -4.813825 33.964461 -12.763104 33.22433 " stroke="#253237" stroke-width="2" stroke-opacity="1" stroke-miterlimit="4"/><path stroke-linecap="round" transform="matrix(0.52776, 0, 0, 0.527778, 562.703306, 256.198366)" fill="none" stroke-linejoin="round" d="M 12.175228 -5.03868 C 1.161703 -6.267298 -6.957812 -2.500028 -12.175914 6.270532 " stroke="#253237" stroke-width="2" stroke-opacity="1" stroke-miterlimit="4"/><path stroke-linecap="round" transform="matrix(0.52776, 0, 0, 0.527778, 598.396272, 258.808219)" fill="none" stroke-linejoin="round" d="M 9.870386 3.116664 C 4.7263 -0.991066 -1.394792 -3.115244 -9.869582 -0.480375 " stroke="#253237" stroke-width="2" stroke-opacity="1" stroke-miterlimit="4"/><path stroke-linecap="round" transform="matrix(0.52776, 0, 0, 0.527778, 567.401978, 273.379137)" fill-opacity="1" fill="#253237" fill-rule="nonzero" stroke-linejoin="round" d="M -5.024967 0.191998 C -4.810322 5.705978 -2.390011 10.080156 0.385575 9.976538 C 3.161161 9.865518 5.241 5.313709 5.026355 -0.192871 C 4.811709 -5.706851 2.391398 -10.081029 -0.384188 -9.977411 C -3.159774 -9.866391 -5.239613 -5.314582 -5.024967 0.191998 Z M -5.024967 0.191998 " stroke="#253237" stroke-width="2" stroke-opacity="1" stroke-miterlimit="4"/><path stroke-linecap="round" transform="matrix(0.52776, 0, 0, 0.527778, 598.764648, 269.031803)" fill-opacity="1" fill="#253237" fill-rule="nonzero" stroke-linejoin="round" d="M -3.972788 0.154379 C -3.802552 4.632176 -1.885547 8.192209 0.312717 8.103393 C 2.510981 8.021979 4.146726 4.32132 3.97649 -0.156476 C 3.798853 -4.626871 1.881848 -8.194306 -0.316416 -8.10549 C -2.507279 -8.024075 -4.150426 -4.323417 -3.972788 0.154379 Z M -3.972788 0.154379 " stroke="#253237" stroke-width="2" stroke-opacity="1" stroke-miterlimit="4"/><path stroke-linecap="round" transform="matrix(0.52776, 0, 0, 0.527778, 573.948313, 312.366597)" fill="none" stroke-linejoin="round" d="M 14.819644 4.33829 C 3.894938 3.790593 -6.222999 1.436974 -14.823615 -4.343454 " stroke="#253237" stroke-width="2" stroke-opacity="1" stroke-miterlimit="4"/><path stroke-linecap="round" transform="matrix(0.52776, 0, 0, 0.527778, 963.749382, 505.933771)" fill-opacity="1" fill="#ffffff" fill-rule="nonzero" stroke-linejoin="round" d="M 7.721001 -86.529125 C 8.165095 -89.556264 10.622414 -91.880277 13.671858 -92.154126 C 17.949961 -92.538994 21.458302 -88.808731 20.806964 -84.567776 C 20.806964 -84.567776 -8.207162 92.538324 -8.207162 92.538324 C -8.207162 92.538324 -21.455959 92.538324 -21.455959 92.538324 C -21.455959 92.538324 7.721001 -86.529125 7.721001 -86.529125 Z M 7.721001 -86.529125 " stroke="#253237" stroke-width="2" stroke-opacity="1" stroke-miterlimit="4"/><path stroke-linecap="round" transform="matrix(0.52776, 0, 0, 0.527778, 940.564879, 429.92431)" fill-opacity="1" fill="#ffffff" fill-rule="nonzero" stroke-linejoin="round" d="M 61.990982 59.664799 C 61.990982 59.664799 -57.625674 -71.745574 -57.625674 -71.745574 C -57.625674 -71.745574 -58.491657 -70.302318 -58.491657 -70.302318 C -58.491657 -70.302318 -64.294482 -60.70281 -64.294482 -60.70281 C -64.294482 -60.70281 52.183912 68.55378 52.183912 68.55378 C 55.055718 71.743747 60.162796 71.388484 62.575706 67.835852 C 64.292868 65.304602 64.056018 61.929601 61.990982 59.664799 Z M 61.990982 59.664799 " stroke="#253237" stroke-width="2" stroke-opacity="1" stroke-miterlimit="4"/><path stroke-linecap="round" transform="matrix(0.52776, 0, 0, 0.527778, 953.452806, 558.448168)" fill-opacity="1" fill="#d4d4d4" fill-rule="nonzero" stroke-linejoin="round" d="M -54.452693 8.661531 C -54.452693 8.661531 54.453901 8.661531 54.453901 8.661531 C 54.453901 8.661531 40.553766 -8.66495 4.29351 -8.66495 C -29.479821 -8.66495 -49.597268 1.267616 -54.452693 8.661531 Z M -54.452693 8.661531 " stroke="#253237" stroke-width="2" stroke-opacity="1" stroke-miterlimit="4"/><path stroke-linecap="round" transform="matrix(0.52776, 0, 0, 0.527778, 910.083008, 377.486953)" fill-opacity="1" fill="#d4d4d4" fill-rule="nonzero" stroke-linejoin="round" d="M 0.819722 6.774721 C 0.819722 6.774721 6.356091 -1.529556 6.356091 -1.529556 C 6.356091 -1.529556 -0.482953 -6.777089 -0.482953 -6.777089 C -0.482953 -6.777089 -6.359794 1.578997 -6.359794 1.578997 C -6.359794 1.578997 0.819722 6.774721 0.819722 6.774721 Z M 0.819722 6.774721 " stroke="#253237" stroke-width="2" stroke-opacity="1" stroke-miterlimit="4"/><path stroke-linecap="round" transform="matrix(0.52776, 0, 0, 0.527778, 888.438946, 404.484384)" fill-opacity="1" fill="#ffffff" fill-rule="nonzero" stroke-linejoin="round" d="M 51.208674 -39.367618 C 51.208674 -39.367618 27.36824 -56.649692 27.36824 -56.649692 C 27.36824 -56.649692 4.482608 -29.124196 4.482608 -29.124196 C -35.204572 -22.722058 -51.20675 2.242582 -51.20675 2.242582 C -51.20675 2.242582 19.840851 56.649659 19.840851 56.649659 C 44.169788 29.760677 32.645554 -8.644754 32.645554 -8.644754 C 32.645554 -8.644754 51.208674 -39.367618 51.208674 -39.367618 Z M 51.208674 -39.367618 " stroke="#253237" stroke-width="2" stroke-opacity="1" stroke-miterlimit="4"/><path stroke-linecap="round" transform="matrix(0.52776, 0, 0, 0.527778, 898.235241, 394.517784)" fill="none" stroke-linejoin="round" d="M -14.079413 -10.240112 C -14.079413 -10.240112 14.083533 10.239331 14.083533 10.239331 " stroke="#253237" stroke-width="2" stroke-opacity="1" stroke-miterlimit="4"/><path stroke-linecap="round" transform="matrix(0.52776, 0, 0, 0.527778, 626.033999, 558.316816)" fill-opacity="1" fill="#ffffff" fill-rule="nonzero" stroke-linejoin="round" d="M 110.307683 11.027185 C 110.307683 11.027185 -110.303297 11.027185 -110.303297 11.027185 C -110.303297 11.027185 -110.303297 -11.028738 -110.303297 -11.028738 C -110.303297 -11.028738 110.307683 -11.028738 110.307683 -11.028738 C 110.307683 -11.028738 110.307683 11.027185 110.307683 11.027185 Z M 110.307683 11.027185 " stroke="#253237" stroke-width="2" stroke-opacity="1" stroke-miterlimit="4"/><path stroke-linecap="round" transform="matrix(0.52776, 0, 0, 0.527778, 723.850698, 435.437998)" fill-opacity="1" fill="#ffffff" fill-rule="nonzero" stroke-linejoin="round" d="M -245.101113 160.93328 C -245.101113 160.93328 245.096988 160.93328 245.096988 160.93328 C 245.096988 160.93328 245.096988 -160.927766 245.096988 -160.927766 C 245.096988 -160.927766 -245.101113 -160.927766 -245.101113 -160.927766 C -245.101113 -160.927766 -245.101113 160.93328 -245.101113 160.93328 Z M -245.101113 160.93328 " stroke="#253237" stroke-width="2" stroke-opacity="1" stroke-miterlimit="4"/><path stroke-linecap="round" transform="matrix(0.52776, 0, 0, 0.527778, 589.879849, 435.43855)" fill-opacity="1" fill="#ffffff" fill-rule="nonzero" stroke-linejoin="round" d="M 8.746862 -160.928812 C 8.746862 -160.928812 -8.750433 -160.928812 -8.750433 -160.928812 C -8.750433 -160.928812 -8.750433 160.932234 -8.750433 160.932234 C -8.750433 160.932234 8.746862 160.932234 8.746862 160.932234 C 8.746862 160.932234 8.746862 -160.928812 8.746862 -160.928812 Z M 8.746862 -160.928812 " stroke="#253237" stroke-width="2" stroke-opacity="1" stroke-miterlimit="4"/><path stroke-linecap="round" transform="matrix(0.52776, 0, 0, 0.527778, 744.157817, 516.966978)" fill-opacity="1" fill="#ffffff" fill-rule="nonzero" stroke-linejoin="round" d="M -86.845505 -83.823952 C -86.845505 -83.823952 30.550682 -83.823952 30.550682 -83.823952 C 30.550682 -83.823952 86.846969 83.823266 86.846969 83.823266 C 86.846969 83.823266 -56.639727 83.823266 -56.639727 83.823266 C -56.639727 83.823266 -86.845505 -83.823952 -86.845505 -83.823952 Z M -86.845505 -83.823952 " stroke="#253237" stroke-width="2" stroke-opacity="1" stroke-miterlimit="4"/><path stroke-linecap="round" transform="matrix(0.52776, 0, 0, 0.527778, 701.311603, 516.966978)" fill-opacity="1" fill="#ffffff" fill-rule="nonzero" stroke-linejoin="round" d="M -5.660496 -83.823952 C -5.660496 -83.823952 -24.541882 -83.823952 -24.541882 -83.823952 C -24.541882 -83.823952 2.22957 83.823266 2.22957 83.823266 C 2.22957 83.823266 24.545282 83.823266 24.545282 83.823266 C 24.545282 83.823266 -5.660496 -83.823952 -5.660496 -83.823952 Z M -5.660496 -83.823952 " stroke="#253237" stroke-width="2" stroke-opacity="1" stroke-miterlimit="4"/><path stroke-linecap="round" transform="matrix(0.52776, 0, 0, 0.527778, 715.153674, 576.194223)" fill-opacity="1" fill="#253237" fill-rule="nonzero" stroke-linejoin="round" d="M -609.617437 26.51358 C -609.617437 26.51358 609.619796 26.51358 609.619796 26.51358 C 609.619796 26.51358 609.619796 -26.516852 609.619796 -26.516852 C 609.619796 -26.516852 -609.617437 -26.516852 -609.617437 -26.516852 C -609.617437 -26.516852 -609.617437 26.51358 -609.617437 26.51358 Z M -609.617437 26.51358 " stroke="#253237" stroke-width="2" stroke-opacity="1" stroke-miterlimit="4"/><path stroke-linecap="round" transform="matrix(0.52776, 0, 0, 0.527778, 996.092644, 576.192639)" fill-opacity="1" fill="#253237" fill-rule="nonzero" stroke-linejoin="round" d="M 77.296616 26.516581 C 77.296616 26.516581 -77.292425 26.516581 -77.292425 26.516581 C -77.292425 26.516581 -77.292425 -26.521252 -77.292425 -26.521252 C -77.292425 -26.521252 77.296616 -26.521252 77.296616 -26.521252 C 77.296616 -26.521252 77.296616 26.516581 77.296616 26.516581 Z M 77.296616 26.516581 " stroke="#253237" stroke-width="2" stroke-opacity="1" stroke-miterlimit="4"/><g clip-path="url(#d26ccd2346)"><path fill="#231f1f" d="M 730.546875 409.164062 L 722.789062 405.3125 C 721.941406 402.238281 720.722656 399.320312 719.183594 396.605469 L 721.949219 388.390625 C 719.359375 384.9375 716.289062 381.863281 712.839844 379.273438 L 704.632812 382.039062 C 701.949219 380.515625 699.0625 379.304688 696.027344 378.457031 C 697.808594 380.523438 699.792969 382.636719 701.816406 384.789062 C 709.945312 393.4375 719.160156 403.242188 719.160156 415.117188 C 719.160156 433.613281 704.125 448.664062 685.644531 448.664062 C 667.164062 448.664062 652.128906 433.613281 652.128906 415.117188 C 652.128906 403.242188 661.347656 393.4375 669.476562 384.789062 C 671.5 382.636719 673.484375 380.523438 675.261719 378.457031 C 672.226562 379.304688 669.34375 380.515625 666.660156 382.039062 L 658.449219 379.273438 C 655 381.863281 651.933594 384.9375 649.34375 388.390625 L 652.105469 396.605469 C 650.566406 399.320312 649.347656 402.238281 648.5 405.3125 L 640.746094 409.164062 C 640.445312 411.269531 640.289062 413.421875 640.289062 415.609375 C 640.289062 417.800781 640.445312 419.949219 640.746094 422.054688 L 648.5 425.910156 C 649.347656 428.984375 650.566406 431.902344 652.105469 434.617188 L 649.34375 442.832031 C 651.933594 446.285156 655 449.359375 658.449219 451.949219 L 666.660156 449.183594 C 669.371094 450.722656 672.285156 451.941406 675.359375 452.792969 L 679.207031 460.554688 C 681.308594 460.855469 683.460938 461.011719 685.644531 461.011719 C 687.832031 461.011719 689.980469 460.855469 692.085938 460.554688 L 695.933594 452.792969 C 699.003906 451.941406 701.921875 450.722656 704.632812 449.183594 L 712.839844 451.949219 C 716.289062 449.359375 719.359375 446.285156 721.949219 442.832031 L 719.183594 434.617188 C 720.722656 431.902344 721.941406 428.984375 722.789062 425.910156 L 730.546875 422.054688 C 730.84375 419.949219 731.003906 417.800781 731.003906 415.609375 C 731.003906 413.421875 730.84375 411.269531 730.546875 409.164062 " fill-opacity="1" fill-rule="nonzero"/></g><g clip-path="url(#bf5a02df78)"><path fill="#80cc28" d="M 685.644531 366.515625 C 684.390625 381.558594 655.691406 395.828125 655.691406 415.117188 C 655.691406 436.730469 676.445312 443.65625 676.445312 443.65625 C 676.445312 443.65625 682.976562 439.304688 688.152344 430.410156 C 714.027344 419.316406 685.328125 394.644531 685.328125 394.644531 C 685.328125 394.644531 685.527344 400.597656 682 407.019531 C 677.984375 414.339844 671.925781 422.792969 682.277344 428.835938 C 689.820312 419.109375 688.6875 409.214844 688.6875 409.214844 C 688.980469 410.972656 689.164062 412.640625 689.25 414.230469 C 689.308594 418.667969 688.375 425.507812 683.46875 432.511719 C 680.53125 436.699219 674.722656 437.5625 670.6875 434.421875 C 664.933594 429.949219 661.226562 422.957031 661.226562 415.117188 C 661.226562 406.851562 668.789062 398.808594 676.101562 391.027344 C 679.578125 387.332031 682.964844 383.730469 685.644531 380.03125 C 688.328125 383.730469 691.714844 387.332031 695.191406 391.027344 C 702.5 398.808594 710.0625 406.851562 710.0625 415.117188 C 710.0625 428.179688 699.773438 438.878906 686.882812 439.527344 C 686.097656 440.492188 685.277344 441.394531 684.4375 442.234375 C 683.503906 443.171875 682.550781 444.03125 681.605469 444.824219 C 682.925781 445.003906 684.273438 445.101562 685.644531 445.101562 C 702.1875 445.101562 715.601562 431.675781 715.601562 415.117188 C 715.601562 395.828125 686.898438 381.558594 685.644531 366.515625 " fill-opacity="1" fill-rule="nonzero"/></g><g fill="#ffffff" fill-opacity="1"><g transform="translate(460.627952, 671.779168)"><g><path d="M 35.921875 -37.4375 L 21.921875 -37.4375 L 21.921875 0 L 14.5 0 L 14.5 -37.4375 L 0.5625 -37.4375 L 0.5625 -44.109375 L 35.921875 -44.109375 Z M 35.921875 -37.4375 "/></g></g></g><g fill="#ffffff" fill-opacity="1"><g transform="translate(517.147972, 671.779168)"><g><path d="M 25.328125 -44.296875 C 28.441406 -44.296875 31.476562 -43.695312 34.4375 -42.5 C 37.394531 -41.300781 39.945312 -39.632812 42.09375 -37.5 L 37.75 -32.078125 C 36.15625 -33.796875 34.265625 -35.160156 32.078125 -36.171875 C 29.890625 -37.179688 27.679688 -37.6875 25.453125 -37.6875 C 21.046875 -37.6875 17.316406 -36.179688 14.265625 -33.171875 C 11.222656 -30.171875 9.703125 -26.507812 9.703125 -22.1875 C 9.703125 -17.8125 11.222656 -14.117188 14.265625 -11.109375 C 17.316406 -8.109375 21.046875 -6.609375 25.453125 -6.609375 C 30.035156 -6.609375 34.132812 -8.351562 37.75 -11.84375 L 42.15625 -6.9375 C 39.882812 -4.707031 37.238281 -2.941406 34.21875 -1.640625 C 31.195312 -0.335938 28.148438 0.3125 25.078125 0.3125 C 18.609375 0.3125 13.164062 -1.835938 8.75 -6.140625 C 4.34375 -10.453125 2.140625 -15.78125 2.140625 -22.125 C 2.140625 -28.382812 4.375 -33.644531 8.84375 -37.90625 C 13.320312 -42.164062 18.816406 -44.296875 25.328125 -44.296875 Z M 25.328125 -44.296875 "/></g></g></g><g fill="#ffffff" fill-opacity="1"><g transform="translate(562.955838, 671.779168)"><g><path d="M 8.875 -37.90625 C 13.375 -42.164062 18.921875 -44.296875 25.515625 -44.296875 C 32.117188 -44.296875 37.664062 -42.164062 42.15625 -37.90625 C 46.65625 -33.644531 48.90625 -28.363281 48.90625 -22.0625 C 48.90625 -15.757812 46.65625 -10.453125 42.15625 -6.140625 C 37.664062 -1.835938 32.117188 0.3125 25.515625 0.3125 C 18.921875 0.3125 13.375 -1.835938 8.875 -6.140625 C 4.382812 -10.453125 2.140625 -15.757812 2.140625 -22.0625 C 2.140625 -28.363281 4.382812 -33.644531 8.875 -37.90625 Z M 25.578125 -37.625 C 21.210938 -37.625 17.472656 -36.117188 14.359375 -33.109375 C 11.253906 -30.109375 9.703125 -26.421875 9.703125 -22.046875 C 9.703125 -17.679688 11.265625 -13.972656 14.390625 -10.921875 C 17.523438 -7.878906 21.253906 -6.359375 25.578125 -6.359375 C 29.910156 -6.359375 33.609375 -7.878906 36.671875 -10.921875 C 39.742188 -13.972656 41.28125 -17.679688 41.28125 -22.046875 C 41.28125 -26.421875 39.742188 -30.109375 36.671875 -33.109375 C 33.609375 -36.117188 29.910156 -37.625 25.578125 -37.625 Z M 25.578125 -37.625 "/></g></g></g><g fill="#ffffff" fill-opacity="1"><g transform="translate(615.883662, 671.779168)"><g><path d="M 44.046875 0 L 36.734375 0 L 13.234375 -31.640625 L 13.234375 0 L 5.796875 0 L 5.796875 -44.109375 L 13.109375 -44.109375 L 36.734375 -12.421875 L 36.734375 -44.109375 L 44.046875 -44.109375 Z M 44.046875 0 "/></g></g></g><g fill="#ffffff" fill-opacity="1"><g transform="translate(667.677323, 671.779168)"><g><path d="M 20.296875 -44.421875 C 26.003906 -44.421875 31.148438 -42.910156 35.734375 -39.890625 L 32.640625 -33.328125 C 28.148438 -36.066406 23.84375 -37.4375 19.71875 -37.4375 C 17.5 -37.4375 15.75 -37.035156 14.46875 -36.234375 C 13.1875 -35.429688 12.546875 -34.296875 12.546875 -32.828125 C 12.546875 -31.359375 13.128906 -30.109375 14.296875 -29.078125 C 15.472656 -28.046875 16.941406 -27.289062 18.703125 -26.8125 C 20.472656 -26.332031 22.382812 -25.722656 24.4375 -24.984375 C 26.5 -24.253906 28.410156 -23.476562 30.171875 -22.65625 C 31.941406 -21.832031 33.40625 -20.546875 34.5625 -18.796875 C 35.71875 -17.054688 36.296875 -14.953125 36.296875 -12.484375 C 36.296875 -8.609375 34.75 -5.515625 31.65625 -3.203125 C 28.570312 -0.898438 24.570312 0.25 19.65625 0.25 C 16.300781 0.25 13.046875 -0.378906 9.890625 -1.640625 C 6.742188 -2.898438 3.992188 -4.601562 1.640625 -6.75 L 4.859375 -13.171875 C 7.078125 -11.109375 9.519531 -9.519531 12.1875 -8.40625 C 14.851562 -7.300781 17.382812 -6.75 19.78125 -6.75 C 22.382812 -6.75 24.410156 -7.21875 25.859375 -8.15625 C 27.316406 -9.101562 28.046875 -10.414062 28.046875 -12.09375 C 28.046875 -13.613281 27.457031 -14.882812 26.28125 -15.90625 C 25.101562 -16.9375 23.628906 -17.691406 21.859375 -18.171875 C 20.097656 -18.660156 18.1875 -19.25 16.125 -19.9375 C 14.070312 -20.632812 12.160156 -21.367188 10.390625 -22.140625 C 8.628906 -22.921875 7.160156 -24.171875 5.984375 -25.890625 C 4.804688 -27.617188 4.21875 -29.703125 4.21875 -32.140625 C 4.21875 -35.878906 5.6875 -38.859375 8.625 -41.078125 C 11.570312 -43.304688 15.460938 -44.421875 20.296875 -44.421875 Z M 20.296875 -44.421875 "/></g></g></g><g fill="#ffffff" fill-opacity="1"><g transform="translate(708.759553, 671.779168)"><g><path d="M 43.296875 -44.109375 L 43.296875 -18.28125 C 43.296875 -12.519531 41.59375 -7.976562 38.1875 -4.65625 C 34.78125 -1.34375 30.09375 0.3125 24.125 0.3125 C 18.164062 0.3125 13.472656 -1.34375 10.046875 -4.65625 C 6.628906 -7.976562 4.921875 -12.519531 4.921875 -18.28125 L 4.921875 -44.109375 L 12.34375 -44.109375 L 12.34375 -18.28125 C 12.34375 -14.582031 13.40625 -11.671875 15.53125 -9.546875 C 17.65625 -7.421875 20.546875 -6.359375 24.203125 -6.359375 C 27.816406 -6.359375 30.660156 -7.410156 32.734375 -9.515625 C 34.816406 -11.617188 35.859375 -14.539062 35.859375 -18.28125 L 35.859375 -44.109375 Z M 43.296875 -44.109375 "/></g></g></g><g fill="#ffffff" fill-opacity="1"><g transform="translate(758.788986, 671.779168)"><g><path d="M 13.234375 -6.75 L 32.328125 -6.75 L 32.328125 0 L 5.796875 0 L 5.796875 -44.109375 L 13.234375 -44.109375 Z M 13.234375 -6.75 "/></g></g></g><g fill="#ffffff" fill-opacity="1"><g transform="translate(794.326476, 671.779168)"><g><path d="M 35.921875 -37.4375 L 21.921875 -37.4375 L 21.921875 0 L 14.5 0 L 14.5 -37.4375 L 0.5625 -37.4375 L 0.5625 -44.109375 L 35.921875 -44.109375 Z M 35.921875 -37.4375 "/></g></g></g><g fill="#ffffff" fill-opacity="1"><g transform="translate(832.699346, 671.779168)"><g><path d="M 13.234375 0 L 5.796875 0 L 5.796875 -44.109375 L 13.234375 -44.109375 Z M 13.234375 0 "/></g></g></g><g fill="#ffffff" fill-opacity="1"><g transform="translate(853.618872, 671.779168)"><g><path d="M 44.046875 0 L 36.734375 0 L 13.234375 -31.640625 L 13.234375 0 L 5.796875 0 L 5.796875 -44.109375 L 13.109375 -44.109375 L 36.734375 -12.421875 L 36.734375 -44.109375 L 44.046875 -44.109375 Z M 44.046875 0 "/></g></g></g><g fill="#ffffff" fill-opacity="1"><g transform="translate(905.412545, 671.779168)"><g><path d="M 35.984375 -21.671875 L 42.46875 -21.671875 L 42.46875 -5.421875 C 40.195312 -3.691406 37.519531 -2.300781 34.4375 -1.25 C 31.351562 -0.207031 28.316406 0.3125 25.328125 0.3125 C 18.816406 0.3125 13.320312 -1.835938 8.84375 -6.140625 C 4.375 -10.453125 2.140625 -15.757812 2.140625 -22.0625 C 2.140625 -28.363281 4.40625 -33.644531 8.9375 -37.90625 C 13.476562 -42.164062 19.085938 -44.296875 25.765625 -44.296875 C 28.878906 -44.296875 31.9375 -43.738281 34.9375 -42.625 C 37.945312 -41.507812 40.539062 -40.007812 42.71875 -38.125 L 38.5 -32.640625 C 34.882812 -36.003906 30.640625 -37.6875 25.765625 -37.6875 C 21.273438 -37.6875 17.472656 -36.171875 14.359375 -33.140625 C 11.253906 -30.117188 9.703125 -26.425781 9.703125 -22.0625 C 9.703125 -17.644531 11.265625 -13.921875 14.390625 -10.890625 C 17.523438 -7.867188 21.34375 -6.359375 25.84375 -6.359375 C 29.238281 -6.359375 32.617188 -7.367188 35.984375 -9.390625 Z M 35.984375 -21.671875 "/></g></g></g><g fill="#ffffff" fill-opacity="1"><g transform="translate(490.393984, 722.696659)"><g><path d="M 10.140625 -22.203125 C 12.992188 -22.203125 15.566406 -21.445312 17.859375 -19.9375 L 16.3125 -16.65625 C 14.070312 -18.03125 11.921875 -18.71875 9.859375 -18.71875 C 8.742188 -18.71875 7.863281 -18.515625 7.21875 -18.109375 C 6.582031 -17.710938 6.265625 -17.144531 6.265625 -16.40625 C 6.265625 -15.675781 6.554688 -15.050781 7.140625 -14.53125 C 7.734375 -14.019531 8.46875 -13.644531 9.34375 -13.40625 C 10.226562 -13.164062 11.1875 -12.859375 12.21875 -12.484375 C 13.25 -12.117188 14.203125 -11.726562 15.078125 -11.3125 C 15.960938 -10.90625 16.691406 -10.265625 17.265625 -9.390625 C 17.847656 -8.523438 18.140625 -7.472656 18.140625 -6.234375 C 18.140625 -4.304688 17.367188 -2.765625 15.828125 -1.609375 C 14.285156 -0.453125 12.285156 0.125 9.828125 0.125 C 8.148438 0.125 6.519531 -0.1875 4.9375 -0.8125 C 3.363281 -1.445312 1.988281 -2.300781 0.8125 -3.375 L 2.421875 -6.578125 C 3.535156 -5.554688 4.757812 -4.765625 6.09375 -4.203125 C 7.425781 -3.648438 8.691406 -3.375 9.890625 -3.375 C 11.191406 -3.375 12.203125 -3.609375 12.921875 -4.078125 C 13.648438 -4.546875 14.015625 -5.203125 14.015625 -6.046875 C 14.015625 -6.804688 13.71875 -7.441406 13.125 -7.953125 C 12.539062 -8.460938 11.804688 -8.835938 10.921875 -9.078125 C 10.046875 -9.328125 9.09375 -9.625 8.0625 -9.96875 C 7.03125 -10.3125 6.070312 -10.675781 5.1875 -11.0625 C 4.3125 -11.457031 3.578125 -12.082031 2.984375 -12.9375 C 2.398438 -13.800781 2.109375 -14.84375 2.109375 -16.0625 C 2.109375 -17.9375 2.84375 -19.425781 4.3125 -20.53125 C 5.78125 -21.644531 7.722656 -22.203125 10.140625 -22.203125 Z M 10.140625 -22.203125 "/></g></g></g><g fill="#ffffff" fill-opacity="1"><g transform="translate(516.285272, 722.696659)"><g><path d="M 4.4375 -18.9375 C 6.6875 -21.070312 9.457031 -22.140625 12.75 -22.140625 C 16.050781 -22.140625 18.820312 -21.070312 21.0625 -18.9375 C 23.3125 -16.8125 24.4375 -14.171875 24.4375 -11.015625 C 24.4375 -7.867188 23.3125 -5.21875 21.0625 -3.0625 C 18.820312 -0.914062 16.050781 0.15625 12.75 0.15625 C 9.457031 0.15625 6.6875 -0.914062 4.4375 -3.0625 C 2.195312 -5.21875 1.078125 -7.867188 1.078125 -11.015625 C 1.078125 -14.171875 2.195312 -16.8125 4.4375 -18.9375 Z M 12.78125 -18.8125 C 10.601562 -18.8125 8.734375 -18.054688 7.171875 -16.546875 C 5.617188 -15.046875 4.84375 -13.203125 4.84375 -11.015625 C 4.84375 -8.835938 5.625 -6.988281 7.1875 -5.46875 C 8.757812 -3.945312 10.625 -3.1875 12.78125 -3.1875 C 14.945312 -3.1875 16.796875 -3.945312 18.328125 -5.46875 C 19.859375 -6.988281 20.625 -8.835938 20.625 -11.015625 C 20.625 -13.203125 19.859375 -15.046875 18.328125 -16.546875 C 16.796875 -18.054688 14.945312 -18.8125 12.78125 -18.8125 Z M 12.78125 -18.8125 "/></g></g></g><g fill="#ffffff" fill-opacity="1"><g transform="translate(548.097079, 722.696659)"><g><path d="M 12.65625 -22.140625 C 14.21875 -22.140625 15.738281 -21.835938 17.21875 -21.234375 C 18.695312 -20.640625 19.972656 -19.8125 21.046875 -18.75 L 18.875 -16.03125 C 18.070312 -16.894531 17.125 -17.578125 16.03125 -18.078125 C 14.9375 -18.585938 13.832031 -18.84375 12.71875 -18.84375 C 10.519531 -18.84375 8.65625 -18.085938 7.125 -16.578125 C 5.601562 -15.078125 4.84375 -13.25 4.84375 -11.09375 C 4.84375 -8.90625 5.601562 -7.0625 7.125 -5.5625 C 8.65625 -4.0625 10.519531 -3.3125 12.71875 -3.3125 C 15.007812 -3.3125 17.0625 -4.179688 18.875 -5.921875 L 21.078125 -3.46875 C 19.941406 -2.351562 18.617188 -1.46875 17.109375 -0.8125 C 15.597656 -0.164062 14.070312 0.15625 12.53125 0.15625 C 9.300781 0.15625 6.582031 -0.914062 4.375 -3.0625 C 2.175781 -5.21875 1.078125 -7.882812 1.078125 -11.0625 C 1.078125 -14.1875 2.191406 -16.8125 4.421875 -18.9375 C 6.660156 -21.070312 9.40625 -22.140625 12.65625 -22.140625 Z M 12.65625 -22.140625 "/></g></g></g><g fill="#ffffff" fill-opacity="1"><g transform="translate(576.350276, 722.696659)"><g><path d="M 6.609375 0 L 2.890625 0 L 2.890625 -22.046875 L 6.609375 -22.046875 Z M 6.609375 0 "/></g></g></g><g fill="#ffffff" fill-opacity="1"><g transform="translate(592.164119, 722.696659)"><g><path d="M 18.640625 -18.71875 L 6.609375 -18.71875 L 6.609375 -12.75 L 17.390625 -12.75 L 17.390625 -9.421875 L 6.609375 -9.421875 L 6.609375 -3.34375 L 19.03125 -3.34375 L 19.03125 0 L 2.890625 0 L 2.890625 -22.046875 L 18.640625 -22.046875 Z M 18.640625 -18.71875 "/></g></g></g><g fill="#ffffff" fill-opacity="1"><g transform="translate(619.126144, 722.696659)"><g><path d="M 2.890625 -22.046875 L 11.9375 -22.046875 C 15.238281 -22.046875 17.960938 -21.003906 20.109375 -18.921875 C 22.265625 -16.847656 23.34375 -14.210938 23.34375 -11.015625 C 23.34375 -7.828125 22.257812 -5.191406 20.09375 -3.109375 C 17.9375 -1.035156 15.1875 0 11.84375 0 L 2.890625 0 Z M 6.609375 -18.71875 L 6.609375 -3.34375 L 12.03125 -3.34375 C 14.195312 -3.34375 16 -4.0625 17.4375 -5.5 C 18.875 -6.9375 19.59375 -8.765625 19.59375 -10.984375 C 19.59375 -13.210938 18.851562 -15.054688 17.375 -16.515625 C 15.894531 -17.984375 14.0625 -18.71875 11.875 -18.71875 Z M 6.609375 -18.71875 "/></g></g></g><g fill="#ffffff" fill-opacity="1"><g transform="translate(649.835727, 722.696659)"><g><path d="M 17.140625 -4.984375 L 6.015625 -4.984375 L 3.90625 0 L 0.03125 0 L 9.765625 -22.046875 L 13.578125 -22.046875 L 23.21875 0 L 19.25 0 Z M 15.71875 -8.28125 L 11.5625 -18.078125 L 7.40625 -8.28125 Z M 15.71875 -8.28125 "/></g></g></g><g fill="#ffffff" fill-opacity="1"><g transform="translate(679.380106, 722.696659)"><g><path d="M 2.890625 -22.046875 L 11.9375 -22.046875 C 15.238281 -22.046875 17.960938 -21.003906 20.109375 -18.921875 C 22.265625 -16.847656 23.34375 -14.210938 23.34375 -11.015625 C 23.34375 -7.828125 22.257812 -5.191406 20.09375 -3.109375 C 17.9375 -1.035156 15.1875 0 11.84375 0 L 2.890625 0 Z M 6.609375 -18.71875 L 6.609375 -3.34375 L 12.03125 -3.34375 C 14.195312 -3.34375 16 -4.0625 17.4375 -5.5 C 18.875 -6.9375 19.59375 -8.765625 19.59375 -10.984375 C 19.59375 -13.210938 18.851562 -15.054688 17.375 -16.515625 C 15.894531 -17.984375 14.0625 -18.71875 11.875 -18.71875 Z M 6.609375 -18.71875 "/></g></g></g><g fill="#ffffff" fill-opacity="1"><g transform="translate(710.089689, 722.696659)"><g/></g></g><g fill="#ffffff" fill-opacity="1"><g transform="translate(724.517888, 722.696659)"><g><path d="M 17.140625 -4.984375 L 6.015625 -4.984375 L 3.90625 0 L 0.03125 0 L 9.765625 -22.046875 L 13.578125 -22.046875 L 23.21875 0 L 19.25 0 Z M 15.71875 -8.28125 L 11.5625 -18.078125 L 7.40625 -8.28125 Z M 15.71875 -8.28125 "/></g></g></g><g fill="#ffffff" fill-opacity="1"><g transform="translate(754.062267, 722.696659)"><g><path d="M 22.015625 0 L 18.359375 0 L 6.609375 -15.8125 L 6.609375 0 L 2.890625 0 L 2.890625 -22.046875 L 6.546875 -22.046875 L 18.359375 -6.203125 L 18.359375 -22.046875 L 22.015625 -22.046875 Z M 22.015625 0 "/></g></g></g><g fill="#ffffff" fill-opacity="1"><g transform="translate(785.307216, 722.696659)"><g><path d="M 4.4375 -18.9375 C 6.6875 -21.070312 9.457031 -22.140625 12.75 -22.140625 C 16.050781 -22.140625 18.820312 -21.070312 21.0625 -18.9375 C 23.3125 -16.8125 24.4375 -14.171875 24.4375 -11.015625 C 24.4375 -7.867188 23.3125 -5.21875 21.0625 -3.0625 C 18.820312 -0.914062 16.050781 0.15625 12.75 0.15625 C 9.457031 0.15625 6.6875 -0.914062 4.4375 -3.0625 C 2.195312 -5.21875 1.078125 -7.867188 1.078125 -11.015625 C 1.078125 -14.171875 2.195312 -16.8125 4.4375 -18.9375 Z M 12.78125 -18.8125 C 10.601562 -18.8125 8.734375 -18.054688 7.171875 -16.546875 C 5.617188 -15.046875 4.84375 -13.203125 4.84375 -11.015625 C 4.84375 -8.835938 5.625 -6.988281 7.1875 -5.46875 C 8.757812 -3.945312 10.625 -3.1875 12.78125 -3.1875 C 14.945312 -3.1875 16.796875 -3.945312 18.328125 -5.46875 C 19.859375 -6.988281 20.625 -8.835938 20.625 -11.015625 C 20.625 -13.203125 19.859375 -15.046875 18.328125 -16.546875 C 16.796875 -18.054688 14.945312 -18.8125 12.78125 -18.8125 Z M 12.78125 -18.8125 "/></g></g></g><g fill="#ffffff" fill-opacity="1"><g transform="translate(817.119029, 722.696659)"><g><path d="M 22.015625 0 L 18.359375 0 L 6.609375 -15.8125 L 6.609375 0 L 2.890625 0 L 2.890625 -22.046875 L 6.546875 -22.046875 L 18.359375 -6.203125 L 18.359375 -22.046875 L 22.015625 -22.046875 Z M 22.015625 0 "/></g></g></g><g fill="#ffffff" fill-opacity="1"><g transform="translate(848.363978, 722.696659)"><g><path d="M 6.609375 0 L 2.890625 0 L 2.890625 -22.046875 L 6.609375 -22.046875 Z M 6.609375 0 "/></g></g></g><g fill="#ffffff" fill-opacity="1"><g transform="translate(864.177827, 722.696659)"><g><path d="M 26.203125 0 L 22.78125 0 L 22.75 -16.46875 L 15.78125 -2.296875 L 13.359375 -2.296875 L 6.390625 -16.46875 L 6.390625 0 L 2.890625 0 L 2.890625 -22.046875 L 7.3125 -22.046875 L 14.578125 -7.40625 L 21.828125 -22.046875 L 26.203125 -22.046875 Z M 26.203125 0 "/></g></g></g><g fill="#ffffff" fill-opacity="1"><g transform="translate(899.611177, 722.696659)"><g><path d="M 17.140625 -4.984375 L 6.015625 -4.984375 L 3.90625 0 L 0.03125 0 L 9.765625 -22.046875 L 13.578125 -22.046875 L 23.21875 0 L 19.25 0 Z M 15.71875 -8.28125 L 11.5625 -18.078125 L 7.40625 -8.28125 Z M 15.71875 -8.28125 "/></g></g></g></svg>